<svg width="120" height="32" viewBox="0 0 120 32" xmlns="http://www.w3.org/2000/svg"><g fill="none" fill-rule="evenodd"><g stroke="currentColor"><path d="M21.877 4.93c-.047.286-.378 2.074-.993 5.363a.377.377 0 0 0 .03.243c.418.889.827 1.773 1.23 2.652.12.261.321.456.604.584 2.488 1.128 4.878 2.22 7.17 3.276.038.017.083.01.116-.019l7.492-6.579a.64.64 0 0 0 .213-.396c1.25-8.858-9.544-13.685-15.278-6.76a2.06 2.06 0 0 0-.378.788c-.118.434-.186.717-.206.848m-1.123-1.129a.124.124 0 0 0-.05-.122c-3.377-2.272-7.51.804-6.354 4.638a.225.225 0 0 0 .162.153l4.997 1.206c.03.007.06.002.086-.015a.108.108 0 0 0 .049-.07l1.11-5.79m-6.82 5.926a.216.216 0 0 0-.118.007c-4.978 1.866-5.113 8.659-.245 10.78a.204.204 0 0 0 .215-.035l7.251-6.519a.15.15 0 0 0 .033-.18l-1.431-2.634a.316.316 0 0 0-.216-.163L13.935 9.727m24.18 12.563c.04.009.083.006.12-.007 5.028-1.818 5.243-8.65.374-10.84a.205.205 0 0 0-.218.032l-7.37 6.472a.15.15 0 0 0-.034.184l1.408 2.663c.047.088.12.144.215.167l5.505 1.329m-16.222-7.352c-2.85 2.563-5.27 4.756-7.265 6.58-.13.117-.203.238-.218.364-.442 3.36.57 6.078 3.035 8.155 1.226 1.034 2.556 1.652 3.989 1.852 3.399.478 6.167-.591 8.303-3.208.144-.176.318-.49.371-.758.393-2.036.788-4.093 1.185-6.171a.406.406 0 0 0-.042-.272l-1.558-2.95a.536.536 0 0 0-.257-.242l-7.388-3.373a.143.143 0 0 0-.155.023m9.518 13.238a.124.124 0 0 0 .051.122c3.36 2.268 7.48-.795 6.335-4.615a.224.224 0 0 0-.162-.153l-4.976-1.208a.113.113 0 0 0-.086.014.108.108 0 0 0-.049.072l-1.113 5.768"/></g><path d="M21.877 4.93c.02-.131.088-.414.206-.848a2.06 2.06 0 0 1 .378-.788c5.734-6.925 16.528-2.098 15.278 6.76a.64.64 0 0 1-.213.396l-7.492 6.58a.109.109 0 0 1-.116.018 1392.032 1392.032 0 0 0-7.17-3.276 1.17 1.17 0 0 1-.605-.584 281.22 281.22 0 0 0-1.229-2.652.377.377 0 0 1-.03-.243c.615-3.29.946-5.077.993-5.363zm-1.123-1.129l-1.11 5.79a.108.108 0 0 1-.049.07.113.113 0 0 1-.086.015L14.512 8.47a.225.225 0 0 1-.162-.153c-1.155-3.834 2.977-6.91 6.353-4.638.04.028.06.075.051.122z" fill="currentColor" fill-rule="nonzero"/><rect fill="currentColor" fill-rule="nonzero" x="61.05" y="7.253" width="1.809" height="17.262" rx=".46"/><path d="M97.498 7.684l.993-.004a.41.41 0 0 1 .411.409l.005 1.294a.41.41 0 0 1-.409.412l-.993.003a.41.41 0 0 1-.411-.408l-.005-1.295a.41.41 0 0 1 .409-.411z" fill="currentColor" fill-rule="nonzero"/><path d="M90.807 14.173c-.058 4.042-.046 6.533.037 7.474.1 1.122.725 1.629 1.872 1.519a30.054 30.054 0 0 1 1.892-.125c.038-.002.059.017.06.055l.079 1.333c.003.042-.015.068-.056.077-1.345.32-2.581.361-3.71.125-1.84-.387-2.015-2.525-2.006-4.133.024-3.852.033-5.951.028-6.3 0-.095-.048-.143-.146-.143h-1.48c-.055 0-.083-.028-.083-.083v-1.403c0-.047.039-.086.086-.086h1.48c.07 0 .127-.057.127-.127V8.902c0-.06.029-.089.086-.089h1.567c.036 0 .07.015.095.04.026.026.04.061.04.097v3.434c0 .066.034.1.102.1h3.59c.08 0 .12.04.12.122v1.33c0 .081-.041.121-.123.121h-3.538c-.078 0-.117.039-.119.116z" fill="currentColor" fill-rule="nonzero"/><path d="M13.935 9.727l5.488 1.256a.316.316 0 0 1 .216.163l1.43 2.633a.15.15 0 0 1-.032.181l-7.25 6.519a.204.204 0 0 1-.216.035c-4.868-2.121-4.733-8.914.245-10.78a.216.216 0 0 1 .119-.007z" fill="currentColor" fill-rule="nonzero"/><path d="M38.115 22.29L32.61 20.96a.322.322 0 0 1-.215-.167l-1.408-2.663a.15.15 0 0 1 .035-.184l7.369-6.472a.205.205 0 0 1 .218-.033c4.87 2.191 4.654 9.023-.373 10.84a.218.218 0 0 1-.121.008z" fill="currentColor" fill-rule="nonzero"/><path d="M50.541 19.357c-.02.233-.014.468.017.705.26 1.952.936 3.108 3.153 3.108 1.504 0 2.952-.07 4.343-.213a.079.079 0 0 1 .088.079v1.282c0 .042-.02.066-.06.072-1.147.176-2.495.297-4.044.362-2.247.095-4.206-.434-4.904-2.861-.536-1.856-.596-3.789-.179-5.798.657-3.158 3.14-4.266 6.14-3.7 1.552.292 2.658 1.261 3.108 2.768.275.923.392 1.812.35 2.668l-.07 1.317a.134.134 0 0 1-.134.127h-7.72a.09.09 0 0 0-.088.084zm.107-1.519l6.034-.032a.067.067 0 0 0 .065-.067l-.005-.886c-.004-.817-.294-1.6-.805-2.174-.512-.576-1.203-.897-1.922-.893l-.747.005c-1.497.008-2.703 1.393-2.694 3.095l.005.885a.067.067 0 0 0 .07.067zm21.755-.776c.06-1.644.046-3.14-1.94-3.204a936.54 936.54 0 0 0-4.636-.01.136.136 0 0 1-.135-.136v-1.326c0-.079.04-.118.116-.118a815.87 815.87 0 0 0 4.204-.01c2.516-.078 4.177.833 4.197 3.594.016 2.227.014 4.125-.004 5.693-.006.447.069.73.225.847.238.177.572.28 1.004.308.16.01.24.094.24.255v1.266c0 .08-.04.125-.12.134a5.915 5.915 0 0 1-2.458-.197.447.447 0 0 1-.201-.13l-.051-.058a.174.174 0 0 0-.207-.053c-1.847.688-3.46.956-4.841.804-2.449-.266-3.16-2.52-2.737-4.634.337-1.678 1.628-2.3 3.166-2.51.837-.118 2.19-.248 4.055-.39.079-.006.12-.048.123-.125zm-2.393 1.706c-.916.107-2.465.04-2.92 1.022-.287.622-.355 1.292-.203 2.013.227 1.075.953 1.502 2.045 1.435 1.286-.08 2.408-.315 3.364-.707a.169.169 0 0 0 .112-.17v-3.686a.111.111 0 0 0-.119-.11 55.08 55.08 0 0 0-2.279.203zm13.393 3.89c.865-.56.981-2.246.082-2.849-.245-.164-.676-.31-1.294-.44a93.591 93.591 0 0 0-2.192-.41c-2.33-.42-3.378-1.336-3.125-3.817.2-1.96 2.066-2.784 3.867-2.863.82-.035 2.378.04 4.675.225.085.006.128.052.128.137v1.298c0 .04-.016.078-.045.105a.14.14 0 0 1-.106.039c-.724-.045-1.928-.111-3.613-.2-1.305-.067-3.137.058-3.144 1.848-.005.893.587 1.268 1.489 1.475 1.51.343 2.87.512 4.206 1.05 1.259.505 1.53 1.514 1.574 2.826.119 3.498-3.211 3.839-5.864 3.614a89.225 89.225 0 0 1-2.996-.29c-.055-.008-.083-.04-.083-.095v-1.354c0-.1.05-.145.15-.134 1.007.106 2.057.202 3.15.287 1.106.084 2.323.081 3.141-.452zM110 12.632v.329l-.104 1.02c-.008.076-.05.11-.126.102-1.63-.148-5.015-.816-5.797 1.36-.589 1.644-.514 3.835-.199 5.467.267 1.374 1.112 2.103 2.534 2.186 1.117.067 2.267.008 3.453-.176a.165.165 0 0 1 .19.155L110 24v.369c-1.74.406-3.37.498-4.895.274-1.193-.177-2.1-.836-2.722-1.978-.192-.354-.349-.889-.471-1.604-.274-1.621-.278-3.318-.014-5.091.656-4.384 4.849-3.939 8.102-3.338z" fill="currentColor" fill-rule="nonzero"/><rect fill="currentColor" fill-rule="nonzero" x="97.096" y="12.486" width="1.804" height="12.036" rx=".46"/><path d="M21.893 14.938a.143.143 0 0 1 .155-.023l7.388 3.373c.11.05.202.135.257.241l1.558 2.951c.045.083.06.179.042.272-.397 2.078-.792 4.135-1.185 6.17a1.966 1.966 0 0 1-.37.759c-2.137 2.617-4.905 3.686-8.304 3.208-1.433-.2-2.763-.818-3.989-1.852-2.465-2.077-3.477-4.796-3.035-8.155.015-.126.088-.247.218-.364 1.994-1.824 4.416-4.017 7.265-6.58z" fill="currentColor" fill-rule="nonzero"/><path d="M31.411 28.176l1.113-5.768a.108.108 0 0 1 .049-.072.113.113 0 0 1 .086-.014l4.976 1.208c.078.019.14.077.162.153 1.146 3.82-2.975 6.883-6.335 4.615a.124.124 0 0 1-.05-.122z" fill="currentColor" fill-rule="nonzero"/></g></svg>