<?xml version="1.0" encoding="UTF-8"?>
<svg width="120px" height="32px" viewBox="0 0 120 32" version="1.1" xmlns="http://www.w3.org/2000/svg" xmlns:xlink="http://www.w3.org/1999/xlink">
    <title>Grafand</title>
    <g id="Grafand" stroke="none" stroke-width="1" fill="none" fill-rule="evenodd">
        <g transform="translate(10.000000, 4.000000)" fill="currentColor" fill-rule="nonzero">
            <path d="M11.9276284,0 C12.9272979,0.594380165 13.6271326,1.42247934 14.0271326,2.48429752 C14.0396946,2.51867769 14.0634962,2.5414876 14.0985375,2.55272727 C14.3177111,2.6231405 14.5299425,2.59735537 14.7798598,2.66479339 C15.3213475,2.81024793 15.8208516,2.97652893 16.2783722,3.16363636 C16.354296,3.19478844 16.4405349,3.18778614 16.5104384,3.14479339 C17.0995293,2.7785124 17.7587028,2.59404959 18.487959,2.59140496 C18.6340747,2.5907438 18.7421739,2.60396694 18.8122565,2.63107438 C18.8426698,2.64363636 18.8654797,2.66446281 18.8806863,2.69355372 C19.1385375,3.19239669 19.226802,3.67239669 19.3011822,4.02049587 C19.3758929,4.37024793 19.3573805,4.70413223 19.245645,5.02214876 C19.2309655,5.06167908 19.2397564,5.10639786 19.2684549,5.13818182 C20.1239921,6.09421488 20.7996946,7.1646281 21.2955623,8.34942149 C21.4198598,8.64694215 21.5686202,9.20330579 21.7418433,10.0185124 C21.8360582,10.4598347 21.761678,10.934876 21.8866367,11.3613223 C21.913083,11.452562 21.8787028,11.5028099 21.7834962,11.5120661 L21.5722565,11.5328926 C21.4995293,11.5395041 21.4552317,11.507438 21.439364,11.4366942 C21.0830003,9.89421488 20.3603557,8.54049587 19.2714301,7.37553719 C18.9064714,6.98479339 18.3183722,6.52859504 17.9077937,6.2568595 C17.1712648,5.77090909 16.3791987,5.40760331 15.5315954,5.16694215 C15.0026698,5.01752066 14.5910995,4.94181818 14.2968846,4.93983471 C13.2763888,4.93487603 12.675397,4.88429752 11.9395293,5.03504132 C10.9947359,5.22809917 10.1431656,5.58082645 9.38481852,6.09322314 C7.84663671,7.13256198 6.84994249,8.88892562 6.506802,10.6958678 C6.41952927,11.1560331 6.27870282,11.7163636 6.28762844,12.2687603 C6.10448795,12.2509091 5.92696728,12.2439669 5.75506646,12.2479339 C5.05424001,12.2638017 4.35374414,12.2723967 3.65357886,12.2737429 C3.03143009,12.2750413 2.51176067,12.2214876 2.09457059,12.1130579 L2.92663671,11.587438 C2.95365416,11.5704627 2.9715278,11.5420108 2.97523175,11.5100826 C2.99209125,11.3692562 2.94746315,11.2036364 2.99109952,11.0717355 C3.12300034,10.6641322 3.15076894,10.2753719 3.27969456,9.8092562 C3.36101687,9.51239669 3.43671935,9.25024793 3.506802,9.02280992 C3.5162909,8.99233822 3.51307033,8.95941685 3.49787638,8.93157025 C3.46349621,8.86876033 3.37820695,8.72528926 3.24200861,8.50115702 C2.53490117,7.33983471 2.220521,5.80760331 2.28994249,4.41520661 C2.29126481,4.38280992 2.30316563,4.35504132 2.32564497,4.33190083 C2.37192596,4.28429752 2.43010778,4.24595041 2.50019043,4.2168595 C3.68035571,3.72628099 4.93093423,3.6 6.25192596,3.83801653 C6.48200861,3.87966942 6.71738051,3.95966942 6.95804166,4.07801653 C7.02324141,4.11031974 7.10082676,4.10382244 7.15936398,4.06115702 C7.88729786,3.53553719 8.71704993,3.1368595 9.64862018,2.86512397 C9.67881465,2.8564436 9.70241915,2.8328391 9.71109952,2.80264463 C10.0363888,1.63041322 10.8188681,0.656528926 11.8155623,0 L11.9276284,0 Z" id="路径"></path>
            <path d="M37.2991987,13.7990083 L31.4380417,13.7990083 C31.3651949,13.7990083 31.3061408,13.7399543 31.3061408,13.6671074 L31.3061408,12.0049587 C31.3061408,11.9644274 31.338998,11.9315702 31.3795293,11.9315702 L39.5544053,11.9315702 C39.5708988,11.9315336 39.5866676,11.9383443 39.5979482,11.9503769 C39.6092288,11.9624095 39.615009,11.9785845 39.614042,11.9950413 C39.6026698,12.1755372 39.5973805,12.2773554 39.5980417,12.3004959 C39.6958929,14.7593388 38.9084549,16.8072727 37.2357276,18.4442975 C35.8096119,19.8396694 34.0125871,20.5289256 31.9983722,20.4723967 C30.2549012,20.4228099 28.4925871,19.7682645 27.2400251,18.5028099 C26.0191987,17.2690909 25.1177111,15.6733884 24.9025045,13.9666116 C24.8549012,13.5871074 24.8215127,13.3239669 24.8023392,13.1771901 C24.7646532,12.8895868 24.7636615,12.6006612 24.799364,12.3104132 C24.8284549,12.0677686 24.8644879,11.7804959 24.9074632,11.448595 C24.9520913,11.1084298 25.0403557,10.8575207 25.1335789,10.5123967 C25.5441574,9.00198347 26.3851491,7.83173554 27.559364,6.7477686 C28.9696119,5.4446281 30.8370499,4.80198347 32.7401904,4.89520661 C34.5372152,4.98347107 36.0555623,5.80363636 37.3706036,6.99768595 C37.4598598,7.07900826 37.5818433,7.14347107 37.6820086,7.21487603 C37.7104384,7.23471074 37.7124218,7.25652893 37.687959,7.28033058 C37.6135789,7.35173554 37.4886202,7.44198347 37.4162235,7.53322314 C37.1041574,7.92727273 36.7831656,8.30975207 36.4532483,8.68066116 C36.4155623,8.72363636 36.37424,8.72760331 36.3292813,8.69256198 C35.3920913,7.95272727 34.4945706,7.37553719 33.3084549,7.14743802 C31.1682896,6.73487603 28.8674632,7.74049587 27.7596946,9.64066116 C26.9563888,11.0191736 26.7230003,12.5087603 27.0595293,14.1094215 C27.420521,15.8284298 28.4221739,17.098843 30.0644879,17.9206612 C30.2158929,17.9960331 30.5441574,18.098843 31.0492813,18.2290909 C31.4254797,18.3256198 31.7676284,18.3758678 32.0757276,18.3798347 C32.6000251,18.3877686 33.1309342,18.3143802 33.6684549,18.1596694 C35.5834962,17.6092562 36.9977111,15.8985124 37.399364,13.9209917 C37.4052981,13.8910126 37.3974977,13.8599514 37.3781037,13.8363329 C37.3587096,13.8127144 37.3297595,13.79902 37.2991987,13.7990083 Z" id="路径"></path>
            <path d="M62.0806863,12.1299174 L62.0806863,20.4218182 C62.0806863,20.4561983 62.0638268,20.4733884 62.0301078,20.4733884 L60.1081243,20.4733884 C60.0873454,20.4733884 60.0674175,20.4650295 60.0527245,20.4501506 C60.0380316,20.4352717 60.0297772,20.4150916 60.0297772,20.3940496 C60.0377111,17.1550413 60.039364,13.7728926 60.0347359,10.2476033 C60.0334136,9.35900826 60.0836615,8.74677686 60.1854797,8.41090909 C60.5296119,7.28033058 61.5124218,6.40363636 62.6568846,6.11206612 C62.9292813,6.04198347 63.3560582,6.00363636 63.9372152,5.99702479 C64.6241574,5.98909091 65.319364,5.99239669 66.0228351,6.00694215 C66.0427104,6.00742789 66.0610783,6.01764816 66.071969,6.03428117 C66.0828596,6.05091418 66.0848826,6.07183648 66.0773805,6.09024793 L65.3484549,7.84264463 C65.3250381,7.89914435 65.2704033,7.93621794 65.2096119,7.9368595 C65.0502731,7.93884298 64.6545706,7.9431405 64.0225045,7.94975207 C63.5881243,7.95438017 63.2717607,8.00066116 63.0734136,8.08859504 C62.6033309,8.29752066 62.2876284,8.65917355 62.1263061,9.17355372 C62.0529177,9.40561983 62.0876284,9.71900826 62.0648185,9.95900826 C62.0555623,10.0595041 62.1015127,10.1097521 62.2026698,10.1097521 L65.2274632,10.1097521 C65.2445598,10.1097521 65.2609561,10.1166482 65.2730452,10.1289233 C65.2851344,10.1411984 65.291926,10.157847 65.291926,10.1752066 L65.291926,11.8353719 C65.291926,11.9504132 65.2347359,12.0079339 65.1203557,12.0079339 L62.2026698,12.0079339 C62.1213475,12.0079339 62.0806863,12.048595 62.0806863,12.1299174 Z" id="路径"></path>
            <path d="M20.6915954,15.8152066 C19.6601904,16.061157 18.540521,16.0165289 17.4902731,15.9173554 C17.7613475,15.1828099 17.8515954,14.4224793 17.7610169,13.6363636 C17.6201904,12.4214876 16.7663061,11.3414876 15.7289508,10.7742149 C15.1815127,10.4740496 14.6043227,10.3305785 13.9973805,10.3438017 C13.325645,10.3583471 12.7395293,10.5583471 12.2390334,10.9438017 C11.4367194,11.5616529 10.9706036,12.4522314 10.9646532,13.4300826 C10.9626698,13.7540496 11.0549012,14.1395041 11.2413475,14.5864463 C11.3874632,14.9355372 11.6231656,15.2247934 11.9484549,15.4542149 C12.6320913,15.9355372 13.4234962,16.0221488 14.3226698,15.7140496 C14.4310995,15.6770248 14.5587028,15.6826446 14.7054797,15.7309091 C14.7385375,15.7414876 14.7603557,15.7633058 14.7709342,15.7963636 C14.8178764,15.941157 14.8033309,16.0433058 14.7272979,16.1028099 C14.2423392,16.4806612 13.571926,16.7890909 12.9501078,16.7484298 C11.3048185,16.6403306 9.99771109,15.5702479 9.57225654,13.9775207 C9.47308299,13.6076033 9.48994249,13.162314 9.48498381,12.7418182 C9.47109952,11.5239669 10.3190334,10.1930579 11.205645,9.4353719 C11.9563888,8.79371901 12.9600251,8.38016529 13.9001904,8.38710744 C14.0469673,8.38842975 14.4076284,8.38247934 14.9821739,8.3692562 C15.1924218,8.3646281 15.4234962,8.39636364 15.675397,8.46446281 C16.8853144,8.79173554 17.8882896,9.41487603 18.6843227,10.3338843 C19.3011822,11.0466116 19.7451491,11.8036364 20.0162235,12.6049587 C20.1563888,13.0168595 20.2294466,13.4515702 20.235397,13.9090909 C20.2413475,14.3798347 20.233083,14.8406612 20.2106036,15.2915702 C20.2093254,15.3199674 20.2201215,15.3476774 20.2403557,15.3679339 L20.6915954,15.8152066 Z" id="路径"></path>
            <path d="M43.3785375,10.526281 C43.4727524,10.4687603 43.5818433,10.3457851 43.706802,10.2733884 C44.1841574,9.99834711 44.7196946,9.84628099 45.3134136,9.81719008 C45.9349012,9.78743802 46.7365541,9.7814876 47.7183722,9.79933884 C47.7419841,9.79958292 47.7639485,9.81148432 47.7770467,9.83113164 C47.7901449,9.85077896 47.792683,9.8756312 47.7838268,9.89752066 L47.0261408,11.7213223 C46.9989872,11.7876587 46.9351536,11.8316416 46.8634962,11.8333884 C46.4958929,11.8439669 46.1028351,11.8469421 45.6843227,11.842314 C45.5296119,11.8403306 45.281678,11.888595 44.940521,11.9871074 C44.3266367,12.1646281 43.8744053,12.6109091 43.673083,13.1960331 C43.5996946,13.4089256 43.5623392,13.7477686 43.5610169,14.212562 C43.5544053,16.1927273 43.5547359,18.1636364 43.5620086,20.1252893 C43.5626698,20.1854545 43.5329177,20.2155372 43.4727524,20.2155372 L41.6261408,20.2155372 C41.5560326,20.2155372 41.4991987,20.1587033 41.4991987,20.088595 L41.4991987,9.88661157 C41.4991987,9.82380165 41.5306036,9.79239669 41.5934136,9.79239669 L43.0572152,9.79239669 C43.1563888,9.79239669 43.2076284,9.84231405 43.2109342,9.94214876 C43.2149012,10.0889256 43.199364,10.2267769 43.1643227,10.3557025 C43.1001904,10.5970248 43.1715954,10.6538843 43.3785375,10.526281 Z" id="路径"></path>
            <path d="M56.3018433,19.1682645 C56.2562235,19.1907438 56.2244879,19.2095868 56.2066367,19.2247934 C54.3590334,20.8214876 51.7864714,20.8552066 49.7910995,19.5431405 C48.4820086,18.682314 47.7907689,17.3910744 47.5180417,15.854876 C47.3484549,14.9057851 47.5765541,13.7077686 47.9563888,12.8836364 C48.7289508,11.2016529 50.5706036,9.96297521 52.3884549,9.82115702 C53.8234962,9.71008264 55.0929177,10.128595 56.1441574,11.0915702 C56.2876284,11.2231405 56.3563888,11.1917355 56.3504384,10.9973554 L56.321678,10.0512397 C56.3211429,10.0306453 56.3289515,10.0107085 56.3433309,9.9959556 C56.3577102,9.98120274 56.3774404,9.97288561 56.3980417,9.97289256 L58.0939094,9.97289256 C58.1382748,9.97289256 58.17424,10.0088578 58.17424,10.0532231 L58.17424,20.3206612 C58.17424,20.3453086 58.1542593,20.3652893 58.1296119,20.3652893 L56.4595293,20.3652893 C56.3841574,20.3652893 56.3464714,20.3276033 56.3464714,20.2522314 L56.3464714,19.1960331 C56.34659,19.1852908 56.3410928,19.1752658 56.3319715,19.1695903 C56.3228502,19.1639149 56.3114279,19.1634122 56.3018433,19.1682645 L56.3018433,19.1682645 Z M56.0806863,15.1636364 C56.0806863,13.3840927 54.6380812,11.9414876 52.8585375,11.9414876 C51.0789939,11.9414876 49.6363888,13.3840927 49.6363888,15.1636364 C49.6363888,16.94318 51.0789939,18.3857851 52.8585375,18.3857851 C54.6380812,18.3857851 56.0806863,16.94318 56.0806863,15.1636364 Z" id="形状"></path>
            <path d="M74.3752317,11.0697521 L74.3752317,10.0373554 C74.3752317,10.002849 74.4032047,9.97487603 74.4377111,9.97487603 L76.0334136,9.97487603 C76.0922565,9.97487603 76.121678,10.0042975 76.121678,10.0631405 L76.121678,20.3047934 C76.121678,20.3385124 76.1048185,20.3553719 76.0710995,20.3553719 L74.4734136,20.3553719 C74.4317607,20.3553719 74.4109342,20.3342149 74.4109342,20.2919008 L74.4109342,19.2019835 C74.4111648,19.1845161 74.4011829,19.1685202 74.3853913,19.1610512 C74.3695996,19.1535822 74.3509021,19.1560135 74.3375458,19.1672727 C73.2823392,20.0499174 71.839364,20.5795041 70.4757276,20.4664463 C69.6003557,20.393719 68.8082896,20.1540496 68.0995293,19.747438 C66.746802,18.9699174 65.839364,17.4575207 65.5497772,15.9401653 C65.5127524,15.7457851 65.4929177,15.5319008 65.4902731,15.2985124 C65.4882896,15.0684298 65.4803557,14.7183471 65.527959,14.4396694 C65.818207,12.7259504 66.721678,11.4059504 68.2383722,10.4796694 C68.4076284,10.3765289 68.6575458,10.265124 68.9881243,10.1454545 C70.5795293,9.56892562 72.0929177,9.72033058 73.5282896,10.5996694 C73.7094466,10.7100826 73.9524218,10.8856198 74.2572152,11.126281 C74.2793507,11.1433446 74.3092624,11.1465479 74.3343326,11.1345394 C74.3594028,11.122531 74.3752665,11.0974018 74.3752317,11.0697521 L74.3752317,11.0697521 Z M74.1243267,15.1836397 C74.1287493,14.3309229 73.7904253,13.5113369 73.1837388,12.9051823 C72.5770523,12.2990277 71.7517002,11.9559578 70.8892516,11.9513995 C70.0268051,11.9469288 69.1979087,12.2813378 68.5849101,12.8811053 C67.9719116,13.4808727 67.6250247,14.2968688 67.620517,15.1495835 C67.6160943,16.0023003 67.9544183,16.8218862 68.5611048,17.4280408 C69.1677914,18.0341954 69.9931435,18.3772653 70.8555921,18.3818237 C71.7180385,18.3862943 72.546935,18.0518853 73.1599335,17.4521179 C73.7729321,16.8523504 74.119819,16.0363543 74.1243267,15.1836397 L74.1243267,15.1836397 Z" id="形状"></path>
            <path d="M80.0310995,10.68 C80.0271103,10.7150219 80.0445802,10.7490052 80.0753826,10.7661417 C80.1061849,10.7832782 80.1442718,10.7802032 80.171926,10.7583471 C81.7140747,9.53256198 83.8115954,9.48495868 85.3894466,10.6909091 C86.149116,11.2720661 86.6886202,12.0029752 86.9375458,12.9203306 C87.0773805,13.4380165 87.1349012,14.0409917 87.1339094,14.6449587 C87.1286202,17.6340496 87.1299425,19.4664463 87.1378924,20.1421488 C87.1385375,20.1824793 87.1187028,20.2026446 87.0783722,20.2026446 L85.0869673,20.2026446 C85.0314301,20.2026446 85.0049838,20.174876 85.0076284,20.1193388 C85.0115954,20.0214876 85.0139094,19.9123967 85.0145706,19.7920661 C85.0145706,19.7880992 85.0188681,18.0581818 85.0274632,14.602314 C85.0287855,14.0581818 84.9871326,13.6717355 84.9025045,13.4429752 C84.6783722,12.8327273 84.2545706,12.378843 83.6310995,12.0813223 C83.0965541,11.827438 82.2525871,11.8780165 81.731926,12.1269421 C81.1620086,12.3993388 80.7596946,12.8231405 80.5249838,13.3983471 C80.4496119,13.5828099 80.411926,13.8624793 80.411926,14.2373554 C80.4106036,17.772562 80.4106036,19.7365289 80.411926,20.1292562 C80.4121913,20.1470525 80.4054126,20.1642114 80.3931086,20.1768883 C80.3808046,20.1895651 80.3640041,20.1967 80.3464714,20.1966942 L78.4254797,20.1966942 C78.3871393,20.1966942 78.3560582,20.1656132 78.3560582,20.1272727 L78.3560582,10.0284298 C78.3560582,9.98743802 78.3768846,9.96694215 78.4185375,9.96694215 L79.9894466,9.96694215 C80.0747359,9.96694215 80.1120913,10.0089256 80.1015127,10.0928926 L80.0310995,10.68 Z" id="路径"></path>
            <path d="M99.0644879,9.99272727 L99.0644879,20.3385124 L97.4310995,20.3494215 C97.3510995,20.3500826 97.3110995,20.3107438 97.3110995,20.231405 L97.3110995,19.233719 C97.3111966,19.2113757 97.2985608,19.1909276 97.2785342,19.1810197 C97.2585075,19.1711117 97.2345866,19.1734739 97.2168846,19.1871074 C96.9332483,19.4 96.7755623,19.5173554 96.7438268,19.5391736 C95.5081243,20.3847934 94.1292813,20.6555372 92.6072979,20.351405 C90.709116,19.9715702 89.2314301,18.4978512 88.6532483,16.6879339 C88.5177111,16.2634711 88.45424,15.8499174 88.4628351,15.4472727 C88.4737441,14.9613223 88.4310995,14.3395041 88.5907689,13.7652893 C88.9325871,12.5395041 89.6575458,11.5378512 90.765645,10.7603306 C92.2155623,9.74280992 94.17424,9.46512397 95.8046532,10.2446281 C96.2681243,10.4661157 96.6872979,10.7358678 97.0621739,11.0538843 C97.2545706,11.2165289 97.3315954,11.1732231 97.2932483,10.9239669 C97.2608516,10.7110744 97.2469673,10.4439669 97.2515954,10.1226446 C97.2526873,10.0441661 97.3164662,9.98127314 97.3944053,9.98181818 L99.0644879,9.99272727 Z M97.0611822,15.1616529 C97.0611822,13.3799184 95.616801,11.9355372 93.8350665,11.9355372 C92.053332,11.9355372 90.6089508,13.3799184 90.6089508,15.1616529 C90.6089508,16.9433874 92.053332,18.3877686 93.8350665,18.3877686 C95.616801,18.3877686 97.0611822,16.9433874 97.0611822,15.1616529 L97.0611822,15.1616529 Z" id="形状"></path>
            <path d="M2.09457059,12.1130579 C2.51176067,12.2214876 3.03143009,12.2750413 3.65357886,12.273719 C4.35374414,12.2723967 5.05424001,12.2638017 5.75506646,12.2479339 C5.92696728,12.2439669 6.10448795,12.2509091 6.28762844,12.2687603 C6.29159538,12.7249587 6.266802,13.1771901 6.36994249,13.6175207 C6.4082896,13.7828099 6.460521,13.9996694 6.52663671,14.2680992 C6.69390943,14.941157 6.95738051,15.5385124 7.31704993,16.0601653 C7.13192596,16.037686 6.95473588,16.0254545 6.78547968,16.0234711 C6.13952927,16.014876 5.43605819,16.0052893 4.67506646,15.9947107 C4.16333092,15.987438 3.55407472,16.0029752 2.84729786,16.0413223 C2.34647142,16.0680992 1.95870282,15.9629752 1.2158929,15.8340496 C1.12729786,15.818843 0.964322657,15.8261157 0.726967285,15.8558678 L0.0694466237,15.2072727 C0.00320136093,15.1423547 -0.0178865886,15.0443347 0.0158929047,14.9583471 C0.469116045,13.8029752 1.06019043,12.8340496 2.09457059,12.1130579 Z" id="路径"></path>
            <path d="M7.31704993,16.0601653 C7.46581026,16.2757025 7.62085158,16.4915702 7.7821739,16.7077686 C8.380521,17.5077686 9.13523175,18.1143802 10.0463061,18.5276033 C10.7544053,18.8489256 11.2446532,19.0244628 11.5170499,19.0542149 C11.8410169,19.0892562 12.1646532,19.1203306 12.487959,19.147438 C14.8076284,19.3408264 16.6215127,17.9940496 17.4902731,15.9173554 C18.540521,16.0165289 19.6601904,16.061157 20.6915954,15.8152066 C21.1537441,16.3732231 21.429116,16.9986777 21.5177111,17.6915702 C21.5243227,17.741157 21.5077937,17.7814876 21.4681243,17.812562 C20.9735789,18.1960331 20.4258103,18.467438 19.8248185,18.6267769 C19.5987028,18.686281 19.3963888,18.6644628 19.1791987,18.686281 C19.1448185,18.6902479 19.1183722,18.7064463 19.0998598,18.734876 C18.540521,19.5818182 17.8390334,20.3041322 16.995397,20.9018182 C16.9687623,20.9210375 16.9535022,20.9523022 16.9547359,20.985124 C16.9646532,21.2469421 16.9388681,21.5190083 16.8773805,21.8013223 C16.6836615,22.6905785 16.2671326,23.4234711 15.6277937,24 L15.371926,24 C14.4585375,23.7550413 13.549116,23.3097521 12.9639921,22.5461157 C12.9195703,22.4880476 12.8506567,22.4539573 12.7775458,22.4538843 C11.6621739,22.452562 10.5983722,22.288595 9.58614084,21.9619835 C9.54911605,21.9500826 9.49060365,21.9547107 9.41060365,21.9758678 C9.36167803,21.9884298 9.31043836,22.0142149 9.25688464,22.0532231 C8.66382679,22.4809917 8.03143009,22.7771901 7.35969456,22.9418182 C6.95308299,23.0409917 6.41457059,23.0816529 5.94647142,23.1461157 C5.74019043,23.1738843 5.60266976,23.0743802 5.53390943,22.8476033 C5.42746315,22.4978512 5.34547968,22.1471074 5.28795902,21.7953719 C5.2575458,21.6128926 5.2558929,21.1791736 5.28300034,20.4942149 C5.29688464,20.1461157 5.41093423,19.8565289 5.51109952,19.4866116 C5.52213832,19.4434707 5.50969339,19.3978392 5.47837224,19.3666116 C4.95473588,18.837686 4.51837224,18.2267769 4.16928133,17.5338843 C4.12861379,17.4524149 4.04890862,17.3974071 3.95804166,17.3880992 C3.67969456,17.3596694 3.42481852,17.2995041 3.19341357,17.2076033 C2.14911605,16.7970248 1.49952927,16.5104132 0.726967285,15.8558678 C0.964322657,15.8261157 1.12729786,15.818843 1.2158929,15.8340496 C1.95870282,15.9629752 2.34647142,16.0680992 2.84729786,16.0413223 C3.55407472,16.0029752 4.16333092,15.987438 4.67506646,15.9947107 C5.43605819,16.0052893 6.13952927,16.014876 6.78547968,16.0234711 C6.95473588,16.0254545 7.13192596,16.037686 7.31704993,16.0601653 Z" id="路径"></path>
        </g>
    </g>
</svg>