<?xml version="1.0" encoding="UTF-8"?>
<svg width="150px" height="50px" viewBox="0 0 150 50" version="1.1" xmlns="http://www.w3.org/2000/svg" xmlns:xlink="http://www.w3.org/1999/xlink">
    <title>kafka</title>
    <g id="kafka" stroke="none" stroke-width="1" fill="none" fill-rule="evenodd" transform="translate(0.000000, 0.000000)">
        <g id="kafka备份" transform="translate(27.000000, 3.000000)" fill="currentColor" fill-rule="nonzero">
            <path d="M15.7100019,22.9983494 C15.7100019,23.8082573 15.5929659,24.5829519 15.358894,25.3224331 C15.3214478,25.4382273 15.3699935,25.5642066 15.47593,25.6261485 L17.6828934,26.8806255 C17.8588766,26.9826168 18.0832282,26.9571117 18.2346343,26.8179017 C21.3778852,23.9359059 26.7682262,24.8833661 28.3599149,29.0264414 C29.4009775,31.7356716 28.8068808,34.1081736 26.5776248,36.1439477 C24.093119,38.4152113 19.9834856,37.9860481 17.7363956,35.4143703 C16.3587154,33.8341695 15.9095203,31.9854665 16.3888103,29.8682615 C16.4210461,29.7291851 16.3571971,29.5856797 16.2316478,29.5150272 L14.0714987,28.283659 C13.9336905,28.2038314 13.7585161,28.226981 13.6468255,28.3397803 C12.4920709,29.4974205 11.1745806,30.2710146 9.69435459,30.6605628 C9.56231455,30.6950203 9.47033181,30.812938 9.47031437,30.947772 L9.47031437,33.4600272 C9.47031437,33.6272908 9.55056758,33.7362322 9.71107401,33.7868515 C15.6029976,35.6586632 15.6130292,43.9481151 9.60741361,45.7274916 C6.15652535,46.7508808 2.66885436,44.7998389 1.70915966,41.4160523 C0.762840495,38.0718808 2.83604856,34.6979979 6.14983758,33.7604414 C6.31174291,33.7159429 6.42382858,33.5675009 6.42403607,33.3973034 L6.42403607,31.0831234 C6.42403607,30.8696423 6.32037566,30.7353912 6.11305486,30.6803703 C3.0366816,29.8902699 1.05152914,28.0217594 0.157597495,25.0748389 C-0.0162844714,24.5004205 0.000434948488,23.6652029 0.000434948488,22.9983494 C0.000434948488,22.3314958 -0.0162844714,21.4995795 0.157597495,20.9218598 C1.05152914,17.9771402 3.0366816,16.1097301 6.11305486,15.3196297 C6.32037566,15.2646088 6.42403607,15.1303577 6.42403607,14.9168766 L6.42403607,12.6026966 C6.42382858,12.4324991 6.31174291,12.2840571 6.14983758,12.2395586 C2.83604856,11.3020021 0.762840495,7.92811924 1.70915966,4.58394768 C2.66885436,1.20016107 6.15652535,-0.750880771 9.60741361,0.272508351 C15.6130292,2.05188492 15.6029976,10.3413368 9.71107401,12.2131485 C9.55056758,12.2637678 9.47031437,12.3727092 9.47031437,12.5399728 L9.47031437,15.052228 C9.47033181,15.187062 9.56231455,15.3049797 9.69435459,15.3394372 C11.1745806,15.7289854 12.4920709,16.5025795 13.6468255,17.6602197 C13.7585161,17.773019 13.9336905,17.7961686 14.0714987,17.716341 L16.2316478,16.4849728 C16.3571971,16.4143203 16.4210461,16.2708149 16.3888103,16.1317385 C15.9095203,14.0145335 16.3587154,12.1658305 17.7363956,10.5856297 C19.9834856,8.01395187 24.093119,7.58478869 26.5776248,9.85605229 C28.8068808,11.8918264 29.4009775,14.2643284 28.3599149,16.9735586 C26.7682262,21.1166339 21.3778852,22.0640941 18.2346343,19.1820983 C18.0832282,19.0428883 17.8588766,19.0173832 17.6828934,19.1193745 L15.47593,20.3738515 C15.3715148,20.4354464 15.323198,20.5594688 15.358894,20.6742657 C15.5929659,21.4159477 15.7100019,22.1906423 15.7100019,22.9983494 Z M10.7075514,6.24447907 C10.7075514,4.62180177 9.37512545,3.30636191 7.7314947,3.30636191 C6.08786395,3.30636191 4.75543796,4.62180177 4.75543796,6.24447907 C4.75543796,7.86715637 6.08786395,9.18259622 7.7314947,9.18259622 C9.37512545,9.18259622 10.7075514,7.86715637 10.7075514,6.24447907 Z M25.5008941,14.6164623 C25.5008941,12.9901386 24.1654739,11.6717427 22.5181496,11.6717427 C20.8708253,11.6717427 19.5354051,12.9901386 19.5354051,14.6164623 C19.5354051,16.2427861 20.8708253,17.561182 22.5181496,17.561182 C24.1654739,17.561182 25.5008941,16.2427861 25.5008941,14.6164623 Z M12.3594301,23.0016506 C12.3594301,20.4819427 10.2904271,18.4393159 7.73818247,18.4393159 C5.18593786,18.4393159 3.11693481,20.4819427 3.11693481,23.0016506 C3.11693481,25.5213585 5.18593786,27.5639854 7.73818247,27.5639854 C10.2904271,27.5639854 12.3594301,25.5213585 12.3594301,23.0016506 Z M25.5008941,31.3769352 C25.5008941,29.7506114 24.1654739,28.4322155 22.5181496,28.4322155 C20.8708253,28.4322155 19.5354051,29.7506114 19.5354051,31.3769352 C19.5354051,33.0032589 20.8708253,34.3216548 22.5181496,34.3216548 C24.1654739,34.3216548 25.5008941,33.0032589 25.5008941,31.3769352 Z M10.7142392,39.7522197 C10.7142392,38.1295424 9.38181322,36.8141025 7.73818247,36.8141025 C6.09455172,36.8141025 4.76212573,38.1295424 4.76212573,39.7522197 C4.76212573,41.374897 6.09455172,42.6903368 7.73818247,42.6903368 C9.38181322,42.6903368 10.7142392,41.374897 10.7142392,39.7522197 L10.7142392,39.7522197 Z" id="形状"></path>
            <path d="M62.5544725,24.0877636 C62.5544725,23.9887259 62.502085,23.9392071 62.3973099,23.9392071 L61.7485964,23.9392071 C61.6193221,23.9392071 61.5145246,23.8357456 61.5145246,23.7081192 L61.5145246,21.3015042 C61.5145246,21.1848598 61.570256,21.1111318 61.6817188,21.0803201 C61.8377667,21.0363033 62.0183364,21.0330021 62.223428,21.0704163 C62.4842509,21.1166339 62.6079746,21.0087929 62.5945991,20.7468933 C62.4965118,18.5680649 62.5154605,16.6280272 62.6514451,14.9267803 C62.8922048,11.869818 65.7646011,10.7275837 68.4530838,11.5694038 C68.7897015,11.6750439 68.9580103,11.9028305 68.9580103,12.2527636 L68.9580103,14.3556632 C68.9580103,14.7254038 68.7952746,14.8189393 68.4698032,14.6362699 C67.8110581,14.2698305 66.9851187,14.0552489 66.2260571,14.4018807 C66.1190528,14.4502992 66.0443727,14.5284289 66.0020169,14.6362699 C65.8058423,15.1424623 65.7055258,15.6673619 65.7010673,16.2109686 C65.6832333,17.8065753 65.681004,19.3581653 65.6943795,20.8657385 C65.6943795,20.9977887 65.7612572,21.0638138 65.8950126,21.0638138 L68.6637485,21.0638138 C68.8576938,21.0638138 68.9546664,21.1595502 68.9546664,21.351023 L68.9546664,23.6619017 C68.9546664,23.8168765 68.8274122,23.9425084 68.6704363,23.9425084 L65.8782931,23.9425084 C65.8259688,23.9425084 65.7757875,23.9626813 65.7387887,23.9985895 C65.7017898,24.0344976 65.681004,24.0831994 65.681004,24.1339812 L65.681004,33.664705 C65.681004,33.8605795 65.5818021,33.9585167 65.3833983,33.9585167 L62.8821731,33.9585167 C62.663706,33.9585167 62.5544725,33.8506757 62.5544725,33.6349937 L62.5544725,24.0877636 Z" id="路径"></path>
            <path d="M38.5152906,29.1518891 C37.91785,28.3970021 37.6191297,28.4982406 37.6191297,29.4556046 L37.6191297,33.6746088 C37.6191297,33.8726841 37.5199278,33.9717218 37.321524,33.9717218 L34.8370182,33.9717218 C34.6319267,33.9717218 34.5293809,33.8704833 34.5293809,33.6680063 L34.5293809,11.8632155 C34.5293809,11.7465286 34.6266929,11.6519351 34.7467333,11.6519351 L37.3917456,11.6519351 C37.5062457,11.6519351 37.5990664,11.7435725 37.5990664,11.856613 L37.5990664,24.8140398 C37.5990664,25.1045502 37.7027268,25.1463661 37.9100476,24.9394874 L41.6251027,21.2750941 C41.7766921,21.1232364 41.9617203,21.0473075 42.1801874,21.0473075 L45.507352,21.0473075 C45.7525701,21.0473075 45.7882382,21.1331402 45.6143563,21.3048054 L40.3912095,26.4613661 C40.3269099,26.5233988 40.3211105,26.6235938 40.377834,26.692454 L46.1861604,33.7901527 C46.2160998,33.8257404 46.2224008,33.8752461 46.2023102,33.9170401 C46.1822196,33.9588341 46.139389,33.9853204 46.0925317,33.9849311 L42.7018333,33.9849311 C42.4718041,33.9849311 42.2546281,33.8802059 42.1133097,33.7010188 L38.5152906,29.1518891 Z" id="路径"></path>
            <path d="M75.1441956,29.1452866 C74.5489843,28.3903996 74.250264,28.4905377 74.2480347,29.4457008 L74.241347,33.6581025 C74.241347,33.8561778 74.1421451,33.9552155 73.9437413,33.9552155 L71.4625794,33.9519142 C71.2574878,33.9519142 71.1560567,33.8506757 71.15825,33.6481988 L71.1950687,11.8731192 C71.1950656,11.8170822 71.2179637,11.7633405 71.2587256,11.7237174 C71.2994874,11.6840944 71.3547736,11.6618389 71.4124211,11.6618389 L74.0540895,11.6684414 C74.1685896,11.6684414 74.2614103,11.7600788 74.2614103,11.8731192 L74.2380031,24.8107385 C74.2380031,25.101249 74.3416635,25.1430649 74.5489843,24.9361862 L78.2640394,21.2849979 C78.4156288,21.1331402 78.600657,21.0572113 78.8191241,21.0572113 L82.1396009,21.0638138 C82.3848191,21.0638138 82.4204872,21.1496464 82.2466052,21.3213117 L77.0234584,26.4613661 C76.9591588,26.5233988 76.9533595,26.6235938 77.0100829,26.692454 L82.7983461,33.7901527 C82.828722,33.826198 82.8347913,33.8765065 82.8138406,33.918587 C82.7928898,33.9606676 82.7488358,33.9866533 82.7013734,33.9850078 L79.3173628,33.9783243 C79.0873336,33.9783706 78.8701577,33.8736033 78.7288393,33.6944163 L75.1441956,29.1452866 Z" id="路径"></path>
            <path d="M41.8157041,14.7551151 C41.501379,14.7529142 41.3141215,14.7573159 41.2539316,14.7683201 C41.0755911,14.7991318 40.970816,14.8508515 40.9396065,14.9234791 L40.7122223,15.4516799 C40.6526262,15.5893616 40.5140142,15.677985 40.3611145,15.6761653 C40.3187587,15.6761653 40.2741735,15.6761653 40.2273592,15.6761653 C40.1590157,15.6749625 40.0959947,15.639491 40.0601327,15.5820416 C40.0242706,15.5245921 40.0205023,15.45307 40.0501333,15.3922573 C40.1303865,15.2161904 40.6798981,14.0464456 41.6986681,11.883023 C41.7298777,11.8169979 41.7789213,11.7839853 41.845799,11.7839853 C41.9037597,11.7839853 41.9483448,11.8180983 41.9795544,11.8863243 C42.9626563,14.0651527 43.4932192,15.2437008 43.5712431,15.4219686 C43.5985663,15.4837495 43.5921861,15.5550083 43.5543092,15.6110994 C43.5164323,15.6671904 43.4522595,15.700412 43.3839856,15.6993024 C43.3394005,15.6993024 43.29593,15.6993024 43.2535742,15.6993024 C43.1002701,15.6986308 42.9628679,15.6073275 42.9058102,15.4681862 L42.6884578,14.9366841 C42.6572482,14.8640565 42.5524732,14.8112364 42.3741327,14.7782238 C42.316172,14.7672197 42.1300292,14.7595167 41.8157041,14.7551151 Z M41.8290796,14.1311778 C41.9271669,14.1245753 42.0040762,14.108069 42.0598076,14.081659 C42.1565379,14.0343312 42.2087464,13.9285325 42.1868752,13.8241611 C42.106622,13.4676255 41.971752,13.2948598 41.7822652,13.305864 C41.5927785,13.3146674 41.4779718,13.5017385 41.4378452,13.8670774 C41.4281246,13.9724804 41.4911588,14.0712378 41.5916638,14.108069 C41.6496245,14.1278766 41.7287631,14.1355795 41.8290796,14.1311778 Z" id="形状"></path>
            <path d="M47.9885139,11.8136966 C48.0464745,11.8136966 48.0910597,11.8478096 48.1222692,11.9160356 C49.1031419,14.0838598 49.6325902,15.2569059 49.7106141,15.4351736 C49.7376871,15.4964148 49.7316597,15.5670041 49.6945842,15.6229066 C49.6575087,15.6788092 49.594383,15.7124796 49.5267005,15.7124796 C49.4821154,15.7124796 49.4386449,15.7124796 49.396289,15.7124796 C49.2426899,15.7127414 49.104819,15.6211266 49.0485251,15.4813912 L48.8311726,14.9531904 C48.7999631,14.8805628 48.695188,14.8277427 48.5168475,14.7947301 C48.4588869,14.7837259 48.2738586,14.7771234 47.9617628,14.7749226 C47.6474377,14.7727218 47.4612948,14.776023 47.4033342,14.7848264 C47.2249937,14.8178389 47.1202187,14.8695586 47.0890091,14.9399853 L46.8649689,15.4648849 C46.8071797,15.6044644 46.6678622,15.6948487 46.513861,15.6926715 C46.4715052,15.6926715 46.4280347,15.6915711 46.3834496,15.6893703 C46.3163616,15.6882802 46.2542663,15.6541536 46.217983,15.5984325 C46.1816997,15.5427114 46.1760319,15.4727725 46.2028798,15.4120648 C46.2831331,15.2337971 46.8293008,14.0673535 47.841383,11.9127343 C47.8725926,11.8467092 47.9216362,11.8136966 47.9885139,11.8136966 Z M47.9416995,14.1212741 C48.1066644,14.1278766 48.2203565,14.0871611 48.2827757,13.9991276 C48.3340486,13.9287008 48.3340486,13.8285628 48.2827757,13.6987134 C48.1757714,13.4324121 48.0743402,13.2970607 47.9784822,13.292659 C47.8826242,13.2882573 47.7711614,13.4148054 47.6440938,13.6723033 C47.5794454,13.7955502 47.5694138,13.8945879 47.6139989,13.9694163 C47.6697303,14.0640523 47.7789638,14.1146715 47.9416995,14.1212741 Z" id="形状"></path>
            <path d="M50.4830513,13.7812448 C50.4830513,14.9663954 51.5497503,15.3922573 52.5763227,14.8541527 C52.6384092,14.821729 52.7134007,14.8249791 52.7723703,14.8626495 C52.8313399,14.9003199 52.8650712,14.9665229 52.8605528,15.0357218 C52.8560943,15.1083494 52.8505212,15.1578682 52.8438334,15.1842782 C52.797019,15.3933577 52.6855562,15.5287092 52.509445,15.5903326 C51.1484842,16.0855209 49.8142683,15.1017469 49.8142683,13.7812448 C49.8109306,12.4607427 51.1484842,11.4769686 52.509445,11.9688556 C52.6855562,12.0304791 52.797019,12.1658305 52.8438334,12.37491 C52.8505212,12.4013201 52.8560943,12.4508389 52.8605528,12.5234665 C52.8658308,12.5936488 52.8316862,12.6610329 52.7716329,12.6989495 C52.7115796,12.7368661 52.6352979,12.7392031 52.5729788,12.7050356 C51.5497503,12.166931 50.4830513,12.5960941 50.4830513,13.7812448 Z" id="路径"></path>
            <path d="M54.9471364,13.95291 C54.6060603,13.9507092 54.4355222,13.9496088 54.4355222,13.9496088 C54.2705572,13.9694163 54.1880748,14.0288389 54.1880748,14.1278766 L54.1947625,15.3691485 C54.1947625,15.5100021 54.1278849,15.6068389 53.9941295,15.659659 C53.9517736,15.6772657 53.9049593,15.6849686 53.8536864,15.6827678 C53.6419071,15.6827678 53.5360174,15.5760272 53.5360174,15.362546 L53.5360174,12.0843996 C53.5360174,11.9127343 53.6229584,11.8269017 53.7968403,11.8269017 L53.9640345,11.8269017 C54.0951556,11.8269017 54.2014503,11.9318412 54.2014503,12.0612908 L54.2014503,13.1705125 C54.2013347,13.2289124 54.2257086,13.2847547 54.2687845,13.32478 C54.3118605,13.3648052 54.369796,13.385443 54.4288344,13.3817929 C54.6094042,13.3707887 54.7832861,13.366387 54.9504803,13.3685879 C55.1176745,13.3685879 55.2915565,13.3751904 55.4721262,13.3883954 C55.5311445,13.392966 55.5894439,13.3731972 55.633162,13.3337896 C55.67688,13.294382 55.7021105,13.2388565 55.7028542,13.1804163 L55.7162297,12.0711946 C55.7162297,11.941745 55.8225244,11.8368054 55.9536455,11.8368054 L56.1208397,11.8401067 C56.2947217,11.8423075 56.3816627,11.9292406 56.3816627,12.1009058 L56.3415361,15.3790523 C56.3393068,15.5925335 56.2323025,15.6981736 56.0205232,15.6960065 C55.9692503,15.6960065 55.9224359,15.6871695 55.8800801,15.6695628 C55.748554,15.6167427 55.6827909,15.5199059 55.6827909,15.3790523 L55.7061981,14.1377803 C55.7061981,14.0387427 55.6237156,13.9782197 55.4587507,13.9562113 C55.4587507,13.9562113 55.2882126,13.9551109 54.9471364,13.95291 Z" id="路径"></path>
            <path d="M44.7917608,14.3853745 L44.7917608,15.4747887 C44.7917608,15.5273215 44.7706227,15.5777028 44.7329967,15.6148491 C44.6953707,15.6519954 44.644339,15.672864 44.5911278,15.672864 L44.3938386,15.672864 C44.2199566,15.672864 44.1330157,15.5870314 44.1330157,15.4153661 L44.1330157,12.1273159 C44.1330417,12.0300725 44.2002707,11.9447372 44.296866,11.9193368 C46.5640193,11.3350146 46.8950638,14.1113703 45.2431851,14.1113703 C45.1205761,14.1113703 45.036979,14.1179728 44.9923938,14.1311778 C44.8586385,14.1663912 44.7917608,14.2511234 44.7917608,14.3853745 Z M44.8419191,12.5465753 L44.785073,13.474228 C44.7832266,13.4961325 44.7903069,13.5178593 44.8047444,13.5345916 C44.8191819,13.5513239 44.8397837,13.5616792 44.8619824,13.5633619 L44.9121406,13.5666632 C45.0987397,13.577734 45.280948,13.5344841 45.4184037,13.4464938 C45.5558593,13.3585035 45.6372157,13.2330362 45.6444512,13.0978849 L45.6477951,13.0186548 C45.6642377,12.739024 45.3651842,12.493974 44.9790183,12.4706464 L44.92886,12.4673452 C44.906684,12.4664519 44.8850584,12.4743014 44.8687498,12.4891636 C44.8524412,12.5040258 44.8427884,12.5246806 44.8419191,12.5465753 L44.8419191,12.5465753 Z" id="形状"></path>
            <path d="M58.0168219,13.9198975 C57.8986714,13.9198975 57.8395961,13.9793201 57.8395961,14.0981653 L57.8395961,14.8541527 C57.8395961,14.9928054 57.908703,15.0621318 58.0469169,15.0621318 L59.0400504,15.0621318 C59.2362249,15.0621318 59.3343122,15.1622699 59.3343122,15.362546 L59.3343122,15.4714874 C59.3343122,15.6277469 59.2551736,15.7058766 59.0968964,15.7058766 L57.5185832,15.7058766 C57.2911991,15.7058766 57.177507,15.5936339 57.177507,15.3691485 L57.177507,12.1273159 C57.177507,12.0476411 57.2099187,11.9712296 57.2676119,11.914891 C57.3253051,11.8585524 57.4035539,11.8269016 57.4851444,11.8269016 L59.0199871,11.8269016 C59.1337431,11.8268163 59.2347797,11.8986354 59.2707784,12.0051694 L59.3209367,12.1438222 C59.3945021,12.3551025 59.3175928,12.4607427 59.0902087,12.4607427 L58.1271701,12.4607427 C57.9332248,12.4607427 57.8362522,12.5575795 57.8362522,12.7512531 L57.8362522,13.0252573 C57.8362522,13.1802321 57.9620092,13.305864 58.1171384,13.305864 L59.0066116,13.305864 C59.143273,13.305864 59.254059,13.4137596 59.254059,13.5468556 L59.254059,13.6359895 C59.254059,13.7927876 59.1238106,13.9198975 58.9631411,13.9198975 L58.0168219,13.9198975 Z" id="路径"></path>
            <path d="M56.2077807,33.0473703 C56.2077807,32.8162824 56.1186105,32.775567 55.94027,32.9252239 C54.2906205,34.3007469 52.4938402,34.7068013 50.549929,34.143387 C47.2160767,33.1794205 45.7046411,29.8715628 46.0691245,26.6264289 C46.361157,24.0184372 47.6128842,22.2148515 49.8243062,21.2156715 C51.9677358,20.2484038 54.2449208,20.717182 55.9569894,22.2918808 C56.1375591,22.4569435 56.227844,22.4184289 56.227844,22.1763368 L56.227844,21.3972406 C56.227844,21.1705544 56.3437653,21.0572113 56.5756079,21.0572113 L58.9898922,21.0572113 C59.223964,21.0572113 59.341,21.1716548 59.341,21.4005418 L59.341,33.664705 C59.341,33.8693829 59.2373396,33.9717218 59.0300188,33.9717218 L56.5388252,33.9717218 C56.3181289,33.9717218 56.2077807,33.8627803 56.2077807,33.6448975 L56.2077807,33.0473703 Z M52.809592,31.7136428 C53.7824463,31.706857 54.7123677,31.2639339 55.3947841,30.4822328 C56.0772005,29.7005317 56.4562118,28.6440854 56.44844,27.5453003 C56.432258,25.257207 54.776864,23.4136584 52.7510072,23.4275329 C51.7781529,23.4343187 50.8482315,23.8772418 50.1658152,24.658943 C49.4833988,25.4406441 49.1043874,26.4970903 49.1121592,27.5958755 C49.1283413,29.8839687 50.7837353,31.7275173 52.809592,31.7136428 L52.809592,31.7136428 Z" id="形状"></path>
            <path d="M96,21.5160858 L96,21.6514372 L96,28.6765084 C95.9933122,28.7007176 95.9933122,28.7260272 96,28.7524372 L96,30.4921988 L96,33.8495753 L93.1342914,33.9684205 C93.0405557,33.9720689 92.9563851,33.9121296 92.9303145,33.8231653 C92.8589783,33.570069 92.8366858,33.3708933 92.8634368,33.2256381 C92.9548363,32.7370523 92.8255395,32.6523201 92.4755463,32.9714414 C89.9509139,35.2724163 86.0486013,34.6550816 84.0255515,31.9579561 C81.9623751,29.201408 82.1696959,24.9295837 84.6408261,22.4305335 C86.7842558,20.2616088 90.3722433,20.0767385 92.5457679,22.3149895 C92.7686935,22.5460774 92.8801563,22.5020607 92.8801563,22.1829393 L92.8801563,21.3345167 C92.8801563,21.1850116 93.0029191,21.0638138 93.1543547,21.0638138 L95.6856749,21.0638138 C95.7859914,21.0638138 95.8528691,21.1100314 95.8863079,21.2024665 L96,21.5160858 Z M89.4232156,31.7037643 C91.4491232,31.7002693 93.0881707,29.8440075 93.0841406,27.55768 C93.0821972,26.4597396 92.6938629,25.4074321 92.0045601,24.6322554 C91.3152574,23.8570787 90.3814509,23.4225319 89.4085693,23.4242064 C87.3826617,23.4277015 85.7436142,25.2839632 85.7476443,27.5702908 C85.7495877,28.6682312 86.137922,29.7205386 86.8272248,30.4957153 C87.5165275,31.270892 88.4503341,31.7054388 89.4232156,31.7037643 L89.4232156,31.7037643 Z" id="形状"></path>
        </g>
    </g>
</svg>
