<?xml version="1.0" encoding="UTF-8"?>
<svg width="150px" height="50px" viewBox="0 0 150 50" version="1.1" xmlns="http://www.w3.org/2000/svg" xmlns:xlink="http://www.w3.org/1999/xlink">
    <title>MySQL</title>
    <g id="MySQL" stroke="none" stroke-width="1" fill="none" fill-rule="evenodd">
        <g id="MySQL备份" transform="translate(27.000000, 0.000000)" fill="currentColor" fill-rule="nonzero">
            <g id="image-(8)" transform="translate(0.000000, 0.000000)">
                <path d="M70.2010661,22.112974 C70.097098,22.1265646 70.0328444,22.1909584 70.0083053,22.3061552 C69.8959422,22.8374846 69.8068266,23.4131453 69.7409586,24.0331375 C69.706733,24.3554298 69.6247208,24.6363031 69.4949221,24.8757573 C69.107463,25.589266 68.2337429,25.8882601 67.5401913,25.4504473 C66.6190074,24.8699327 65.9738881,23.7982135 65.6271123,22.7993014 C65.4450066,22.2770324 65.1902523,21.5062489 65.1321334,20.8335121 C65.0236449,19.5864089 65.0349458,18.3794305 65.1660361,17.2125769 C65.221249,16.7242845 65.4295082,16.2078401 65.5147492,15.8428343 C65.6206547,15.393696 65.721394,14.9432633 65.8169672,14.4915362 C65.8537758,14.3187409 66.1714923,14.0323667 65.9951984,13.8022965 C65.8189045,13.5722264 65.5060314,13.2402264 65.3123019,12.9489984 C64.9074072,12.3406554 64.6636309,11.932289 64.5809729,11.7238991 C64.391118,11.2472559 64.1140848,10.7240162 63.9523207,10.2502853 C63.8393118,9.91957965 63.7059613,9.5481021 63.5522692,9.13585264 C63.3217311,8.51747844 63.2142112,8.06898726 63.0456665,7.5253616 C62.9358865,7.17006339 62.7763825,6.82770865 62.5671546,6.49829739 C62.0043704,5.61102263 61.2091107,4.71306952 60.5630228,3.752017 C60.3176321,3.38765837 60.1455357,3.01812235 60.0467337,2.64340894 C59.8413804,1.86874236 60.0221946,1.19762353 60.5891763,0.630052445 C61.0705941,0.148555424 61.6324097,-0.0834562448 62.329836,0.0272104091 C62.9794756,0.129463809 63.5513006,0.278960868 64.0453108,0.475701586 C65.0985536,0.895069959 66.0500884,1.45940518 66.8999152,2.16870724 C67.0413378,2.2864928 67.2350673,2.35768188 67.4811038,2.38227447 C68.1029755,2.44440311 68.7897466,2.42887095 69.4493956,2.59001713 C70.495535,2.84565063 71.2510801,3.07313209 71.716031,3.2724615 C71.9885438,3.38895271 72.5148423,3.69538933 73.2949265,4.19177134 C74.4760308,4.94184532 75.5547813,5.72363081 76.531178,6.53712779 C77.0464985,6.96620377 77.5928158,7.51662475 78.0984498,7.98161885 C78.397439,8.25602038 78.969264,8.92163824 79.8139246,9.97847243 C80.2188193,10.4852092 80.8012994,11.3310649 81.5613649,12.5160394 C81.77253,12.8460978 81.9042661,13.1470335 82.1125253,13.5664018 C82.3246592,13.9954778 82.4505833,14.5060976 82.6404383,14.9244953 C83.0240227,15.7690566 83.3010559,16.3909902 83.4715379,16.7902962 C84.0362594,18.1153838 84.6949398,19.25991 85.3361845,20.6393601 C85.5231334,21.0412548 85.7323613,21.5722606 86.1721273,21.7654418 C87.3952063,22.3013014 88.1291183,22.6268296 88.3738632,22.7420265 C88.775852,22.930354 89.3434795,23.2409972 89.78712,23.5429036 C90.6595486,24.1357145 91.430915,24.6948723 92.1012191,25.2203771 C92.8451404,25.8047747 93.3472228,26.2529423 93.6074661,26.5648799 C93.8980603,26.9137064 94.226109,27.2890669 94.591612,27.6909616 C94.6324582,27.7356223 94.6482335,27.7978356 94.6336178,27.8566211 C94.6190022,27.9154065 94.5759438,27.9629283 94.5189634,27.9831604 C93.9416495,28.1896087 93.4360154,28.3368407 93.0020613,28.4248563 C92.3472556,28.5588212 91.546184,28.5209615 90.8226043,28.737441 C90.347967,28.8785248 89.9527588,28.9743065 89.6369797,29.024786 C89.4200026,29.0587626 89.2902038,29.2334995 89.4781215,29.4169731 C90.0050657,29.9334175 90.4367597,30.2819204 90.7732033,30.4624818 C91.9162074,31.0747078 92.9390992,31.8464621 93.8418788,32.7777447 C94.1970496,33.144692 94.8360341,33.8433157 95.7588323,34.8736158 C95.8182427,34.9396275 95.8033901,35.0286138 95.7142745,35.1405748 C95.7136288,35.1418692 95.7116915,35.1438107 95.7084627,35.1463994 C95.6128894,35.2467112 95.506984,35.2405631 95.3907462,35.1279549 C94.7733949,34.5306139 94.1005077,34.0025204 93.3720847,33.5436744 C93.0401615,33.3346374 92.5848971,33.0971247 92.0062916,32.8311365 C91.2614016,32.4884581 90.5068252,32.1118032 89.8500821,31.631277 C89.5543217,31.4157682 89.2992446,31.2271172 89.0848506,31.0653238 C88.2511679,30.4362712 87.6412428,29.6383064 87.2550753,28.6714293 C87.1456181,28.3957335 87.6580327,28.1821662 87.8478876,28.1180961 C88.861093,27.77833 89.7144715,27.4696283 90.5852856,27.3909967 C91.3666614,27.3198077 92.0647334,27.3126888 92.6795017,27.36964 C92.7757849,27.378684 92.8647708,27.3169125 92.8906669,27.2230552 C92.917789,27.1259792 92.8790431,27.0344042 92.7744292,26.9483301 C92.7040408,26.8894373 92.3453183,26.6490124 91.6982617,26.2270554 C90.8042,25.6445993 90.0312192,25.0456403 89.1855899,24.5146345 C88.783924,24.2622369 88.4326279,24.0845878 88.1317013,23.9816872 C87.6887065,23.8296014 87.3131941,23.6920771 87.0051642,23.5691141 C86.5034048,23.3691376 85.8863763,23.1827516 85.4698578,23.0565528 C84.6755668,22.816775 84.1544344,21.881933 83.7785992,21.0674653 C82.8131804,18.9796839 82.0854032,17.4245262 81.5952675,16.4019922 C81.4138076,16.0227485 81.2326705,15.5865537 81.0518562,15.0934075 C80.8316504,14.4908891 80.6492217,14.0553414 80.5045704,13.7867644 C79.5029888,11.9261408 78.2934708,10.2664646 76.8760166,8.80773572 C76.553134,8.47573576 76.1269291,8.07125237 75.5974018,7.59428556 C74.2616368,6.39248453 72.7195498,5.38580629 71.1183754,4.60822743 C70.5636632,4.33835611 70.0234808,4.12737758 69.497828,3.97529183 C69.0173788,3.83550237 68.3809774,3.85103453 67.9489605,3.84618073 C67.5334107,3.84229769 67.1110804,3.75881232 66.6529101,3.71706964 C66.4843654,3.70153747 66.2257365,3.50544393 66.0581605,3.35982991 C65.4317684,2.81814576 64.781483,2.39618869 64.1073043,2.09395871 C63.5571125,1.84641488 61.447398,0.722274657 61.1732708,1.82214588 C61.0289423,2.39780663 61.5626671,3.21227437 61.8968505,3.65397023 C62.4848196,4.43251985 63.0398547,5.1421455 63.5861719,5.98961908 C63.6869112,6.1449407 63.7721522,6.29961515 63.8418948,6.45364242 C64.1705893,7.17782947 64.424052,7.88195415 64.6022832,8.56601645 C64.7311133,9.06110411 64.9509963,9.58046078 65.1127605,10.0600163 C65.5079687,11.2275171 66.1072386,12.2283708 66.9105703,13.0625773 C67.4413892,13.6139691 67.2447538,14.0721679 67.0054978,14.808004 C66.7710851,15.5302496 66.4533687,16.2495828 66.3332564,16.9329979 C66.1440472,18.0137775 66.1049785,19.0842024 66.21605,20.1442724 C66.284824,20.7917694 66.3303505,21.2655004 66.5095503,21.8023307 C66.7652732,22.570202 67.0752404,23.4623305 67.6738646,24.1185644 C67.8724374,24.3369854 68.1533452,24.2845644 68.2172759,23.9884825 C68.263771,23.7690907 68.2876643,23.6406268 68.2889558,23.6030907 C68.3267331,22.355664 68.519494,20.8733133 69.2605094,19.8520736 C69.5808088,19.4107014 69.8119927,19.0968223 69.954061,18.9104363 C69.9807123,18.8750376 70.0212679,18.8528365 70.0653902,18.8494922 C70.1095125,18.846148 70.1529387,18.8619836 70.1845991,18.8929626 C70.3134293,19.0191614 70.3763914,19.3899918 70.4044821,19.5491965 C70.4206263,19.6436838 70.4690586,19.7922101 70.5497793,19.9947754 C70.9307807,20.9461203 71.2236351,21.6036485 71.4283426,21.9673599 C71.7925541,22.6158277 72.1845335,23.3283656 72.6042808,24.1049737 C72.8529003,24.565114 73.3614403,25.3316909 74.1299007,26.4047045 C74.2751978,26.6079169 74.8970696,27.26318 75.9955159,28.3704937 C76.0704247,28.446213 76.0565407,28.498634 75.9538641,28.5277568 L75.8666858,28.5529966 C75.7426989,28.5892383 75.6345333,28.562057 75.5421889,28.4714528 C75.1014542,28.0433475 74.8089226,27.7094061 74.4234009,27.3366342 C74.0953523,27.0208136 73.5832606,26.5509657 72.8871259,25.9270905 C72.3601816,25.4553011 71.8445382,24.8705799 71.3401957,24.1729269 C71.1548611,23.9153519 70.9617774,23.5797925 70.7609444,23.1662487 C70.4858485,22.5980304 70.3237615,22.2605295 70.2746834,22.1537459 C70.2598308,22.1220344 70.2352917,22.1084437 70.2010661,22.112974 Z" id="路径"></path>
                <path d="M68.0826339,7.56030896 C67.9121519,7.14482363 67.6573976,6.88951372 67.2650954,6.49732663 C67.2120757,6.44475428 67.1889685,6.36899775 67.2035958,6.29570167 C67.2182232,6.2224056 67.2686266,6.16138327 67.3377439,6.13329158 C67.6302755,6.01421167 67.9324935,6.01971265 68.2443981,6.1497945 C68.467187,6.24298747 68.9602286,6.78952542 69.0803409,7.10987626 C69.2314499,7.51371247 68.9825075,8.07869487 68.6754462,8.3650691 C68.6407021,8.39751655 68.5928963,8.41196111 68.5460462,8.40416741 C68.4991961,8.39637371 68.4586107,8.36722493 68.4361903,8.32526794 C68.3225356,8.11234788 68.2046835,7.85736156 68.0826339,7.56030896 Z" id="路径"></path>
                <path d="M10.7067323,43.0658604 C10.7479678,43.1077318 10.8074593,43.1259975 10.8650216,43.1144599 C10.9225839,43.1029224 10.9704892,43.0631305 10.9924833,43.0085856 C11.5494557,41.6223401 12.2536625,40.218621 12.8551926,38.7518025 C13.1118842,38.1276037 13.4935314,37.3529371 13.7744392,36.7025278 C14.0075603,36.1627852 14.5274012,34.9894598 15.3339618,33.1825516 C15.6949444,32.374232 16.0055574,31.8257526 16.2658007,31.5371132 C17.3991184,30.2819204 19.3906578,30.3780256 20.8455664,31.0614408 C21.5856132,31.4089729 21.951762,32.0108442 21.9441332,32.8670546 C21.9310975,34.4377445 21.9249627,38.6741416 21.9256085,45.5762461 C21.9256085,45.619137 21.8904805,45.6539069 21.847148,45.6539069 L18.9983555,45.6539069 C18.8407888,45.6539069 18.7616826,45.5749518 18.7610369,45.4170415 C18.7513504,41.6006598 18.7565165,38.016937 18.7765352,34.6658731 C18.7784725,34.2804813 18.8394973,33.7989843 18.8646822,33.5164931 C18.8690306,33.4689094 18.8528849,33.4210703 18.8201244,33.3844697 C18.7820242,33.3430506 18.7271342,33.3339902 18.6554543,33.3572885 C18.4113551,33.43592 18.2970547,34.0183761 18.2292493,34.1736977 C17.9186364,34.8894715 17.6038259,35.6007151 17.284818,36.3074285 C15.8466992,39.4915217 14.9739477,41.446309 14.6665636,42.1717904 C14.3456183,42.9309248 14.0343596,43.6198409 13.7327873,44.2385387 C13.3065824,45.1115756 12.631435,45.6189596 11.7073452,45.7606905 C10.9227407,45.880094 9.62087838,45.811104 8.96510397,45.2937549 C8.58474836,44.9934665 8.2902795,44.6164879 8.08169739,44.1628194 C7.76527251,43.4755212 7.57089723,43.0467688 7.49857155,42.8765622 C7.12273629,41.9941413 6.68975083,41.0777437 6.34684959,40.2700713 C5.78890859,38.9537206 5.18834709,37.7276505 4.59359748,36.3549957 C4.38759843,35.8812648 4.17546461,35.4107697 3.95719603,34.9435105 C3.73343844,34.4649258 3.49321384,33.8795574 3.38666261,33.5320253 C3.32596069,33.3359317 3.22392982,33.3000136 3.08056998,33.4242709 C3.05615465,33.4457108 3.04293752,33.4772147 3.04473002,33.5096978 C3.06410297,33.9271247 3.07508097,34.3759394 3.07766403,34.8561421 C3.10155734,40.6483442 3.10510905,44.0935718 3.08831916,45.1918251 C3.08638186,45.3160824 3.0763725,45.4393689 3.05829108,45.5616847 C3.04925037,45.6199303 3.01534771,45.6490531 2.95658309,45.6490531 L0.0864803318,45.6490531 C0.0601602039,45.6491989 0.0352456095,45.6371566 0.0188286875,45.6163543 C0.00241176549,45.595552 -0.0037092662,45.5682683 0.00220799311,45.5422695 C0.0351420105,45.394714 0.0671073804,45.2656029 0.0671073804,45.1054275 C0.0625870251,43.2480398 0.0548378445,39.7180324 0.0438598387,34.5154053 C0.0425683086,33.9950779 0.0525776668,33.202614 0.0738879134,32.1380137 C0.0855116843,31.5594407 0.756784451,31.1216279 1.28663467,30.9323297 C1.97049986,30.6870509 2.65856252,30.569589 3.35082265,30.5799437 C4.29234809,30.5948287 5.05402796,30.9248872 5.63586227,31.5701191 C5.8644631,31.8238111 6.15053701,32.3454328 6.49408402,33.1349844 C7.17924073,34.7089101 7.59801937,35.6722278 7.75041992,36.0249373 C7.9299426,36.4391283 8.03972266,36.6986448 8.07976009,36.8034869 C8.1979351,37.1160717 8.33257711,37.3840014 8.48271748,37.7412412 C9.27571696,39.6309875 9.87530981,41.0207925 10.281496,41.9106559 C10.3376776,42.0336188 10.4393856,42.3410262 10.58662,42.832878 C10.6189083,42.9396616 10.6589457,43.0173224 10.7067323,43.0658604 Z" id="路径"></path>
                <path d="M42.2381481,43.4988195 C42.384091,43.4451041 42.5293881,43.41857 42.6740395,43.4192171 C45.7433607,43.437338 48.6415543,43.4195407 51.3686201,43.3658253 C51.5403936,43.3625895 51.7883673,43.3195524 52.1125414,43.2367142 C52.6520781,43.0978955 52.9949793,42.7610418 52.9988539,42.2125623 C53.0066031,41.2638061 53.0075718,40.6176034 53.0017599,40.2739543 C52.9940107,39.7691591 52.402167,39.4905509 52.0021156,39.3342585 C51.8284048,39.2663053 51.4554755,39.2336231 50.8833276,39.2362118 C49.7209505,39.2413891 48.5585735,39.2404184 47.3961964,39.2332995 C47.1921346,39.2326523 46.7882086,39.1912332 46.1844183,39.1090422 C45.2984286,38.9893151 44.4737866,38.7249448 43.7104924,38.3159312 C43.2984943,38.095245 42.9297624,37.7739234 42.6042968,37.3519664 C42.1567817,36.7714518 42.1538757,36.2268554 42.1441892,35.3939432 C42.1354714,34.6755807 42.1083493,33.8251948 42.3340442,33.213616 C42.6604784,32.327312 43.3288452,31.7613588 44.2577782,31.3817916 C44.8105531,31.1552809 45.294554,31.0038423 45.709781,30.9274759 C46.0991773,30.8556396 46.6806887,30.8151913 47.4543152,30.8061309 C50.04125,30.7750665 52.2988446,30.7660061 54.227099,30.7789496 C54.8848107,30.7838034 55.5376792,30.8342829 56.2593217,30.8536981 C56.3536165,30.8565258 56.4301228,30.9306713 56.4356155,31.0245519 C56.4750072,31.6982594 56.4756529,32.2959241 56.4375528,32.8175458 C56.412368,33.1582826 56.2205757,33.1213937 55.9328874,33.1194522 C53.0792517,33.1084503 50.2256159,33.0938889 47.3719802,33.075768 C47.1026962,33.0738265 46.6674505,33.120423 46.0662433,33.2155575 C45.8989901,33.2414444 45.7753261,33.3038967 45.6952512,33.4029142 C45.5170201,33.622306 45.4224155,33.8747036 45.4114375,34.1601071 C45.4056256,34.3076626 45.3978764,34.7610076 45.38819,35.520142 C45.3791492,36.2779821 45.6558596,36.7763056 46.2183209,37.0151126 C46.4533794,37.1141301 46.8905623,37.160403 47.5298697,37.1539313 C48.9479698,37.1396935 50.2763085,37.1494011 51.5148858,37.1830541 C53.0870009,37.2267383 55.4747171,37.8295803 56.1866731,39.4789018 C56.2828921,39.7021766 56.3232524,40.0289992 56.307754,40.4593695 C56.307754,40.461311 56.3035566,41.1052486 56.2951616,42.3911822 C56.2932243,42.7024726 56.2134723,43.0386792 56.0559057,43.3998019 C55.7226909,44.1599071 54.7821341,44.7821643 54.0498365,45.0928076 C53.438297,45.3523241 52.8012498,45.5306204 52.1386949,45.6276964 C51.7544647,45.6840005 51.1096683,45.7115054 50.2043057,45.7102546 C47.8956956,45.7076223 45.2538708,45.7011506 42.2788313,45.6907958 C42.1973595,45.6902621 42.1315966,45.6239207 42.1315966,45.5422695 L42.1315966,43.6521996 C42.1315966,43.5839606 42.1739827,43.5227677 42.2381481,43.4988195 L42.2381481,43.4988195 Z" id="路径"></path>
                <path d="M79.3228203,41.9931705 C79.3218517,43.2736031 80.4638872,43.3755329 81.4935595,43.3803867 C81.558136,43.3803867 84.3685055,43.3813575 89.924668,43.383299 C90.0558907,43.3838333 90.1619867,43.4901599 90.1619867,43.6211352 L90.1619867,45.5655678 C90.1619867,45.6370326 90.1044638,45.6951163 90.0331565,45.6956496 C87.6502835,45.7150648 85.175389,45.715712 82.6084729,45.6975911 C80.9356185,45.685942 79.1581502,45.5102344 77.6896805,44.7297433 C76.9954831,44.3608544 76.4992127,43.7664257 76.2008692,42.9464569 C76.1240232,42.7341841 76.0849544,42.4238644 76.0836629,42.015498 C76.0810798,40.5962467 76.080434,37.6111593 76.0817256,33.0602359 C76.0823713,32.3489923 76.0985154,31.6422789 76.1301579,30.9400958 C76.1335532,30.8631087 76.1947859,30.8013221 76.2715805,30.797394 C77.2537891,30.7520919 78.2030637,30.7627702 79.1194043,30.8294291 C79.2322389,30.8375633 79.3196986,30.9315652 79.3199144,31.0449378 C79.323789,32.9359786 79.3247576,36.5853895 79.3228203,41.9931705 Z" id="路径"></path>
                <path d="M72.3301535,45.0161175 C72.3153258,45.0354369 72.3178594,45.0629442 72.3359654,45.0792169 C73.9968731,46.5599497 74.9093391,47.3760354 75.0733634,47.527474 C75.1482722,47.5967215 75.1973503,47.652702 75.2205979,47.6954155 C75.2670929,47.7801952 75.242231,47.8251737 75.146012,47.8303511 C74.0617725,47.8840665 72.9972288,47.8798599 71.952381,47.8177312 C71.748965,47.8060821 71.4845242,47.676971 71.3130736,47.5245617 C70.6757035,46.9586085 70.0005561,46.2577197 69.2430737,45.6781759 C69.1035885,45.5707451 68.9615201,45.5280317 68.8168688,45.5500356 C68.3247958,45.6257549 67.8285254,45.6720278 67.3280575,45.6888543 C66.9625544,45.7017978 65.6461624,45.7137705 63.3788813,45.7247724 C62.1002665,45.7312442 60.9127046,45.4163943 59.8161955,44.7802228 C59.1646186,44.4022735 58.6951474,43.8427921 58.407782,43.1017786 C58.2692654,42.7445388 58.2847637,42.2941061 58.2847637,41.894153 C58.2854095,39.6801727 58.2837951,37.4665161 58.2798363,35.253183 C58.278629,34.4772221 58.29219,34.0038147 58.3206037,33.8329609 C58.4968975,32.7855107 59.2340383,31.9681307 60.2017173,31.5312887 C60.7377023,31.2892458 61.3566681,31.0993004 62.0586147,30.9614525 C62.4751331,30.8799086 63.1154092,30.8394603 63.9794428,30.8401075 C64.8754418,30.8410782 66.3187267,30.7711835 67.7019554,30.8236045 C68.4894659,30.8527273 69.2469483,30.8168092 69.921127,30.9138852 C71.5106777,31.1439554 73.4402236,31.7021424 73.9671679,33.4281539 C74.0582208,33.7252065 74.1034243,34.3461694 74.1027786,35.2910426 C74.1001955,37.6480482 74.098904,40.0047302 74.098904,42.3610886 C74.098904,42.4361607 74.0782395,42.5998956 74.0369105,42.8522932 C73.9826663,43.1842932 73.8444725,43.5360319 73.6223294,43.9075095 C73.508029,44.1003671 73.3330266,44.2822229 73.0973224,44.4530767 C72.760233,44.6977082 72.4657642,44.8423515 72.3301535,45.0161175 Z M64.4637666,41.0738607 C64.4779734,41.0686833 64.5280202,41.0654474 64.613907,41.0641531 C65.5244357,41.0537983 66.4081651,41.050886 67.2650954,41.0554162 C67.6557832,41.0573578 67.9715623,41.1453733 68.2124327,41.319463 C68.4823625,41.5149094 69.0102754,41.9905818 69.7961715,42.7464804 C69.9259702,42.872032 70.0770793,42.9901412 70.2494985,43.1008078 C70.3385851,43.1582953 70.454333,43.1524367 70.5371869,43.0862464 C70.7806403,42.8933887 70.929812,42.6244882 70.984702,42.2795447 C71.0544447,41.8459386 71.089316,41.2971355 71.089316,40.6331356 C71.089316,38.5718883 71.0906075,36.7895727 71.0932204,35.2861888 C71.0944821,34.7095573 71.0537989,34.3118692 70.971141,34.0931246 C70.6679543,33.2893352 69.9501864,33.1524581 69.1665505,33.1543996 C67.2847912,33.1589298 65.5095831,33.1550468 63.8409262,33.1427505 C63.0117639,33.1369259 62.4044218,33.26992 61.9075056,33.9659551 C61.8170985,34.092801 61.7722179,34.2539472 61.7728636,34.4493936 C61.7812586,36.8905317 61.7806128,39.1640519 61.7709263,41.2699542 C61.7683433,41.858882 61.8093494,42.2572173 61.8939446,42.4649599 C62.052157,42.8552055 62.379237,43.1341372 62.8751846,43.3017552 C63.2180858,43.4175992 63.4838181,43.480375 63.6723815,43.4900826 C64.4692556,43.5308545 65.4498498,43.5463867 66.6141642,43.5366791 C66.637896,43.5360381 66.6614593,43.5314464 66.6839068,43.5230885 C66.8149971,43.4700202 66.8375989,43.3933302 66.7517121,43.2930183 C66.6596906,43.1852639 66.419466,43.0697435 66.2896673,42.9513107 C65.9338507,42.6270769 65.5011881,42.2533342 64.9916795,41.8300828 C64.7998873,41.6708781 64.6158443,41.483845 64.4395504,41.2689835 C64.3614128,41.173849 64.3694849,41.108808 64.4637666,41.0738607 Z" id="形状"></path>
                <path d="M35.5341382,50 L24.8867641,50 L24.6920659,49.9417544 C24.664298,49.9333411 24.6504141,49.9145731 24.6504141,49.8854503 L24.6504141,48.0526552 C24.6504066,47.9778118 24.7103831,47.9168396 24.7850561,47.915778 C27.6871242,47.8717702 31.0673814,47.8591503 34.9258275,47.8779184 C35.2086726,47.8792127 35.5447933,47.7821367 35.9341897,47.5866903 C36.6025565,47.2517781 36.5202214,46.4169244 36.4892247,45.6645853 C36.4855565,45.5771108 36.4128687,45.508575 36.3255233,45.5102344 C34.1925613,45.5510064 31.909459,45.5513299 29.4762163,45.5112052 C28.6037877,45.4969674 27.7258701,45.3251428 26.8424636,44.9957316 C26.184429,44.7504528 25.6316541,44.3903008 25.1841389,43.9152756 C24.7979714,43.506262 24.6055334,43.0189404 24.606825,42.4533108 C24.6126368,38.7644223 24.6678498,36.7743641 24.5826088,35.5512063 C24.5791165,35.4990989 24.5972601,35.4478778 24.6327054,35.4097784 C24.6681507,35.371679 24.7177147,35.3501228 24.7695577,35.350259 L27.6716259,35.350259 C27.7267277,35.350259 27.7713966,35.3950253 27.7713966,35.4502473 L27.764616,42.4309833 L27.7704279,42.496995 L27.7927068,42.6455213 C27.7907695,42.6707611 27.7933526,42.6940593 27.800456,42.715416 C27.9147564,43.1289599 28.5482519,43.4153341 28.9153694,43.5182347 C29.1278261,43.5784218 29.4581349,43.6068974 29.9062958,43.6036616 C32.4971052,43.5855407 34.6407223,43.5848935 36.337147,43.60172 C36.3883483,43.6022384 36.4376306,43.5822167 36.4740187,43.5461139 C36.5104068,43.5100111 36.5308792,43.4608251 36.5308766,43.4095095 L36.5308766,35.4327736 C36.5308766,35.3641482 36.5863874,35.3085163 36.6548635,35.3085163 L39.5840537,35.3085163 C39.6492714,35.3085163 39.7025881,35.3610812 39.704166,35.426949 C39.753567,37.4412763 39.7274135,40.7379777 39.7186957,46.5528308 C39.7167584,47.590897 39.2966883,48.3998637 38.4584852,48.9797311 C38.1465807,49.1952399 37.8175634,49.3819494 37.4714334,49.5398597 C36.9664451,49.7709006 36.32068,49.9242807 35.5341382,50 Z" id="路径"></path>
                <path d="M27.7720778,42.4996344 L27.7660778,42.4314861 C27.7720778,42.453534 27.7740778,42.4762501 27.7720778,42.4996344 Z" id="路径"></path>
                <path d="M27.8021591,42.7181182 C27.7948258,42.6960702 27.7921591,42.6720179 27.7941591,42.6459612 L27.8021591,42.7181182 Z" id="路径"></path>
            </g>
            <g id="11121248_fi_rr_circle_r_icon" transform="translate(91.658291, 41.577918)">
                <path d="M3.16582915,1.81299062 C3.16582915,1.41304489 2.84128643,1.08779437 2.44221106,1.08779437 L1.89949749,1.08779437 C1.60028141,1.08779437 1.35678392,1.33182291 1.35678392,1.63169156 L1.35678392,3.08208406 C1.35678392,3.18234244 1.43764824,3.26338312 1.53768844,3.26338312 C1.63772864,3.26338312 1.71859296,3.18234244 1.71859296,3.08208406 L1.71859296,2.53818687 L2.35465327,2.53818687 L2.68950754,3.16747592 C2.72225126,3.2285737 2.78466332,3.26338312 2.84942714,3.26338312 C2.87801005,3.26338312 2.90713568,3.25649376 2.93445226,3.24217113 C3.02255276,3.19485208 3.0560201,3.08516615 3.00898492,2.9966922 L2.73256281,2.47727039 C2.98745729,2.36504627 3.16582915,2.10959589 3.16582915,1.81299062 Z M2.44221106,2.17558875 L1.71859296,2.17558875 L1.71859296,1.63169156 C1.71859296,1.53161448 1.79963819,1.4503925 1.89949749,1.4503925 L2.44221106,1.4503925 C2.64174874,1.4503925 2.8040201,1.61301776 2.8040201,1.81299062 C2.8040201,2.01296349 2.64174874,2.17558875 2.44221106,2.17558875 Z M2.17085427,0 C0.973809045,0 0,0.975751554 0,2.17558875 C0,3.37542594 0.973809045,4.3511775 2.17085427,4.3511775 C3.3678995,4.3511775 4.34170854,3.37524465 4.34170854,2.17558875 C4.34170854,0.975932853 3.3678995,0 2.17085427,0 Z M2.17085427,3.98857937 C1.17334673,3.98857937 0.361809045,3.17527178 0.361809045,2.17558875 C0.361809045,1.17590572 1.17334673,0.362598125 2.17085427,0.362598125 C3.16836181,0.362598125 3.9798995,1.17590572 3.9798995,2.17558875 C3.9798995,3.17527178 3.16836181,3.98857937 2.17085427,3.98857937 Z" id="形状"></path>
            </g>
        </g>
    </g>
</svg>
