<?xml version="1.0" encoding="UTF-8"?>
<svg width="150px" height="50px" viewBox="0 0 150 50" version="1.1" xmlns="http://www.w3.org/2000/svg" xmlns:xlink="http://www.w3.org/1999/xlink">
    <title>NGINX</title>
    <g id="NGINX" stroke="none" stroke-width="1" fill="none" fill-rule="evenodd">
        <g id="NGINX备份" transform="translate(27.000000, 15.000000)" fill="currentColor" fill-rule="nonzero">
            <path d="M0,19.4634318 L0,0.585375782 C0.77400335,0.027235457 1.67772194,-0.13177584 2.71115578,0.10834189 C3.57306533,0.307906404 4.28757119,0.744387079 4.85467337,1.41778391 C11.4883752,9.30325018 14.8481072,13.2966748 14.9338693,13.3980579 C14.9470471,13.4143018 14.9672027,13.4233347 14.9881552,13.4223866 C15.0091077,13.4214385 15.0283569,13.4106226 15.04,13.3932555 C15.0614405,13.3601726 15.0721608,13.3137499 15.0721608,13.2539872 C15.0721608,6.17531655 15.0748409,2.50738482 15.080201,2.25019205 C15.1016415,1.14671768 15.6162144,0.435435599 16.6239196,0.116345815 C17.7157789,-0.231024502 19.0279397,0.303637645 19.4251256,1.39697371 C19.519464,1.65630086 19.5660972,2.10398703 19.5650251,2.74003222 C19.5628811,11.5112661 19.5644891,16.5387978 19.5698659,17.8226273 C19.5746734,18.9960026 18.5294472,19.8348138 17.4118593,19.9372641 C16.4834841,20.0237065 15.6483752,19.8598928 14.9065327,19.4458231 C14.5431156,19.243057 14.0231826,18.7382762 13.3467337,17.9314806 C7.07537688,10.4547481 3.9161139,6.69237006 3.86894472,6.64434652 C3.83463987,6.61019644 3.79765494,6.59952454 3.75798995,6.61233082 C3.72989404,6.62196075 3.71112015,6.64838339 3.71135678,6.677963 C3.71242881,9.76000747 3.71135678,13.2726631 3.7081407,17.2159298 C3.7081407,17.8765204 3.65239531,18.3514199 3.54090452,18.6406283 C3.34472362,19.1528795 2.99899497,19.5226608 2.50371859,19.7499722 C1.60536013,20.1608404 0.77078727,20.0653269 0,19.4634318 Z" id="路径"></path>
            <path d="M46.5109548,7.45754523 C46.3963904,7.45754523 46.3035176,7.36509147 46.3035176,7.25104398 L46.3035176,2.10291984 C46.3035176,0.952719957 47.1717702,0.0202987226 48.2428141,0.0202987226 L48.3039196,0.0202987226 C49.3749635,0.0202987226 50.2432161,0.952719957 50.2432161,2.10291984 L50.2432161,7.25104398 C50.2432161,7.36509147 50.1503433,7.45754523 50.0357789,7.45754523 L46.5109548,7.45754523 Z" id="路径"></path>
            <path d="M61.9706533,8.63412211 C65.119196,4.9106965 67.0879732,2.5618115 67.8769849,1.58746711 C68.8289447,0.412491016 70.0703518,-0.0981593578 71.601206,0.0555159897 C72.4116583,0.137156018 73.2478392,0.668616595 73.5485427,1.44499726 C73.6375209,1.67551028 73.6820101,2.05863146 73.6820101,2.59436079 C73.6852261,5.61664263 73.6905863,10.651111 73.6980905,17.697766 C73.6980905,18.8631374 72.9969849,19.7723832 71.8054271,19.9388649 C70.7553769,20.0861371 69.8098492,19.625111 69.3821106,18.680648 C69.2598995,18.4117161 69.198794,17.9608284 69.198794,17.3279847 C69.1977219,13.7571673 69.1966499,10.2007569 69.1955779,6.65875358 C69.1955779,6.54349707 69.1564489,6.52855641 69.078191,6.6139316 C68.7340704,6.98531369 68.3894137,7.37964037 68.0442211,7.79691162 C67.0558124,8.98789557 66.0615075,10.1746107 65.0613065,11.3570572 C61.9127638,15.0804828 59.9439866,17.4293678 59.1549749,18.4037122 C58.2030151,19.5786883 56.961608,20.0893386 55.4307538,19.9356633 C54.6203015,19.8540233 53.7841206,19.3225627 53.4834171,18.546182 C53.3944389,18.315669 53.3499497,17.9325478 53.3499497,17.3968185 C53.3467337,14.3745367 53.3413735,9.34006824 53.3338693,2.29341324 C53.3338693,1.12804185 54.0349749,0.218796046 55.2265327,0.05231442 C56.2765829,-0.0949577881 57.2221106,0.366068255 57.6498492,1.31053133 C57.7720603,1.57946319 57.8331658,2.03035092 57.8331658,2.66319454 C57.8342379,6.23401199 57.8353099,9.79042238 57.8363819,13.3324257 C57.8363819,13.4476822 57.8755109,13.4626229 57.9537688,13.3772477 C58.2978894,13.0058656 58.6425461,12.6115389 58.9877387,12.1942677 C59.9761474,11.0022165 60.9704523,9.81550134 61.9706533,8.63412211 Z" id="路径"></path>
            <path d="M96,1.94604292 L96,2.62637649 C95.8520603,3.15143393 95.641943,3.55002936 95.3696482,3.82216279 C93.3317253,5.84982362 91.3002345,7.8732157 89.2751759,9.89233902 C89.201206,9.96490793 89.201206,10.0380104 89.2751759,10.1116465 C91.2959464,12.1254339 93.3177889,14.1392213 95.3407035,16.1530086 C95.6473032,16.458225 95.8670687,16.8642907 96,17.3712059 L96,18.0211246 C95.7266332,19.1352709 95.0721608,19.7798536 94.0365829,19.9548727 C93.6099162,20.0263744 93.199866,19.9687462 92.8064322,19.7819879 C92.5705863,19.6688658 92.2704188,19.4314161 91.9059296,19.0696387 C90.3761474,17.5499602 88.4582915,15.6412911 86.1523618,13.3436312 C86.039799,13.2305091 85.9267002,13.2299755 85.8130653,13.3420304 C84.0324288,15.1082297 82.2373199,16.8947056 80.4277387,18.7014582 C79.801675,19.3268314 79.3246231,19.7062175 78.9965829,19.8396162 C78.3812395,20.0893386 77.7299832,20.0178369 77.0428141,19.625111 C75.7579899,18.8919516 75.6052261,17.1230843 76.6311558,16.1033843 C78.7548409,13.9935499 80.7788275,11.9760273 82.7031156,10.0508167 C82.72197,10.0321836 82.7325738,10.0068298 82.7325738,9.98038218 C82.7325738,9.95393452 82.72197,9.92858074 82.7031156,9.90994765 C80.7916918,8.00928241 78.8770519,6.10114685 76.959196,4.18554095 C76.4928643,3.71917896 76.201809,3.33925935 76.0860302,3.04578213 C75.3977889,1.29772505 77.2582915,-0.528770488 79.0078392,0.159567006 C79.2972864,0.272689137 79.6853601,0.570968718 80.1720603,1.05440575 C81.7329313,2.60289831 83.6127303,4.47368223 85.8114573,6.6667575 C85.8503957,6.70576211 85.9033536,6.72769511 85.958593,6.72769511 C86.0138323,6.72769511 86.0667902,6.70576211 86.1057286,6.6667575 C88.9069347,3.8845934 90.7679732,2.03141811 91.6888442,1.10723165 C92.2044891,0.589644541 92.6166834,0.276957897 92.9254271,0.169171716 C93.5128978,-0.0367959378 94.0639196,-0.0325271781 94.5784925,0.181977994 C95.3074707,0.48719431 95.7813065,1.07521595 96,1.94604292 Z" id="路径"></path>
            <path d="M38.1555779,13.2155684 C38.1735412,13.1852657 38.1737388,13.1476858 38.1560953,13.1171975 C38.1384518,13.0867092 38.1056958,13.0680278 38.0703518,13.0682962 C35.3227471,13.0736321 33.3153769,13.072565 32.0482412,13.0650946 C31.6237186,13.0618931 31.3026466,13.022407 31.0850251,12.9466365 C28.9897487,12.2070739 29.5911558,9.35607609 31.760402,9.34967295 C35.5103518,9.33686667 39.6955444,9.33526588 44.3159799,9.34487059 C44.3407378,9.34524174 44.3634994,9.35846972 44.375996,9.37974907 C44.3884927,9.40102842 44.3889058,9.42726274 44.3770854,9.44892161 L38.8229146,19.6619291 C38.7347922,19.8247034 38.5643209,19.9260587 38.3790955,19.9260587 L27.4572864,19.9260587 C27.2589615,19.9260587 27.1115578,19.8390826 27.0150754,19.6651306 L21.7455276,10.2140968 C21.6403674,10.0268431 21.639153,9.79895474 21.7423116,9.61060088 L26.7320603,0.431700434 C26.8233226,0.264981312 26.9991085,0.161167791 27.1903518,0.161167791 L38.5768844,0.161167791 C38.7494807,0.161167791 38.879732,0.234803895 38.9676382,0.382076103 L43.1131658,7.29746674 C43.1774874,7.40418573 43.1469347,7.45754523 43.0215075,7.45754523 L38.8293467,7.45754523 C38.70681,7.45758331 38.593161,7.3931078 38.5302513,7.28786203 L36.5668342,4.01425697 C36.4780289,3.86640444 36.3174519,3.77584167 36.1439196,3.77574003 L29.8066332,3.77574003 C29.6614074,3.77583429 29.5276546,3.85279214 29.4560804,3.97743892 L26.159598,9.66022521 C26.0718269,9.81225982 26.076099,10.0097124 26.1708543,10.1804803 L29.44,16.0457561 C29.5116476,16.1732951 29.6469786,16.2522903 29.7937688,16.2522573 L36.0988945,16.2522573 C36.2808604,16.2523158 36.4493776,16.1553218 36.5411055,15.9977325 L38.1555779,13.2155684 Z" id="路径"></path>
            <path d="M50.0631156,9.34326981 C50.1625823,9.34326981 50.2432161,9.42353974 50.2432161,9.52255771 L50.2432161,17.9875081 C50.2432161,19.078474 49.3713638,19.9628766 48.2958794,19.9628766 L48.2508543,19.9628766 C47.1753699,19.9628766 46.3035176,19.078474 46.3035176,17.9875081 L46.3035176,9.52255771 C46.3035176,9.42353974 46.3841513,9.34326981 46.4836181,9.34326981 L50.0631156,9.34326981 Z" id="路径"></path>
        </g>
    </g>
</svg>
