<?xml version="1.0" encoding="UTF-8"?>
<svg width="150px" height="50px" viewBox="0 0 150 50" version="1.1" xmlns="http://www.w3.org/2000/svg" xmlns:xlink="http://www.w3.org/1999/xlink">
    <title>PostgreSQL</title>
    <g id="PostgreSQL" stroke="none" stroke-width="1" fill="none" fill-rule="evenodd">
        <g id="PostgreSQL备份" transform="translate(-0.000000, 4.000000)" fill="currentColor" fill-rule="nonzero">
            <path d="M0,17.9925946 L0,13.1094672 C1.30243902,6.96350405 7.55121951,7.04395497 12.2804878,8.52376443 C12.4338524,8.57216095 12.6000355,8.55904724 12.7439024,8.48719583 C14.3065041,7.70706564 15.9926829,7.4437717 17.802439,7.69731401 C18.6268293,7.81189563 19.002439,7.92160144 19.6707317,7.76069959 C20.3650407,7.59329665 20.9195122,7.47627712 21.3341463,7.409641 C25.3609756,6.76115778 29.1609756,7.75094796 31.7414634,11.0616255 C32.1170732,11.544331 32.2926829,12.6048205 32.304878,13.3288788 C32.3308943,14.7932482 32.0813008,16.4762166 31.5560976,18.3777839 C30.7626016,21.2496382 29.599187,23.9752181 28.0658537,26.5545235 C28.0295624,26.6152795 28.029041,26.6909172 28.0644912,26.7521673 C28.0999414,26.8134174 28.1658013,26.8506702 28.2365854,26.8495102 C28.9731707,26.8397586 29.697561,26.7788109 30.4097561,26.6666672 C31.304878,26.5277065 32.0658537,26.3936217 32.4317073,27.2663923 C32.5455285,27.5394379 32.5447154,27.8441762 32.4292683,28.1806074 C31.4536585,31.0037035 28.5195122,31.6473109 25.8487805,31.4498405 C25.7881558,31.4451102 25.7281858,31.4646468 25.6823284,31.504066 C25.6364711,31.5434853 25.6085669,31.5994858 25.604878,31.6595005 C25.5333333,32.6427896 25.3382114,34.2550586 25.0195122,36.4963077 C24.7495935,38.4060014 23.7658537,39.7045931 22.0682927,40.3920828 C20.1,41.1892783 17.7439024,41.3965004 16.1390244,39.8045472 C15.297561,38.9707831 15.0585366,37.6689408 14.9365854,36.4377979 C14.798374,35.0530668 14.7390244,33.7016538 14.7585366,32.3835588 C14.7596431,32.3375947 14.7362299,32.2945053 14.6970549,32.2704087 C14.6578799,32.246312 14.6088452,32.2448385 14.5682927,32.2665393 C13.1317073,33.0247283 11.3634146,32.6956109 9.8804878,32.2348465 C9.53739837,32.1292038 9.23658537,31.9552998 8.97804878,31.7131344 C8.85284553,31.5944896 8.72601626,31.5920517 8.59756098,31.7058207 C3.80731707,35.9843472 0.436585366,20.2184036 0,17.9925946 Z M19.1365854,40.0532137 C19.4634146,40.2157409 19.7373984,40.2100524 19.9585366,40.0361484 C21.9682927,39.7509133 23.6756098,38.8562015 24.0804878,36.6889023 C24.4463415,34.7467032 24.7219512,32.7866261 24.9073171,30.808671 C24.9447154,30.4218564 25.2081301,30.3308412 25.697561,30.5356254 C26.0926829,30.7777908 26.4552846,30.7696645 26.7853659,30.5112463 C28.2260163,30.485242 29.5138211,30.0586083 30.6487805,29.2313452 C31.102439,28.8997899 31.3723577,28.5966768 31.4585366,28.322006 C31.7097561,27.510183 31.1585366,27.2858956 30.4682927,27.3565949 C29.6756098,27.4370458 27.9829268,27.8295488 26.9170732,27.4394837 C26.8616397,27.4191737 26.8183875,27.374868 26.7994332,27.3189787 C26.780479,27.2630894 26.7878614,27.2016273 26.8195122,27.1518107 C28.201626,25.0064527 29.301626,22.7229466 30.1195122,20.3012924 C30.9634146,17.8024379 31.504878,15.574191 31.2878049,13.1850423 C31.2178862,12.4244154 31.0845528,11.9132676 30.8878049,11.6515989 C29.0853659,9.2600123 26.602439,8.33848351 23.5902439,8.30922863 C22.2715447,8.29785173 21.1227642,8.42624816 20.1439024,8.69441791 C19.6495935,8.82931543 19.1845528,8.87401038 18.7487805,8.82850279 C17.1780488,8.66272512 15.8195122,8.57983629 14.2609756,9.00403208 C13.8341463,9.1186137 13.3682927,9.45748276 12.9195122,9.66470484 C12.8447154,9.69883554 12.7682927,9.70452399 12.6902439,9.68177019 C10.3634146,8.98452883 8.25853659,8.57739838 5.82926829,8.86507139 C3.11707317,9.189313 1.60731707,10.6837499 1.03658537,13.35082 C0.724390244,14.8054378 0.68699187,16.2470533 0.924390244,17.6756668 C1.32195122,20.0526259 3.84878049,33.1003034 8.00487805,31.2596837 C8.3398374,31.1101588 8.82926829,30.6656471 9.47317073,29.9261487 C10.4617886,28.7917094 11.1357724,28.0310824 11.495122,27.6442679 C11.5704131,27.563041 11.6836506,27.529366 11.7902439,27.5565032 L13.4146341,27.9685095 C13.5073171,27.9912633 13.5268293,28.0424593 13.4731707,28.1220976 C12.7512195,29.1874629 11.8073171,29.2679138 10.5487805,29.604345 C10.0186992,29.7457436 9.73333333,30.0675473 9.69268293,30.5697561 C9.68455285,30.6526449 9.70731707,30.7257821 9.76097561,30.7891677 C10.0682927,31.1548537 10.3268293,31.3791412 10.5365854,31.46203 C12.0560976,32.0666309 14.1634146,32.0593172 15.4682927,30.9232526 C15.5076932,30.889721 15.5630874,30.8823582 15.6098857,30.9044327 C15.6566839,30.9265071 15.6862134,30.9739278 15.6853659,31.0256447 C15.6414634,32.5631513 15.6747967,34.1030958 15.7853659,35.6454782 C15.9390244,37.8152153 16.5780488,39.8289263 19.1365854,40.0532137 Z" id="形状备份"></path>
            <path d="M24.9439024,9.32339788 C24.9943089,9.34777695 25.0504065,9.35752858 25.1121951,9.35265276 L25.304878,9.4014109 C25.3617886,9.41928888 25.4186992,9.42741524 25.4756098,9.42578997 C27.098374,9.77359801 28.4642276,10.5464145 29.5731707,11.7442394 C29.5747967,11.8905138 29.6398374,11.9717774 29.7682927,11.9880301 L29.802439,12.0489777 C29.8886179,12.2651388 30.0130081,12.4642345 30.1756098,12.6462649 C30.204878,12.6868967 30.2292683,12.7372801 30.2487805,12.7974151 C30.2422764,12.8868051 30.2609756,12.9656307 30.304878,13.0338921 C30.3065041,13.1021535 30.3211382,13.1663517 30.3487805,13.2264868 L30.3926829,13.4678395 C30.3747967,13.578358 30.3861789,13.6791248 30.4268293,13.77014 C30.3756098,18.0901109 28.5268293,22.5539184 26.295122,26.2205303 C26.2558276,26.2841059 26.1797211,26.3147322 26.1073171,26.2961054 L26.0170732,26.2741642 C25.9715447,26.2627873 25.9601626,26.2359703 25.9829268,26.1937133 C26.404065,25.4184589 26.6357724,24.8114201 26.6780488,24.3725969 C26.7495935,23.654227 26.697561,22.5295393 26.5219512,20.9985338 C26.4569106,20.4280636 26.4593496,19.8746587 26.5292683,19.3383192 C26.7,18.0316012 26.9780488,16.7614517 26.597561,15.7521582 C25.5569106,12.9924477 23.7292683,10.9275406 21.1146341,9.55743694 C20.9455285,9.46804702 20.9544715,9.40547408 21.1414634,9.36971811 C22.3853659,9.13242851 23.6528455,9.11698843 24.9439024,9.32339788 Z" id="路径备份"></path>
            <path d="M25.1121951,9.35265276 C25.0504065,9.35752858 24.9943089,9.34777695 24.9439024,9.32339788 L25.1121951,9.35265276 Z" id="路径备份-2"></path>
            <path d="M25.4756098,9.42578997 C25.4186992,9.42741524 25.3617886,9.41928888 25.304878,9.4014109 L25.4756098,9.42578997 Z" id="路径备份-3"></path>
            <path d="M16.7731707,36.1257458 C16.8073171,35.9859725 16.7894309,35.8632645 16.7195122,35.7576219 C16.6121951,33.8267996 16.5674797,31.8959774 16.5853659,29.9651552 C16.5934959,29.0988856 16.5235772,28.5121627 16.3756098,28.2049864 C16.0845528,27.5955097 15.5235772,27.2509522 14.6926829,27.1713139 C14.6492735,27.1665617 14.610493,27.1420366 14.5876062,27.1048625 C14.5647194,27.0676885 14.5602919,27.0220328 14.5756098,26.9811572 C15.295122,25.0210801 16.4121951,23.0731925 16.1341463,20.5012008 C16.0186992,19.448025 15.8934959,18.6597685 15.7585366,18.1364312 C15.1146341,15.6424524 12.1536585,16.1105306 10.4707317,17.0466868 C10.4340522,17.0662644 10.3896137,17.0648992 10.3546505,17.0431205 C10.3196873,17.0213418 10.2996995,16.9825758 10.302439,16.9418568 C10.3203252,16.6476827 10.4065041,16.1292212 10.5609756,15.3864722 C11.1195122,12.7096505 12.4756098,10.3497567 15.2268293,9.73296623 C15.3308943,9.75897057 15.4170732,9.73865468 15.4853659,9.67201856 C17.9902439,9.20881626 20.7634146,10.0572078 22.6707317,11.702795 C23.999187,12.8486112 24.998374,14.2471571 25.6682927,15.8984327 C25.691746,15.9553933 25.6831945,16.0204243 25.6457552,16.0698215 C25.6083159,16.1192187 25.5474585,16.1457655 25.4853659,16.1397854 C24.7813008,16.0682735 24.0934959,16.1284085 23.4219512,16.3201905 C19.6292683,17.4001833 23.4170732,23.5754013 24.4658537,25.5769229 C24.7373984,26.0953844 25.0756098,26.5642751 25.4804878,26.9835951 C25.5162995,27.0203647 25.530223,27.0731091 25.5173314,27.1231651 C25.5044398,27.173221 25.4665515,27.2135281 25.4170732,27.2298237 C24.4682927,27.5321242 24.2878049,28.1001565 24.197561,29.0728813 C24.0723577,30.4364839 23.8268293,32.5363343 23.4609756,35.3724326 C23.3666667,36.111931 23.1837398,36.7839807 22.9121951,37.3885816 C22.2634146,38.8366982 19.3317073,39.7509133 18.0195122,38.7879401 C17.2065041,38.1930908 16.7910569,37.3056927 16.7731707,36.1257458 Z" id="路径备份-4"></path>
            <path d="M15.4853659,9.67201856 C15.4170732,9.73865468 15.3308943,9.75897057 15.2268293,9.73296623 L15.4853659,9.67201856 Z" id="路径备份-6"></path>
            <path d="M25.8,17.9194574 C25.5382114,19.2619315 25.5211382,20.7766843 25.7487805,22.4637158 C25.8707317,23.3592403 25.804065,24.2198214 25.5487805,25.0454592 C25.4804878,25.2697466 25.3894309,25.2794982 25.2756098,25.0747141 C24.3658537,23.4461923 23.2219512,21.5031805 22.8146341,19.7405739 C22.7146341,19.3090643 22.6073171,18.165686 22.9292683,17.7414902 C23.5414634,16.936981 24.7756098,16.8809091 25.7121951,17.0637521 C25.7888734,17.0782346 25.843034,17.1479866 25.8390244,17.2270919 C25.8162602,17.6675404 25.803252,17.8983289 25.8,17.9194574 Z M24.8707317,17.5513335 L23.4463415,17.6634772 C23.427103,17.6646986 23.4091968,17.6737157 23.3967654,17.6884424 C23.3843341,17.7031691 23.3784548,17.7223293 23.3804878,17.7414902 L23.3853659,17.8073137 C23.4127046,18.1397465 23.7313905,18.3851968 24.097561,18.3558428 L24.3365854,18.3387774 C24.7029079,18.3091377 24.9780049,18.0156171 24.9512195,17.6829805 L24.9463415,17.617157 C24.9450914,17.5983896 24.9364112,17.5808938 24.9222212,17.5685405 C24.9080313,17.5561871 24.8895015,17.5499948 24.8707317,17.5513335 Z" id="形状备份-2"></path>
            <path d="M13.8073171,26.27904 C13.5520325,26.5894668 13.2406504,26.794251 12.8731707,26.8933926 C12.1658537,26.7406171 11.5788618,26.3635541 11.1121951,25.7622038 C11.0731707,25.4566528 10.9626016,25.3168795 10.7804878,25.3428838 C10.1658537,24.4140413 10.0512195,23.5680876 10.1926829,22.3930165 C10.3504065,21.0944248 10.3821138,19.7852688 10.2878049,18.4655486 C10.2770785,18.314303 10.3513281,18.1696297 10.4804878,18.0901109 C11.3268293,17.5659609 12.5682927,17.0369352 13.6170732,17.2173403 C14.7682927,17.4172486 14.8560976,18.297333 15.0634146,19.4114564 C15.2520325,20.427251 15.2780488,21.4438581 15.1414634,22.4612779 C14.9731707,23.7070483 14.3121951,25.0454592 13.8073171,26.27904 Z M14.2536585,17.982843 C13.9463415,17.721987 13.3463415,17.7756209 12.9439024,17.8073137 C12.840635,17.8154743 12.7499017,17.8789308 12.7068452,17.9731052 C12.6637888,18.0672797 12.6751718,18.1773808 12.7365854,18.2607644 C13.1414634,18.8166072 13.6276423,18.9328141 14.195122,18.6093851 C14.3036457,18.5470193 14.3751008,18.4358505 14.3867403,18.3112682 C14.3983798,18.1866859 14.3487531,18.064215 14.2536585,17.982843 L14.2536585,17.982843 Z" id="形状备份-3"></path>
            <path d="M2.45365854,20.4280636 L2.07804878,18.6532674 L2.45365854,20.4280636 Z" id="路径备份-7"></path>
            <path d="M11.1121951,25.7622038 C10.9642276,25.6565612 10.8536585,25.5167878 10.7804878,25.3428838 C10.9626016,25.3168795 11.0731707,25.4566528 11.1121951,25.7622038 Z" id="路径备份-8"></path>
            <path d="M13.8073171,26.27904 C13.7910569,26.5017022 13.7325203,26.6910463 13.6317073,26.8470723 C13.5861789,26.9185843 13.5219512,26.959216 13.4390244,26.9689677 C13.2552846,26.9917215 13.0666667,26.9665298 12.8731707,26.8933926 C13.2406504,26.794251 13.5520325,26.5894668 13.8073171,26.27904 Z" id="路径备份-9"></path>
            <path d="M26.9878049,28.3293197 C27.9227642,28.4723436 28.8813008,28.4625919 29.8634146,28.3000648 C30.302439,28.2269276 30.3373984,28.3146923 29.9682927,28.5633588 C28.6560976,29.4475063 27.1479675,29.7896259 25.4439024,29.5897175 C25.1073171,29.550711 24.9821138,29.3670554 25.0682927,29.0387506 L25.197561,28.5584829 C25.2703393,28.282454 25.5371297,28.0792783 25.8634146,28.0513983 C26.1926829,28.0221434 26.704878,28.2854374 26.9878049,28.3293197 Z" id="路径备份-10"></path>
            <path d="M13.8926829,29.0680055 C14.0243902,29.0663802 14.0902439,28.9867419 14.0902439,28.8290906 C14.2300813,28.5592956 14.395935,28.3658883 14.5878049,28.2488688 C14.8187793,28.1095338 15.1144539,28.1447171 15.304878,28.3341955 C15.797561,28.8250274 15.7682927,29.3329247 15.2170732,29.8578873 C14.0235772,30.9955772 12.5650407,31.25237 10.8414634,30.6282659 C10.8190503,30.6198457 10.8017199,30.6016169 10.7941773,30.5785283 C10.7866347,30.5554397 10.7896627,30.5298873 10.802439,30.5088084 C10.8398374,30.4519239 10.8943089,30.416168 10.9658537,30.4015405 C12.1853659,30.1406845 13.1243902,29.9480898 13.8926829,29.0680055 Z" id="路径备份-11"></path>
            <path d="M14.0902439,28.8290906 C14.0902439,28.9867419 14.0243902,29.0663802 13.8926829,29.0680055 C13.9398374,28.9688639 14.0056911,28.8892256 14.0902439,28.8290906 Z" id="路径备份-12"></path>
            <path d="M16.7731707,36.1257458 C16.7195122,36.0266043 16.701626,35.9038963 16.7195122,35.7576219 C16.7894309,35.8632645 16.8073171,35.9859725 16.7731707,36.1257458 Z" id="路径备份-13"></path>
            <path d="M20.9585366,0.0544760297 C20.7373984,0.228380052 20.4634146,0.234068501 20.1365854,0.0715413776 L20.9585366,0.0544760297 Z" id="路径"></path>
            <path d="M19.9585366,40.0361484 C19.7373984,40.2100524 19.4634146,40.2157409 19.1365854,40.0532137 L19.9585366,40.0361484 Z" id="路径备份-14"></path>
            <path d="M2.036,18.3571449 C2.064,18.0066389 2.001,17.6551334 1.847,17.3026283 C1.703,16.4090379 1.69333333,15.4921249 1.818,14.5518893 C1.834,14.5119076 1.833,14.4765904 1.815,14.4459378 C1.88166667,13.996144 1.99333333,13.5030367 2.15,12.966616 C2.579,11.49629 3.737,10.4087885 5.175,9.95399694 C6.06633333,9.67212615 6.96633333,9.56051065 7.875,9.61915043 C9.18833333,9.70377831 10.5393333,9.96299282 11.928,10.396794 C11.9418225,10.4010663 11.9525687,10.4120004 11.9565967,10.4258903 C11.9606246,10.4397802 11.957394,10.4547636 11.948,10.4657623 C11.606,10.8585823 11.335,11.1374544 11.059,11.5742542 C10.6156667,12.2752662 10.2863333,12.9489574 10.071,13.5953278 C9.917,14.0581156 9.673,14.7797848 9.596,15.3145397 C9.532,15.7593358 9.42,16.1641502 9.384,16.6579239 C9.366,16.9064766 9.34666667,17.2349927 9.326,17.6434721 C9.31333333,17.9040193 9.31866667,18.235534 9.342,18.6380162 C9.416,19.8941071 9.37733333,21.2138354 9.226,22.5972013 C9.06666667,24.0598641 9.47466667,25.3549371 10.45,26.4824203 C10.572,26.6243552 10.734,26.7433007 10.864,26.8852356 C10.882,26.9052265 10.881,26.9238846 10.861,26.94121 C10.6416667,27.1317893 10.5003333,27.2607302 10.437,27.3280327 C9.74233333,28.0650282 9.16466667,28.7287239 8.704,29.31912 C8.40066667,29.7082749 8.06066667,30.0341255 7.684,30.2966718 C7.47733333,30.4412722 7.18766667,30.4665939 6.815,30.372637 C6.625,30.324659 6.223,29.9588267 6.075,29.7899041 C5.66366667,29.3227849 5.36066667,28.8899833 5.166,28.4914993 C4.93533333,28.0210483 4.77433333,27.6965304 4.683,27.5179456 C4.483,27.1301234 4.392,26.81027 4.216,26.4344423 C4.166,26.3284909 4.10966667,26.1832241 4.047,25.9986421 C3.491,24.3800507 3.17333333,23.4154928 3.094,23.1049685 C2.89933333,22.343984 2.70833333,21.5823332 2.521,20.8200159 C2.25766667,19.7458417 2.096,18.9248847 2.036,18.3571449 Z" id="路径"></path>
            <path d="M1.815,13.446396 C1.833,13.4770486 1.834,13.5123658 1.818,13.5523475 C1.81066667,13.5276921 1.80966667,13.4923749 1.815,13.446396 Z" id="路径"></path>
            <path d="M90.991,25.9096828 C90.9896667,25.9323391 91.016,25.9649908 91.07,26.0076379 C91.6166667,26.43944 92.01,26.7482984 92.25,26.9342132 C92.4046667,27.0534919 92.4106667,27.1804337 92.268,27.3150386 L91.985,27.5809167 C91.841,27.7161881 91.6926667,27.7211858 91.54,27.5959099 L90.354,26.6283534 C90.3007395,26.584337 90.2271331,26.5742691 90.164,26.6023653 C89.524,26.8855688 88.861,27.0544914 88.175,27.109133 C86.91,27.2090872 85.724,27.109133 84.652,26.5393942 C83.305,25.8237222 82.421,24.5473074 82.24,23.0070134 C82.207,22.7311399 82.1,22.3733039 82.1029382,22.0564492 C82.109,21.5166966 82.1616667,20.980609 82.261,20.4481864 C82.325,20.1053436 82.485,19.733514 82.579,19.4966226 C82.7816667,18.9908544 83.1016667,18.5164053 83.539,18.0732751 C84.635,16.960785 86.286,16.5569701 87.828,16.6649206 C88.942,16.7428849 90.045,17.0937241 90.876,17.8223901 C91.4,18.2815129 91.7936667,18.8052728 92.057,19.3936698 C92.56,20.5201534 92.749,21.8715339 92.475,23.0989713 C92.3643333,23.5974095 92.2453333,23.9948939 92.118,24.2914247 C91.8853333,24.8331763 91.5343333,25.3176209 91.065,25.7447584 C91.0201742,25.7857731 90.9935189,25.84518 90.991,25.9096828 L90.991,25.9096828 Z M83.181,22.2953397 C83.2023333,22.5858731 83.2486667,22.9020615 83.32,23.2439048 C83.617,24.6782473 84.709,25.8207236 86.11,26.2025486 C86.36,26.2705174 86.709,26.3068341 87.157,26.3114986 C87.671,26.3174959 88.0273333,26.3035023 88.226,26.2695179 C90.66,25.8517094 91.68,23.7896547 91.512,21.5057016 C91.4906667,21.2151681 91.4443333,20.8989798 91.373,20.5571365 C91.076,19.122794 89.984,17.9803177 88.583,17.5984927 C88.333,17.5305239 87.984,17.4942072 87.536,17.4895426 C87.022,17.4835454 86.6656667,17.497539 86.467,17.5315234 C84.032,17.9493319 83.012,20.0113866 83.181,22.2953397 Z" id="形状"></path>
            <path d="M75.047,18.9408773 C74.934,19.7455085 75.122,20.4441882 75.896,20.7760361 C76.234,20.9213029 76.5206667,21.0172589 76.756,21.0639041 C78.5426667,21.4190747 79.6956667,21.6822873 80.215,21.8535422 C80.6916667,22.0101371 81.0746667,22.227704 81.364,22.506243 C82.005,23.1229603 82.084,24.6052808 81.733,25.411911 C81.304,26.3974592 80.319,26.8922324 79.28,27.0421637 C77.417,27.3090414 74.477,27.1741032 73.835,24.9011452 C73.7576667,24.625938 73.7183333,24.2271208 73.7169828,23.7046936 C73.7163333,23.666711 73.735,23.6447211 73.773,23.6387238 C74.0943333,23.5914122 74.3986667,23.5920786 74.686,23.6407229 C74.744,23.650052 74.7723333,23.6843696 74.771,23.7436757 C74.7483333,24.6772478 75.113,25.3875888 75.865,25.8746989 C76.2463333,26.1225852 76.7583333,26.2621879 77.401,26.2935069 C78.007,26.3228268 78.5823333,26.3068341 79.127,26.2455289 C79.519,26.2008827 79.8876667,26.0556159 80.233,25.8097287 C80.433,25.6677937 80.5773333,25.4915412 80.666,25.280971 C80.83,24.889817 80.8843333,24.4490191 80.829,23.9585772 C80.708,22.888068 79.811,22.6601724 78.911,22.4682604 C77.179,22.0984299 76.1153333,21.8598726 75.72,21.7525885 C75.5253333,21.6999459 75.276,21.5903295 74.972,21.4237392 C74.109,20.9499564 73.937,20.0183834 73.976,19.124793 C73.992,18.7556289 74.0603333,18.4444382 74.181,18.191221 C74.532,17.4525596 75.182,17.0607392 76.015,16.8638295 C77.25,16.5719633 78.675,16.5599688 79.881,17.019758 C81.0536667,17.46622 81.6463333,18.3288246 81.659,19.6075717 C81.6595356,19.6434396 81.6456547,19.6780232 81.6204665,19.7035756 C81.5952783,19.729128 81.5608883,19.7435134 81.525,19.7435094 L80.692,19.7435094 C80.6660998,19.7435108 80.6412747,19.7331588 80.6230547,19.7147593 C80.6048346,19.6963599 80.594733,19.6714413 80.595,19.6455543 C80.6043333,19.0984718 80.4093333,18.6090295 80.01,18.1772274 C79.7193333,17.8627049 79.304,17.6601311 78.764,17.569506 C77.9266667,17.4282374 77.1176667,17.4408983 76.337,17.6074886 C75.681,17.7474244 75.139,18.2841784 75.047,18.9408773 Z" id="路径"></path>
            <path d="M100,26.0776059 L100,26.7153135 L99.948,26.8492521 C99.9353333,26.8805711 99.912,26.8962306 99.878,26.8962306 L93.338,26.8962306 C93.2921604,26.8962306 93.255,26.8590873 93.255,26.8132686 L93.255,17.1127154 C93.255,16.9807759 93.321,16.9148061 93.453,16.9148061 L94.033,16.9148061 C94.1783333,16.9148061 94.251,16.9871063 94.251,17.1317067 L94.251,25.9066842 C94.251,25.9986421 94.297,26.044621 94.389,26.044621 L100,26.0776059 Z" id="路径"></path>
            <path d="M35.99,23.0809795 L35.99,26.2965055 C35.99,26.387797 35.9443333,26.4334427 35.853,26.4334427 L35.169,26.4334427 C35.0900233,26.4334427 35.026,26.3694488 35.026,26.2905083 L35.026,18.2252054 C35.026,18.1918874 35.0426667,18.1732292 35.076,18.1692311 C35.448,18.1239185 35.731,18.1005959 35.925,18.0992631 C36.869,18.0925995 37.8856667,18.0912668 38.975,18.095265 C39.418,18.0972641 39.838,18.1232521 40.26,18.2911752 C40.8693333,18.5337306 41.2793333,19.0198411 41.49,19.7495067 C41.6826667,20.4191997 41.6463333,21.0192579 41.381,21.5496815 C41.276,21.7605848 41.059,22.1943859 40.771,22.3793012 C40.4016667,22.6178585 40.1383333,22.7594602 39.981,22.8041064 C39.633,22.9030611 39.053,22.9260505 38.604,22.9260505 C37.4913333,22.9260505 36.6683333,22.928716 36.135,22.9340469 C36.0383333,22.9353796 35.99,22.9843571 35.99,23.0809795 Z M35.995,19.0018494 L35.985,21.9944776 C35.985,22.1000785 36.0703521,22.1858396 36.176,22.1863896 L39.17,22.1973927 C39.577901,22.1987082 39.9696231,22.0375925 40.2589918,21.7494812 C40.5483605,21.4613698 40.7116721,21.0698633 40.713,20.6610888 L40.7140084,20.3672235 C40.7167748,19.5163729 40.0310306,18.8242317 39.182,18.8209323 L36.188,18.8099348 C36.1369054,18.8096714 36.0878121,18.8297731 36.0515886,18.8657925 C36.015365,18.9018118 35.9949993,18.9507775 35.995,19.0018494 L35.995,19.0018494 Z" id="形状"></path>
            <path d="M54.867,20.976944 C54.9017939,20.976944 54.93,20.9487509 54.93,20.9139729 L54.93,19.2587316 C54.93,19.2054227 54.9566667,19.1787683 55.01,19.1787683 L55.557,19.1787683 C55.6078102,19.1787683 55.649,19.2199392 55.649,19.2707261 L55.649,20.8500022 C55.6489793,20.9139887 55.7000049,20.9663214 55.764,20.9679481 L56.652,20.9909376 C56.8433333,20.9962685 56.933,21.0942236 56.921,21.2848029 C56.9203333,21.2921329 56.9196667,21.3014619 56.919,21.3127901 C56.9083333,21.5040357 56.8073333,21.5963268 56.616,21.5896631 L55.782,21.5626755 C55.6960108,21.5592282 55.6228846,21.6247901 55.617,21.7106077 C55.607,21.849544 55.652,21.993478 55.653,22.1234185 C55.6563333,23.282887 55.655,24.2984214 55.649,25.1700219 C55.647,25.4538918 55.673,25.7557534 55.994,25.8277204 C56.1686667,25.8663694 56.3773333,25.8820289 56.62,25.8746989 C56.8186667,25.8680353 56.918,25.9639913 56.918,26.1625669 L56.918,26.2045477 C56.918,26.3977924 56.8223333,26.5060761 56.631,26.5293988 C56.2043333,26.5813749 55.7896667,26.5100743 55.387,26.3154968 C54.907,26.0836031 54.943,25.745758 54.943,25.2170004 C54.9423333,23.5377701 54.9393333,22.3739703 54.934,21.7256008 C54.9329063,21.6468955 54.8692022,21.5836659 54.791,21.5836659 L54.142,21.5836659 C54.01,21.5836659 53.944,21.5176961 53.944,21.3857566 L53.944,21.2378244 C53.944,21.0639041 54.031,20.976944 54.205,20.976944 L54.867,20.976944 Z" id="路径"></path>
            <path d="M47.65116,23.9370471 C47.6572974,24.6400525 47.3837874,25.3167016 46.8907992,25.8181391 C46.397811,26.3195766 45.7257277,26.6047274 45.0224,26.6108614 L44.47442,26.6156392 C43.7710923,26.6217738 43.0941331,26.3483891 42.5924657,25.8556268 C42.0907983,25.3628645 41.8055169,24.6910891 41.79938,23.9880837 L41.79484,23.468342 C41.7887026,22.7653365 42.0622126,22.0886875 42.5552008,21.5872499 C43.048189,21.0858124 43.7202723,20.8006617 44.4236,20.7945276 L44.97158,20.7897498 C45.6749077,20.7836153 46.3518669,21.0569999 46.8535343,21.5497622 C47.3552017,22.0425245 47.6404831,22.7142999 47.64662,23.4173053 L47.65116,23.9370471 Z M46.898,23.3558535 C46.898,22.2931925 46.0361481,21.4317355 44.973,21.4317355 L44.485,21.4317355 C43.4218519,21.4317355 42.56,22.2931925 42.56,23.3558535 L42.56,24.0475364 C42.56,25.1101975 43.4218519,25.9716544 44.485,25.9716544 L44.973,25.9716544 C46.0361481,25.9716544 46.898,25.1101975 46.898,24.0475364 L46.898,23.3558535 Z" id="形状"></path>
            <path d="M49.127,22.0804382 C48.953,22.7421348 49.294,22.94904 49.859,23.1189621 C50.321,23.2568989 50.829,23.2868851 51.375,23.3718462 C52.108,23.485794 52.475,23.5067843 52.954,23.8796134 C53.778,24.5233184 53.638,25.5988253 52.828,26.1735619 C52.6306667,26.3134977 52.3816667,26.4171169 52.081,26.4844194 C50.9996667,26.7283076 50.0146667,26.6656696 49.126,26.2965055 C48.8426667,26.1785596 48.6183333,25.9776517 48.453,25.6937818 C48.337,25.4928739 48.274,25.2299944 48.185,25.0010993 C48.1196667,24.8318436 48.1766667,24.7362208 48.356,24.7142308 L48.715,24.6682519 C48.891,24.646262 48.9843333,24.7238931 48.995,24.9011452 C49.023,25.3822579 49.264,25.6927823 49.718,25.8327181 C50.401,26.0436214 50.868,26.0596141 51.648,25.9526631 C51.942,25.9126815 52.1553333,25.8497103 52.288,25.7637497 C52.695,25.4998707 52.908,24.958119 52.574,24.550306 C52.3806667,24.3144141 52.1486667,24.1771437 51.878,24.1384948 C51.042,24.0185497 50.3406667,23.9059347 49.774,23.8006496 C49.074,23.6697096 48.426,23.3448586 48.368,22.5392279 C48.3266667,21.9761526 48.5106667,21.5400192 48.92,21.2308276 C49.551,20.7540462 50.848,20.6980718 51.634,20.8430054 C51.985,20.9079756 52.658,21.1298739 52.893,21.489709 C53.1163333,21.8302195 53.2476667,22.1530715 53.287,22.458265 C53.3036667,22.5835409 53.2486667,22.6461788 53.122,22.6461788 L52.696,22.6461788 C52.6126667,22.6461788 52.5616667,22.605864 52.543,22.5252343 C52.5103333,22.3866311 52.4443333,22.2050477 52.345,21.980484 C52.219,21.6976137 51.777,21.46572 51.517,21.4137438 C50.974,21.3037942 49.339,21.275807 49.127,22.0804382 Z" id="路径"></path>
            <path d="M62.004,25.6518011 C62.014,25.4152428 61.9363333,25.3819248 61.771,25.5518469 C61.442,25.8916911 61.073,26.129582 60.621,26.2305358 C60.0396667,26.3611426 59.46,26.3714712 58.882,26.2615216 C58.4286667,26.1748946 58.0666667,26.0119693 57.796,25.7727456 C57.251,25.2899669 56.932,24.622273 56.919,23.8856107 C56.9116667,23.5037857 56.919,23.21092 56.941,23.0070134 C56.965,22.7797843 57.0573333,22.4782558 57.218,22.1024281 C57.358,21.7735788 57.571,21.6726251 57.788,21.4117447 C57.844,21.3444422 57.94,21.272142 58.076,21.1948441 C58.5673333,20.9136397 59.1683333,20.7737038 59.879,20.7750271 C60.619,20.7763693 61.243,21.0682355 61.751,21.6506352 C61.775,21.677956 61.8226667,21.701945 61.894,21.7226022 C61.9296798,21.733138 61.9682323,21.7238443 61.9953587,21.6981683 C62.0224851,21.6724922 62.0341397,21.634263 62.026,21.5976595 L61.938,21.2018409 C61.9046667,21.0519096 61.965,20.976944 62.119,20.976944 L62.522,20.976944 C62.6666667,20.976944 62.7326667,21.048911 62.72,21.192845 C62.6973333,21.4440632 62.6853333,21.770247 62.684,22.1713965 C62.6793333,23.8812793 62.679,25.2546498 62.683,26.2915078 C62.6836667,26.3901293 62.65,26.6200239 62.582,26.9811917 C62.5293333,27.2623961 62.4546667,27.4802962 62.358,27.634892 C62.0553333,28.1166712 61.626,28.4325264 61.07,28.5824576 C60.254,28.8023568 59.4333333,28.8126854 58.608,28.6134434 C58.281,28.5344796 57.969,28.4335259 57.735,28.1906372 C57.4656667,27.9107655 57.272,27.572254 57.154,27.1751028 C57.108,27.0178415 57.1663333,26.9305482 57.329,26.9132228 L57.642,26.8792384 C57.8046667,26.8612466 57.9056667,26.9318809 57.945,27.0911413 C58.0263333,27.4176582 58.145,27.651551 58.301,27.7928196 C58.814,28.2586061 60.352,28.1526547 60.879,28.0117193 C61.96,27.7258503 61.967,26.5403937 62.004,25.6518011 Z M61.95194,23.3953554 C61.9712228,22.8936353 61.7903168,22.4048077 61.4490193,22.0364094 C61.1077218,21.6680111 60.6339901,21.4502194 60.13204,21.4309459 L59.63041,21.4116847 C59.1284599,21.3924107 58.6394083,21.5732338 58.2708411,21.914375 C57.9022739,22.2555161 57.6843823,22.7290307 57.6651,23.2307509 L57.64606,23.7261638 C57.6267772,24.2278839 57.8076832,24.7167114 58.1489807,25.0851097 C58.4902782,25.453508 58.9640099,25.6712998 59.46596,25.6905733 L59.96759,25.7098345 C60.4695401,25.7291084 60.9585917,25.5482853 61.3271589,25.2071442 C61.6957261,24.8660031 61.9136177,24.3924885 61.9329,23.8907683 L61.95194,23.3953554 Z" id="形状"></path>
            <path d="M64.442,21.6326434 C64.518,21.6812878 64.5866667,21.6749574 64.648,21.6136521 C64.766,21.4957062 64.847,21.2078382 65.064,21.0828954 C65.508,20.8270127 66.0213333,20.7280581 66.604,20.7860315 C66.7606667,20.8013578 66.839,20.8876516 66.839,21.0449129 L66.839,21.3617676 C66.839,21.5130316 66.7646667,21.5733373 66.616,21.5426847 C66.153,21.4487277 65.255,21.5286911 64.947,22.039457 C64.8983333,22.1200867 64.7896667,22.2713507 64.621,22.4932489 C64.5436667,22.5952022 64.501,22.814435 64.493,23.1509474 C64.4703333,24.1731455 64.4626667,25.2343258 64.47,26.3344881 C64.4706667,26.4064551 64.4346667,26.4424386 64.362,26.4424386 L63.832,26.4424386 C63.7753333,26.4424386 63.747,26.4141183 63.747,26.3574776 L63.747,21.1618592 C63.747,21.0372497 63.8093333,20.9749449 63.934,20.9749449 L64.335,20.9749449 C64.4723333,20.9749449 64.5263333,21.0419142 64.497,21.1758528 L64.412,21.5596769 C64.4046667,21.5909959 64.4146667,21.615318 64.442,21.6326434 Z" id="路径"></path>
            <path d="M67.599,24.0295447 C67.646,24.9051433 68.044,25.6008244 68.895,25.8826952 C69.3816667,26.0432883 69.9176667,26.0642786 70.503,25.9456663 C71.148,25.8157259 71.495,25.387922 71.725,24.7921951 C71.7676667,24.6815791 71.8483333,24.6262712 71.967,24.6262712 L72.444,24.6262712 C72.574,24.6262712 72.6166667,24.6872432 72.572,24.8091873 C72.488,25.0380824 72.338,25.185015 72.253,25.4189078 C72.213,25.5295238 72.1576667,25.6161507 72.087,25.6787887 C71.792,25.9436673 71.646,26.1075921 71.386,26.2325348 C70.446,26.6823287 69.427,26.7922783 68.466,26.367473 C67.7166667,26.0362915 67.2223333,25.4798799 66.983,24.6982382 C66.828,24.19247 66.739,22.9340469 67.099,22.362309 C67.207,22.1903878 67.238,21.9834826 67.4,21.8275541 C67.647,21.5896631 67.842,21.3397777 68.152,21.1778519 C69.197,20.6331016 70.625,20.6341012 71.579,21.3327809 C72.127,21.7345967 72.471,22.3253259 72.569,23.0030153 C72.579,23.0709841 72.618,23.3331972 72.686,23.7896547 C72.6903926,23.8174089 72.6823935,23.845693 72.6641141,23.8670412 C72.6458348,23.8883894 72.6191122,23.9006562 72.591,23.9006038 L67.721,23.9006038 C67.6873934,23.9005485 67.6552524,23.9143521 67.6321606,23.9387576 C67.6090688,23.9631631 67.5970717,23.9960088 67.599,24.0295447 L67.599,24.0295447 Z M67.624,23.3298654 L71.882,23.3378618 C71.8831046,23.3378618 71.8840034,23.3369667 71.8840034,23.3358627 L71.8840034,23.3288659 C71.8860716,22.2464222 70.9387456,21.3671015 69.768,21.3647617 L69.746,21.3647617 C69.1836969,21.3636428 68.6440062,21.5691081 68.2456714,21.9359556 C67.8473366,22.3028031 67.6229926,22.8009774 67.622,23.3208696 L67.622,23.3278663 C67.622,23.3289704 67.6228954,23.3298654 67.624,23.3298654 Z" id="形状"></path>
        </g>
    </g>
</svg>
