<?xml version="1.0" encoding="UTF-8"?>
<svg width="124px" height="32px" viewBox="0 0 124 32" version="1.1" xmlns="http://www.w3.org/2000/svg" xmlns:xlink="http://www.w3.org/1999/xlink">
    <title>prometheus</title>
    <g id="prometheus" stroke="none" stroke-width="1" fill="none" fill-rule="evenodd">
        <g id="prometheus备份" transform="translate(2.000000, 1.000000)" fill="currentColor" fill-rule="nonzero">
            <path d="M15.4041889,16.7439057 C15.2333807,16.9206537 15.2678631,16.9848156 15.5076361,16.9363915 L20.5464775,15.9194856 C20.7349279,15.8815534 20.7850476,15.9485401 20.6968368,16.1204456 C20.0063869,17.4666353 19.4662962,18.7644008 18.4173896,19.8696807 C18.1936549,20.1069587 18,20.0549028 17.6619844,20.0549028 C11.0469763,20.0605523 5.9664352,20.0593417 2.42036105,20.051271 C2.38026523,20.051271 2.31972055,20.0327084 2.238727,19.9955833 C2.18419668,19.9705642 2.13487883,19.9338426 2.09077343,19.8854185 C1.4083426,19.1404946 0.856223189,18.3903248 0.434415183,17.634909 C0.180207696,17.1781084 0.0354617932,16.6462505 0,16.0393353 C-0.00222827579,15.9909112 0.0198244241,15.9719451 0.0663355731,15.9824369 L4.69018531,16.9472869 C4.94118513,16.9997463 4.98689437,16.9250925 4.82731301,16.7233255 C3.56910624,15.1342083 3.09757942,13.3747998 3.41273255,11.4450998 C3.49773568,10.9245409 3.70823873,10.2139174 4.04424168,9.31322934 C4.61801284,7.77334332 5.06788792,6.75038445 5.22666736,5.29281938 C5.26756509,4.9199539 5.2338846,4.49261132 5.1256259,4.01079164 C5.10718182,3.92847069 5.10678086,3.86713351 5.12442302,3.8267801 C5.15890542,3.7509157 5.20862424,3.73921321 5.27357946,3.79167264 C5.66812231,4.11006102 5.85577074,4.44660844 6.14927213,4.96232498 C6.33210906,5.2835381 6.46041568,5.58255685 6.53419198,5.85938122 C6.77717264,6.77298236 6.917508,7.40895206 6.95519807,7.76729031 C6.9808594,8.0134461 6.9664249,8.24426759 6.91189459,8.45975478 C6.90227159,8.49849405 6.91189459,8.53198738 6.94076358,8.56023476 C7.02576671,8.64174865 7.0939296,8.64497692 7.14525225,8.56991958 C7.4074789,8.18898342 7.61236853,7.7802034 7.75992114,7.34357954 C8.20739047,6.02079485 8.42150214,4.72181867 8.40225615,3.44665101 C8.39744465,3.15449234 8.42070022,2.86919375 8.47202287,2.59075524 C8.54900684,2.17551868 8.55261547,1.78207296 8.68733741,1.46247397 C8.88460884,0.99518152 9.13681153,0.611420617 9.4439455,0.311191268 C9.70015778,0.0605966095 9.89502345,-0.00235470575 10.2149881,0 C10.2417031,0.000759350077 10.2655838,0.0170109263 10.2761732,0.0417049 C10.2867626,0.0663988738 10.2821307,0.0950349106 10.2643059,0.115073709 C10.0205234,0.385441537 9.92589723,0.718357147 9.98042755,1.11382054 C10.0293444,1.47538707 10.1368012,1.88618475 10.3027979,2.34621359 C10.417472,2.66500551 10.7651027,3.6254166 11.3456902,5.22744687 C11.6079168,5.94977285 11.7670972,6.56233757 11.8232313,7.06514103 C11.8801674,7.57197982 11.9134469,7.8500148 11.9230699,7.89924595 C11.9639677,8.1058554 11.9904309,8.38267977 12.0024597,8.72971907 C12.0160922,9.12921781 12.0726273,9.56705227 12.172065,10.0432225 C12.1831391,10.0991926 12.2308806,10.1402338 12.2875409,10.1424919 C12.3388636,10.144106 12.3673316,10.0981031 12.372945,10.0044832 C12.3970025,9.60256327 12.411036,9.2002398 12.4150456,8.7975128 C12.4174514,8.54207573 12.5016526,8.34232637 12.5353331,8.0893105 C12.6925087,6.88435776 12.8589063,5.99133686 13.034526,5.4102478 C13.1848853,4.91269029 13.8476692,2.85829833 14.3540794,2.72755329 C14.3892598,2.71857116 14.4255469,2.73248187 14.4475542,2.76338696 C14.4695615,2.79429205 14.4734328,2.83677635 14.4575266,2.87282556 C14.2915299,3.24811224 14.2097344,3.55923701 14.2289804,4.15001089 C14.2554437,4.99259004 14.4960186,5.81458894 14.8460551,6.614797 C14.8701126,6.66887057 15.1283296,7.13898776 15.6207063,8.02514858 C16.2089119,9.08563613 16.726148,10.4657227 16.7718572,11.7332232 C16.793509,12.3288395 16.8404211,13.2864258 16.6828445,13.9679949 C16.4446753,15.0066916 16.1066676,16.0175444 15.4041889,16.7439057 Z" id="路径"></path>
            <path d="M85.3549521,15.6337835 C85.4166996,15.6725228 85.4776453,15.6543637 85.537789,15.5793064 C85.6268017,15.4667204 85.6881483,15.2936043 85.8276818,15.1822289 C86.2631224,14.8311542 86.7502866,14.5648218 87.2891743,14.3832314 C87.8064104,14.2097118 88.3288589,14.1725866 88.8565199,14.271856 C90.1063065,14.5067128 90.8280312,15.2875513 91.2562546,16.4122007 C91.3444654,16.6446364 91.4046091,16.9258996 91.4366858,17.2559905 C91.4715691,17.6240136 91.5064744,17.9993002 91.5040467,18.4060626 C91.4912161,21.1016702 91.492018,22.9151523 91.5064744,23.8465089 C91.5070982,23.8822444 91.4934433,23.9167412 91.4685589,23.9422408 C91.4436745,23.9677404 91.4096496,23.9820964 91.3741363,23.9820964 L89.9643673,23.9820964 C89.8841757,23.9820964 89.8444808,23.941743 89.8452827,23.8610362 C89.8541038,22.1758779 89.852901,20.0819396 89.8416741,17.5792213 C89.8356598,16.1725015 88.8204336,15.4570356 87.5201263,15.6228881 C86.8200533,15.7124727 85.8673766,16.1543425 85.4199073,16.7983828 C85.3333003,16.9242855 85.2899969,17.108297 85.2899969,17.3504175 C85.2940064,18.74261 85.2928036,20.9338 85.2863882,23.9239875 C85.2863882,23.9611126 85.2683451,23.9796752 85.2322589,23.9796752 L83.8333158,23.9796752 C83.7768478,23.9796752 83.7310715,23.9336048 83.7310715,23.876774 L83.7310715,10.1545979 C83.7310715,10.1191622 83.7601529,10.090436 83.7960267,10.090436 L85.2322589,10.090436 C85.2661397,10.090436 85.2936055,10.1175362 85.2936055,10.1509661 L85.2936055,15.5199869 C85.2936055,15.5692181 85.3140543,15.6071503 85.3549521,15.6337835 Z" id="路径"></path>
            <path d="M24.9417811,18.8261416 C24.8713184,18.8306208 24.8165016,18.8900335 24.8166821,18.961729 L24.8166821,23.6588656 C24.8166821,23.7243881 24.7644433,23.7775046 24.7000033,23.7775046 L23.139875,23.7775046 C23.0747708,23.7775046 23.0219933,23.7243881 23.0219933,23.6588656 L23.0219933,10.4076137 C23.0219933,10.3753195 23.0476499,10.3489533 23.0797313,10.3482942 C24.2457177,10.3321529 25.6570905,10.3313458 27.3138497,10.345873 C27.7853765,10.3507154 28.3759879,10.4863029 28.7452704,10.5637814 C30.1718796,10.8628002 31.2268006,11.7065899 31.711559,13.1338899 C32.0563831,14.1475675 32.0170892,15.1834395 31.5936773,16.2415058 C31.375957,16.7850662 30.8851842,17.2729389 30.4437293,17.6966497 C30.2224003,17.9089086 29.9946561,18.0775858 29.7604965,18.2026814 C29.2937812,18.4512584 28.8090227,18.624778 28.3062212,18.7232404 C27.953378,18.7918412 27.4144902,18.8160532 26.6895578,18.7958765 C26.0600535,18.778121 25.4774612,18.7882093 24.9417811,18.8261416 Z M24.8479569,12.0322419 L24.8214936,17.0271867 C24.8214936,17.0860232 24.8688856,17.1337197 24.9273466,17.1337197 L27.3210669,17.1470737 C28.0370644,17.1507384 28.7251241,16.8799777 29.2338334,16.3943371 C29.7425427,15.9086964 30.0302161,15.2479709 30.0335792,14.5575581 L30.0335792,14.5551369 C30.0405263,13.1178825 28.8380454,11.9466979 27.3475302,11.9390255 L24.9538098,11.9257089 C24.8953489,11.9257089 24.8479569,11.9734054 24.8479569,12.0322419 L24.8479569,12.0322419 Z" id="形状"></path>
            <path d="M77.1429276,15.7972148 L76.2864809,15.7972148 C76.0491137,15.7972148 75.9208071,15.6781723 75.9015611,15.4400872 L75.8666777,14.9982173 C75.8482336,14.7601322 75.9568933,14.6535992 76.1926567,14.6786184 C76.4460623,14.7052516 76.7668288,14.6552134 77.1549563,14.5285037 C77.2183077,14.5075199 77.254394,14.4639382 77.263215,14.3977586 L77.6361061,11.5080512 C77.6657771,11.2820721 77.7932818,11.1569765 78.0186203,11.1327645 L78.5454793,11.0758662 C78.7475622,11.0540753 78.8486037,11.1456776 78.8486037,11.3506729 L78.8486037,14.3626512 C78.8486037,14.4812902 78.9075445,14.5406097 79.0254262,14.5406097 L81.4371897,14.5406097 C81.5478542,14.5406097 81.6031864,14.5967009 81.6031864,14.7088834 L81.6031864,15.7112621 C81.6031864,15.7553895 81.5681809,15.7911618 81.5249995,15.7911618 L79.0410636,15.7911618 C78.9279934,15.7911618 78.8782746,15.8476566 78.8919072,15.9606461 C78.912757,16.1325516 78.9235829,16.39727 78.9243848,16.7548012 C78.9251867,19.015399 78.9231819,20.7203305 78.9183704,21.8695955 C78.9175685,22.0035688 78.9853304,22.1379457 79.1216562,22.2727261 C79.7242964,22.8683423 80.4063262,22.580219 81.0209951,22.2000899 C81.0769818,22.1656758 81.1443508,22.1553939 81.2077838,22.1715821 C81.2712169,22.1877702 81.3253231,22.2290527 81.3578,22.2860427 L81.7655744,22.9954556 C81.8106935,23.0746071 81.7893912,23.1750047 81.7162566,23.2278912 C81.2158608,23.5918789 80.647703,23.8279464 80.0117834,23.9360935 C78.9111532,24.1237368 77.8141316,23.6225475 77.3702709,22.5995887 C77.2507853,22.3251855 77.1898397,21.8704026 77.1874339,21.23524 C77.1794148,18.7478559 77.1850282,16.9565682 77.2042742,15.8613767 C77.2050761,15.8186021 77.1846272,15.7972148 77.1429276,15.7972148 Z" id="路径"></path>
            <path d="M35.4440787,16.0381246 C35.4908088,16.0645939 35.5499449,16.0497149 35.5788007,16.0042278 C35.6878613,15.8347435 35.8362158,15.5966584 36.0238643,15.2899725 C36.2536133,14.9183176 37.023453,14.378389 37.4673137,14.2331167 C38.1665848,14.0039094 38.8674597,14.0555618 39.5699384,14.3880738 C39.6336628,14.4181817 39.6615297,14.4942294 39.6324879,14.5587687 C39.5073889,14.8380143 39.4512548,15.1378401 39.4640854,15.4582462 C39.4857372,15.9872794 39.0382679,15.9775945 38.6617681,15.8468495 C38.3802955,15.7475801 38.078374,15.8165844 37.7632208,15.7960042 C37.5707609,15.7838982 37.3738904,15.8145668 37.1726094,15.88801 C36.4300349,16.1583778 35.9071854,16.6744979 35.604061,17.4363702 C35.4998119,17.7002815 35.4492912,18.0816212 35.4524988,18.5803893 C35.4565084,19.1324239 35.4581123,20.8579356 35.4573103,23.7569244 C35.4573103,23.8029273 35.4344557,23.8259287 35.3887465,23.8259287 L34.1197139,23.8259287 C34.0466376,23.8259287 33.9873977,23.7657661 33.9873977,23.6915519 L33.9873977,14.3892844 C33.9873977,14.277909 34.0427299,14.2189931 34.1533943,14.2125365 C34.6201097,14.1822715 35.2239527,14.0817915 35.2925165,14.704041 C35.3029414,14.798468 35.3157721,15.1693158 35.3310085,15.8165844 C35.3342162,15.9231174 35.3719062,15.9969642 35.4440787,16.0381246 Z" id="路径"></path>
            <path d="M49.6777099,19.0125743 C49.6784951,19.2958552 49.650428,19.6626677 49.593492,20.1130117 C49.3841918,21.7533777 48.500079,22.9676117 46.9591967,23.6164945 C45.8854307,24.0692597 44.769965,24.0999283 43.6127997,23.7085003 C42.9993337,23.5002767 42.5807334,23.0814083 42.0851491,22.6104841 C41.1060092,21.6807416 40.7848417,20.3297095 40.7799755,19.0452606 C40.7752187,17.7608116 41.0867632,16.4085689 42.0586858,15.4715628 C42.5518644,14.9957961 42.9668561,14.5745066 43.5791192,14.3614406 C44.7330769,13.9619418 45.8485425,13.9845398 46.9255162,14.4292343 C48.47121,15.0672217 49.3637429,16.2741921 49.5850718,17.9133475 C49.6460175,18.3628844 49.6768913,18.7292934 49.6777099,19.0125743 Z M47.8168463,17.8927672 C47.8120348,17.4726883 47.5197362,17.1010334 47.3765942,16.7971722 C47.2563067,16.5429458 47.1296039,16.3573201 46.9964858,16.2402952 C46.6428407,15.9319952 46.3341029,15.7528261 46.0702724,15.7027878 C45.6548797,15.6245022 45.4159087,15.5752711 45.3533592,15.5550944 C45.1284217,15.480037 44.9155129,15.5829382 44.6472718,15.6337835 C44.4115084,15.6773652 44.2366907,15.7229645 44.1228185,15.7705816 C43.475672,16.0417565 43.03542,16.5009782 42.8020623,17.1482469 C42.7675799,17.2434809 42.7483339,17.4722847 42.7443243,17.8346583 C42.7419186,17.9738776 42.6757605,18.1082544 42.6444857,18.209945 C42.5566759,18.4835411 42.5987765,18.9302533 42.5963707,19.6650889 C42.5963707,19.8890503 42.64208,20.039165 42.7034266,20.2340719 C42.8128882,20.5790936 42.7479329,20.9059562 42.9620446,21.2848747 C43.2908303,21.8635425 43.7439131,22.2230914 44.3212928,22.3635212 C44.4319573,22.3909615 44.6444651,22.4349468 44.9588163,22.4954769 C45.1119824,22.5245313 45.2839934,22.5208995 45.4748495,22.4845814 C46.2134145,22.3441516 46.9640082,22.1322962 47.3140447,21.378091 C47.4559839,21.0730193 47.6628783,20.7413143 47.7795571,20.4023456 C47.9840458,19.8091506 47.9299165,19.1638996 47.9226992,18.5452818 C47.9190906,18.3116356 47.819252,18.1663633 47.8168463,17.8927672 Z" id="形状"></path>
            <path d="M58.3696646,16.0018066 C58.4257988,16.0276328 58.4687013,16.0135091 58.4983722,15.9594355 C58.7646084,15.4768088 59.1350938,15.0397814 59.6098283,14.6483533 C59.9714925,14.3505452 60.369644,14.1737972 60.8042827,14.1181095 C62.651898,13.8796209 63.9510025,14.9376872 64.3720086,16.7027453 C64.444983,17.0110453 64.483074,17.4977074 64.4862817,18.1627315 C64.4902912,19.0827892 64.4846778,20.9434848 64.4694414,23.7448184 C64.4694414,23.7637616 64.4619643,23.7819289 64.4486549,23.7953238 C64.4353455,23.8087187 64.4172941,23.8162439 64.3984718,23.8162439 L62.9538195,23.8162439 C62.8767573,23.8162439 62.814286,23.7539133 62.814286,23.6770246 C62.8134841,23.2331371 62.8114793,21.3857582 62.8082717,18.1348877 C62.8074698,17.3431538 62.7561471,16.8125065 62.6543037,16.5429458 C62.4514189,16.0046313 62.0003409,15.6491178 61.3010699,15.4764052 C61.0424518,15.4122433 60.4590577,15.4340341 60.1896138,15.5841488 C59.7293138,15.8407965 59.3796783,16.2249609 59.1407072,16.7366421 C59.0356562,16.9602 58.9839325,17.2822202 58.9855364,17.7027027 C58.9871402,17.9270676 58.989145,19.9398956 58.9915508,23.7411865 C58.9915508,23.7846454 58.9565453,23.8198757 58.9133639,23.8198757 L57.4831461,23.8198757 C57.4346547,23.8198757 57.3881494,23.8004888 57.3538608,23.76598 C57.3195723,23.7314711 57.3003091,23.684667 57.3003091,23.6358642 C57.2987053,20.6924866 57.2987053,18.6207427 57.3003091,17.4206324 C57.3027149,16.4860475 56.8853174,15.7245787 55.968727,15.5030385 C54.8692997,15.2391272 54.157198,15.894063 53.3777353,16.6204243 C53.3488663,16.6478646 53.3344318,16.681358 53.3344318,16.7209043 L53.3344318,23.7230275 C53.3344318,23.7811955 53.2875783,23.8283499 53.2297817,23.8283499 L51.8332444,23.8283499 C51.7575108,23.8283499 51.6961167,23.7660193 51.6961167,23.6891307 L51.6961167,14.3360179 C51.6961167,14.2488546 51.7390192,14.2032552 51.8248242,14.1992199 C52.0461531,14.1879209 52.316399,14.1955881 52.6355617,14.2222213 C52.8677165,14.241591 52.986801,14.3493346 53.0481476,14.5890338 C53.1187163,14.8666652 53.1544016,15.0361495 53.1552035,15.0974867 C53.1576092,15.5728499 53.3151858,15.6321694 53.6279332,15.2754453 C53.7955337,15.0849772 53.9976166,14.8916844 54.2341819,14.6955668 C54.7947215,14.2306955 55.4567034,14.034578 56.2201278,14.1072141 C57.3183523,14.2125365 57.8391969,14.9497933 58.2565944,15.894063 C58.2766423,15.9400659 58.3143324,15.9759804 58.3696646,16.0018066 Z" id="路径"></path>
            <path d="M67.9890523,19.3031188 C68.0989149,20.0698336 68.3154323,20.8220211 68.6386046,21.5596814 C68.7412499,21.7945382 68.969796,22.0015512 69.3242431,22.1807203 C70.9553409,23.0051404 72.2219678,22.4821602 73.6437655,21.6783204 C73.7359859,21.626668 73.8249986,21.6432129 73.9108037,21.7279551 C74.1249154,21.9410211 74.3257954,22.1322962 74.4821691,22.3913651 C74.502217,22.4236478 74.4990093,22.4539129 74.4725461,22.4821602 C73.6365483,23.3646893 72.738001,23.7230275 71.5267064,23.9155133 C70.705544,24.0462583 69.8831788,23.9558667 69.0596107,23.6443384 C68.7228058,23.5172251 68.4365217,23.2230488 68.232033,23.0632493 C66.5504144,21.7497459 66.1642916,19.7909915 66.4662132,17.7511268 C66.4862611,17.6147323 66.5460038,17.3952097 66.6454415,17.0925592 C67.0063038,15.9921218 68.3066112,14.4643418 69.468588,14.2306955 C71.1020916,13.9002011 72.7295809,14.1604806 73.7724731,15.5756746 C74.2889073,16.2770168 74.5800029,17.1183854 74.64576,18.0997802 C74.6734262,18.5198592 74.7840906,19.1118437 74.1970878,19.1106331 C72.3711243,19.1090189 70.3563094,19.1094225 68.1526433,19.1118437 C68.1045337,19.1120341 68.0588728,19.1332217 68.0274873,19.1699185 C67.9961018,19.2066153 67.9820795,19.2552111 67.9890523,19.3031188 L67.9890523,19.3031188 Z M68.3042055,18.1118914 L73.0194737,18.0876742 C73.0574377,18.0873545 73.0937205,18.0718691 73.1203396,18.044625 C73.1469586,18.0173808 73.1617332,17.9806099 73.161418,17.9424019 L73.161418,17.8891354 C73.1580138,17.2421086 72.8916019,16.6229882 72.4207977,16.1680036 C71.9499935,15.7130189 71.3133721,15.459449 70.6510137,15.4630886 L70.6437964,15.4630886 C69.2647892,15.4706282 68.1527426,16.5686817 68.1598265,17.9157687 L68.1598265,17.9690352 C68.1601782,18.0072431 68.1755647,18.043759 68.2026349,18.0705491 C68.2297052,18.0973391 68.2662414,18.1122087 68.3042055,18.1118914 Z" id="形状"></path>
            <path d="M94.8684868,19.2849598 C94.9230171,19.91528 95.0793908,20.5246165 95.3376079,21.1129691 C95.7706427,22.1008205 96.707682,22.5039511 97.781849,22.5995887 C98.7176854,22.6831202 99.7786207,22.1891945 100.63627,21.6904264 C100.742123,21.6290892 100.862812,21.667425 100.998335,21.8054336 C101.180371,21.9910593 101.328725,22.1791062 101.443399,22.3695742 C101.469051,22.4121869 101.464177,22.4666387 101.43137,22.5039511 C100.674762,23.3695317 99.6042039,23.7629774 98.4987622,23.9167239 C97.225319,24.0950859 96.1094524,23.8295605 95.1511624,23.1201476 C94.6539742,22.7521245 94.2582285,22.2610236 93.9639252,21.6468447 C93.3849416,20.4410849 93.2137324,19.1562324 93.4502977,17.7922873 C93.534499,17.3072393 93.6628056,16.9113724 93.8352176,16.6046865 C94.0565465,16.2112408 94.2429921,15.7257893 94.5425078,15.4049797 C95.4939816,14.3856526 96.5621342,14.0660536 97.9237882,14.1205307 C100.457042,14.2222213 101.750132,16.3456176 101.635859,18.7111343 C101.623028,18.9661679 101.478282,19.0944917 101.201621,19.0961058 C99.3620252,19.1082119 97.3063126,19.1106331 95.0344835,19.1033695 C94.9880663,19.103193 94.9437077,19.1227252 94.9121672,19.1572286 C94.8806267,19.191732 94.8647858,19.2380543 94.8684868,19.2849598 Z M95.0404979,18.1058332 L100.181584,18.0961484 C100.187007,18.0961484 100.192208,18.0939801 100.196043,18.0901206 C100.199878,18.0862611 100.202033,18.0810264 100.202033,18.0755682 L100.202033,18.0658834 C100.200757,17.3739739 99.9265547,16.710913 99.439747,16.2225671 C98.9529393,15.7342212 98.2934031,15.460593 97.6062293,15.4618735 L97.6062293,15.4618735 C96.9190548,15.4631606 96.2605319,15.7392516 95.7755287,16.2294139 C95.2905255,16.7195762 95.0187712,17.383658 95.0200445,18.0755682 L95.0200445,18.085253 C95.0200445,18.0966191 95.0292043,18.1058332 95.0404979,18.1058332 Z" id="形状"></path>
            <path d="M115.061142,16.8782826 C115.081591,17.5332184 115.728737,17.9060839 116.283262,18.0876742 C117.309715,18.4234145 118.128472,18.7232404 118.739532,18.9871516 C119.170963,19.1735844 119.534231,19.4758314 119.829336,19.8938927 C119.932784,20.039972 119.986512,20.2336684 119.990522,20.4749818 C120.001348,21.146866 120.050665,21.7679049 119.742729,22.2739367 C119.172567,23.2109428 118.153732,23.7593456 117.078362,23.9300405 C116.913168,23.9558667 116.601222,23.9603055 116.142526,23.9433571 C115.086402,23.9034072 114.137334,23.4796965 113.312162,22.8235501 C113.270477,22.7910003 113.259191,22.7321418 113.285699,22.6855414 C113.413204,22.4587553 113.581205,22.2327762 113.789703,22.0076042 C113.869895,21.922055 113.955299,21.8800874 114.045916,21.8817015 C114.190261,21.8857369 114.291302,21.9103525 114.34904,21.9555483 C115.083996,22.5305843 115.666188,22.7230701 116.561126,22.7133853 C117.304503,22.7061217 117.774827,22.5523752 118.21989,21.9870239 C118.698634,21.3768804 118.538652,20.6759417 117.945635,20.2038069 C117.815724,20.098888 117.572744,19.9992151 117.216693,19.9047881 C116.575962,19.7344967 115.989761,19.5609771 115.45809,19.3842292 C114.513834,19.0706832 113.484173,18.2692645 113.532288,17.1385621 C113.544317,16.8564917 113.497405,16.5005747 113.606866,16.2100302 C113.999805,15.1681052 114.737569,14.503081 115.820156,14.2149577 C116.360246,14.070896 117.315329,14.0721067 117.865042,14.1980093 C118.623655,14.3707219 119.292453,14.7286566 119.871437,15.2718134 C119.912963,15.3109347 119.92196,15.3738153 119.893089,15.4231387 C119.751952,15.6676804 119.580742,15.8851852 119.379461,16.0756533 C119.154524,16.2887193 118.530232,15.8674297 118.31612,15.7826876 C117.954456,15.6390295 117.723103,15.550252 117.622062,15.5163551 C116.749978,15.2246 115.02265,15.6701016 115.061142,16.8782826 Z" id="路径"></path>
            <path d="M109.905621,22.7605988 C109.956944,22.3933827 109.853096,22.3401162 109.594077,22.6007993 C108.90483,23.2944743 108.238437,23.7423971 107.244863,23.9264087 C106.319852,24.0971036 105.386422,23.8029273 104.638234,23.2569457 C104.08852,22.8562363 103.720441,22.047554 103.574893,21.4071455 C103.513145,21.1335494 103.482672,20.7126633 103.483474,20.1444874 C103.486682,18.185733 103.484276,16.2306104 103.476257,14.2791196 C103.476257,14.2614607 103.483101,14.244525 103.495282,14.2320383 C103.507463,14.2195515 103.523985,14.2125365 103.541212,14.2125365 L104.918504,14.2125365 C104.965609,14.2125331 105.010768,14.2315749 105.043963,14.2654382 C105.077159,14.2993015 105.095647,14.3451867 105.095326,14.3929162 C105.073674,16.9174254 105.07608,18.9762562 105.102543,20.5694087 C105.118582,21.5395047 105.573669,22.1932298 106.467806,22.5305843 C106.704772,22.6201689 107.027143,22.5935356 107.290572,22.6007993 C108.077252,22.6225901 109.016697,22.0536071 109.564005,21.5100467 C109.897201,21.1795523 109.736016,21.0040149 109.73361,20.5996738 C109.718374,18.1921895 109.719577,16.1200421 109.737219,14.3832314 C109.738823,14.2686277 109.796561,14.2113259 109.910433,14.2113259 L111.260058,14.2113259 C111.290365,14.2113259 111.319431,14.2234427 111.340861,14.2450107 C111.362292,14.2665788 111.374332,14.2958313 111.374332,14.3263331 L111.374332,23.6939731 C111.374564,23.7478932 111.333851,23.7930695 111.280507,23.7980849 C111.142577,23.8101909 110.910022,23.8210863 110.58284,23.8307711 C110.243629,23.8404559 110.037136,23.6907448 109.963359,23.3816377 C109.902414,23.1290254 109.883168,22.9220124 109.905621,22.7605988 Z" id="路径"></path>
            <rect id="矩形" x="2.30247935" y="21.6480553" width="15.8514807" height="2.93449977" rx="0.66"></rect>
            <path d="M10.2871606,25.9142175 C12.852491,25.9158317 14.4066049,25.9202705 14.9495023,25.9275341 C15.0233129,25.9293848 15.0828934,25.9882867 15.0854271,26.061911 C15.1038712,26.5921548 14.9611301,27.1026254 14.6572038,27.5933228 C13.8143897,28.9540397 12.5814433,29.7490018 10.9583645,29.9782092 C10.8573231,29.9927364 10.6327865,30 10.2847548,30 C9.9367231,29.9991929 9.71218652,29.9915258 9.61114506,29.9769986 C7.98806635,29.7461771 6.75632282,28.9500043 5.91591447,27.5884804 C5.61198817,27.0969759 5.46964801,26.5861018 5.48889401,26.055858 C5.49145458,25.9817786 5.55174098,25.9227016 5.62602171,25.9214811 C6.16811717,25.9150246 7.72183012,25.9126034 10.2871606,25.9142175 Z" id="路径"></path>
        </g>
    </g>
</svg>