<?xml version="1.0" encoding="UTF-8"?>
<svg width="150px" height="50px" viewBox="0 0 150 50" version="1.1" xmlns="http://www.w3.org/2000/svg" xmlns:xlink="http://www.w3.org/1999/xlink">
    <title>spark</title>
    <g id="spark" stroke="none" stroke-width="1" fill="none" fill-rule="evenodd">
        <g id="spark备份" transform="translate(27.000000, 0.000000)" fill="currentColor">
            <g id="image-(7)" transform="translate(-0.000000, 0.000000)" fill-rule="nonzero">
                <path d="M66.3815026,17.2887398 C66.3597811,17.3176358 66.3653809,17.3587182 66.3940366,17.3806934 C66.5585844,17.5078151 66.7398442,17.609448 66.9378158,17.6855919 C68.0427291,18.1095461 68.6472497,18.3224912 69.5824729,18.7241829 C70.2863007,19.026823 71.1980631,19.3923786 72.3177599,19.8208498 C72.4700952,19.8789257 72.7053473,19.9166751 72.8692524,20.0125003 C72.8909602,20.0253463 72.9044415,20.0486107 72.9048352,20.0739049 C72.9052289,20.0991992 72.8924781,20.1228751 72.8711807,20.1363956 C71.5753662,20.9578472 70.1644967,21.8786731 68.6385723,22.8988734 C68.5183753,22.9795344 68.3785739,22.9840514 68.2191681,22.9124245 C67.4317808,22.5600972 66.7694114,22.2561666 66.2320597,22.0006326 C66.0231611,21.9019035 65.4343882,21.6428204 64.4657412,21.2233832 C63.7381311,20.9084827 63.0445875,20.5755141 62.3851105,20.2244774 C61.8152992,19.9215147 61.3804686,19.4191581 60.9948095,18.850982 C60.6612145,18.3599179 60.5069508,17.8146495 60.5320187,17.215177 C60.5423029,16.9790016 60.5792619,16.7950945 60.6428956,16.6634558 C60.8135498,16.3091927 61.0815828,15.9016934 61.4566363,15.5996986 C62.0531223,15.1189591 62.6222908,14.7917981 63.1641418,14.6182156 C64.2195622,14.2794394 65.3003717,13.9322745 66.4065705,13.5767208 C66.5563347,13.5283242 66.6990286,13.4812182 66.834652,13.4354028 C68.3705393,12.9165912 69.9237812,12.4587594 71.4702741,11.9709217 C71.8475772,11.8521887 72.0529407,11.5992359 72.0863644,11.2120631 C72.1509623,10.4677234 72.3688597,9.68660233 72.4710594,8.95387784 C72.5379069,8.47120244 72.6105394,8.07080126 72.6889567,7.7526743 C72.8085111,7.27064419 72.8114035,6.66955845 72.94542,6.1439714 C73.1199308,5.46448317 73.1826004,4.57204992 73.3445772,3.92837517 C73.4364926,3.56443276 73.5017332,3.29857412 73.5402991,3.13079925 C73.7389136,2.25966049 74.2007403,1.43207868 74.8091175,0.80582671 C75.080043,0.526094377 75.5871847,0.130210211 75.9805569,0.0518077228 C77.5791138,-0.264706024 78.5615803,0.923914407 79.3059023,2.12415002 C80.3266133,3.77027962 81.0214424,4.91179403 81.3903895,5.54869325 C81.920028,6.46242101 82.4313477,7.32839746 82.9243485,8.1466226 C83.084397,8.41119066 83.3116145,8.50572535 83.6060009,8.43022666 C85.1949163,8.02079145 86.3518935,7.66459249 87.5725045,7.36066186 C88.5861451,7.10899955 89.3780317,6.89766774 89.9481643,6.72666643 C90.9547345,6.4256396 91.5814305,6.29012912 92.8598903,5.98135883 C93.8462134,5.74324757 95.2288012,5.88456564 95.821752,6.81765203 C96.1109963,7.27258005 96.0049401,8.2647103 95.8092181,8.67124171 C95.7198737,8.85514878 95.5858572,9.10584316 95.4071685,9.42332484 C95.0803224,10.0031161 94.4999055,10.5054728 94.0621825,11.0755847 C93.5492559,11.7434577 92.7422643,12.6271796 92.2688678,13.189548 C91.2005922,14.4594748 90.6124621,15.1560631 90.5044776,15.2793131 C89.9009211,15.9704165 89.2173404,16.7863832 88.4537354,17.727213 C88.4121717,17.7781606 88.4053195,17.849245 88.4363808,17.9072484 C88.999443,18.9764905 90.3174329,21.4931136 92.3903504,25.4571175 C92.4526986,25.5764958 92.5423644,25.8071863 92.6593476,26.1491889 C92.7454781,26.3995606 92.7885434,26.6383172 92.7885434,26.8654585 C92.7879006,27.2978015 92.7531913,27.6188322 92.6844155,27.8285508 C92.3746027,28.7706712 91.73473,29.4007949 90.7647974,29.7189219 C90.017583,29.9638087 89.1508142,29.86024 88.4103488,29.6434232 C87.8395734,29.4769389 87.2880809,29.3530436 86.7317677,29.1565534 C85.8190412,28.8339095 84.8931381,28.5583715 83.9540582,28.3299396 C83.5790048,28.238954 83.2646926,28.0511752 82.8664996,27.9737406 C82.7707276,27.9550273 82.6373539,27.9198591 82.4663784,27.868236 C82.078791,27.7501483 82.1385681,27.4045966 82.0585439,27.100666 C82.030905,26.9961293 81.9884825,26.7522105 81.9312764,26.3689094 C81.8104366,25.5648806 81.6664572,24.7650462 81.4993382,23.9694061 C81.4787698,23.8732582 81.4800553,23.7874349 81.5031948,23.7119362 C81.5175355,23.6651694 81.5501261,23.626224 81.5935386,23.6039767 C81.6369511,23.5817294 81.6874863,23.5780757 81.7336261,23.5938485 C81.9483097,23.6661208 82.1562442,23.7241967 82.3574297,23.7680763 C83.0429387,23.9181057 83.7689419,24.1891267 84.4843395,24.3633544 C85.6516009,24.6472811 86.6408164,24.9176568 87.451986,25.1744814 C87.5503291,25.2054552 87.6219974,25.2048099 87.6669909,25.1725456 C87.721626,25.1325377 87.7679051,25.0893034 87.8058282,25.0428427 C87.823457,25.0210643 87.8264837,24.9906779 87.8135414,24.9654081 L84.0186561,17.7504434 C84.0051902,17.725233 84.0082216,17.6940393 84.0263693,17.671073 C84.9413455,16.5308491 85.9160988,15.4341822 86.7298394,14.4681861 C87.3468939,13.7354617 88.4074564,12.5323223 89.2067348,11.5305127 C89.31022,11.4008098 89.4223825,11.2727201 89.5432223,11.1462437 C89.7389443,10.9420101 89.9838378,10.743584 90.0002283,10.5383824 C90.0027323,10.5063736 89.9915201,10.4747156 89.9693756,10.4512686 C89.7939007,10.2634898 89.416919,10.4774027 89.2134838,10.5345107 C88.0835027,10.8565094 86.3274684,11.3240205 83.9453809,11.9370441 C83.7573721,11.9854407 83.5134427,12.0793301 83.2859039,12.1296626 C82.6717418,12.2671089 82.0681854,12.4771501 81.4511309,12.5826547 C81.2602296,12.6149191 81.1123936,12.5490997 81.0076229,12.3851966 C80.2285916,11.1675382 78.9809845,9.10713373 77.2648016,6.20398318 C77.1712793,6.04621027 77.091255,5.83036145 76.9958044,5.71227375 C76.9752359,5.68646223 76.9485612,5.67194325 76.9157802,5.66871681 C76.6953117,5.64290529 76.5780071,5.74066642 76.5638663,5.96200019 C76.5233721,6.56276329 76.4365988,7.11319392 76.3035464,7.6132921 C76.2071316,7.97336278 76.1470331,8.26503294 76.1232508,8.48830258 C76.0750434,8.93548714 76.0663661,9.28781436 75.9554891,9.67111542 C75.8288644,10.1099112 75.7568747,10.4854688 75.73952,10.7977882 C75.7253792,11.0591298 75.6929195,11.2888523 75.6421411,11.4869557 C75.4252079,12.3368 75.3336138,13.1798687 75.1600672,14.0781096 C75.0636525,14.5765945 74.5266222,14.6433818 74.0927558,14.7750206 C72.4948417,15.2609224 70.5019484,15.8881423 68.114076,16.6566803 C67.7342018,16.779285 67.2604839,16.926088 66.6929223,17.0970893 C66.5495857,17.1403236 66.4457791,17.2042071 66.3815026,17.2887398 Z" id="路径"></path>
                <path d="M24.7515341,21.9251339 C24.6965777,21.7557458 24.5963064,21.7354192 24.4324013,21.7334833 C23.770996,21.7250946 23.3933714,21.7231587 23.2995277,21.7276758 C23.125017,21.7373551 22.9726817,21.7751044 22.8743386,21.9415887 C22.7772811,22.1054919 22.687294,22.2703629 22.6043773,22.4362019 C22.4886795,22.667215 22.3032418,22.7982085 22.0480641,22.8291823 L21.6826521,22.8737072 C21.4204039,22.9053263 21.349057,22.8027255 21.4686113,22.5659048 C22.2045774,21.1056182 23.0016061,19.6208105 23.8596975,18.111482 C24.0332441,17.8056155 24.522067,17.8181986 24.8180603,17.898537 C25.0012484,17.9488694 25.0677746,18.1385841 25.0986273,18.3070042 C25.384015,19.8305291 25.5842364,20.9814002 25.6992913,21.7596175 C25.7397855,22.0306385 25.8429493,22.3413446 25.8834435,22.6162373 C25.895557,22.6959109 25.8444022,22.7716815 25.7658175,22.790465 C25.5565975,22.8388616 25.1680459,22.904681 25.0012484,22.7652988 C24.7814227,22.5813917 24.8132396,22.1138806 24.7515341,21.9251339 Z M23.614804,20.4248393 C23.5665966,20.5061456 23.5447426,20.5861613 23.549242,20.6648865 C23.5518131,20.699732 23.5688463,20.7236077 23.6003418,20.7365134 C23.8715887,20.8468577 24.1576192,20.8436312 24.4584333,20.7268341 C24.5393584,20.6949149 24.5880036,20.6120536 24.5760593,20.5264722 C24.5362078,20.2283492 24.4719313,19.9324846 24.3832297,19.6388786 C24.3285947,19.4556168 24.2231812,19.4210939 24.0669893,19.5353099 C24.0511583,19.5467537 24.0382299,19.5623952 24.0293875,19.5808027 C23.895371,19.8624709 23.7729243,20.1576901 23.614804,20.4248393 Z" id="形状"></path>
                <path d="M43.7664547,21.9338453 C43.7047492,22.1409827 43.6767889,22.4623361 43.4868518,22.620109 C43.2467791,22.8204709 43.0211685,22.8262785 42.6750395,22.847573 C41.5643414,22.9153283 40.7775969,22.2126097 40.5008865,21.1672432 C40.4276113,20.8871882 40.4272899,20.5903557 40.4999223,20.2767458 C40.719748,19.3281725 41.3088422,18.495751 42.1997147,18.1143858 C42.743494,17.8814368 43.2808456,17.7991626 43.8117696,17.8675631 C44.1119409,17.9062804 44.2674901,18.0821214 44.2784171,18.3950861 C44.2874158,18.6493295 44.2739177,18.8496914 44.2379229,18.9961718 C44.2327123,19.016609 44.218678,19.0336349 44.1997559,19.0424748 C44.1808337,19.0513147 44.1590612,19.0510168 44.140544,19.0416646 C44.0280601,18.9861698 43.8554776,18.9100259 43.6227967,18.8132327 C43.1474719,18.6157745 42.5988718,18.8306554 42.2189976,19.1403937 C41.7954154,19.4869133 41.5566282,19.8811842 41.5026359,20.3232065 C41.4518575,20.7329644 41.5103491,21.079484 41.6781108,21.3627654 C41.8908661,21.7202549 42.2414944,21.8967412 42.7299959,21.8922242 C42.9941724,21.8893204 43.3364448,21.7480023 43.6112269,21.7344513 C43.755849,21.7273531 43.8075916,21.7938178 43.7664547,21.9338453 Z" id="路径"></path>
                <path d="M37.0338114,21.9164225 C37.008828,21.8164712 36.9190843,21.746797 36.8168782,21.7480023 C36.4472883,21.7505835 36.0748059,21.7492929 35.699431,21.7441306 C35.4082584,21.7392909 35.2038591,21.7896234 35.0814124,22.0499971 C35.0081372,22.2068021 34.9248991,22.3758675 34.8316981,22.5571934 C34.7494575,22.7187935 34.5837354,22.8204709 34.4026524,22.8204709 L33.8444109,22.8204709 C33.7094302,22.8204709 33.6682933,22.7582006 33.721,22.6336601 C33.8511599,22.3229539 34.0854478,21.9986967 34.2262134,21.7170285 C34.7455676,20.6845678 35.372585,19.5085304 36.1072655,18.1889166 C36.2904536,17.8607876 36.7522803,17.8104552 37.0762339,17.8995049 C37.3307689,17.9701639 37.3924744,18.1802052 37.435861,18.4289637 C37.6299761,19.5349872 37.8208773,20.6252013 38.0085647,21.6996057 C38.0529155,21.951268 38.1560793,22.3161784 38.1850038,22.620109 C38.1959308,22.7349703 38.1441882,22.7924009 38.029776,22.7924009 L37.3191991,22.7924009 C37.2812527,22.7925459 37.2479,22.7662374 37.2382107,22.7285174 L37.0338114,21.9164225 Z M35.8990096,20.4025769 C35.8501595,20.4819473 35.8276627,20.5606725 35.8315193,20.6387523 C35.8334476,20.6735979 35.8498381,20.6974735 35.8806908,20.7103793 C36.1480811,20.8233047 36.4312191,20.82395 36.7301049,20.7123151 C36.8107233,20.6819988 36.8601733,20.6007265 36.8496592,20.515825 C36.8136644,20.2202831 36.7538872,19.926677 36.6703278,19.6350069 C36.6182638,19.4523904 36.5144572,19.4165769 36.3589081,19.5275664 C36.3428228,19.5385812 36.329557,19.5538967 36.3203421,19.5720913 C36.1843973,19.8489198 36.0590581,20.1402674 35.8990096,20.4025769 Z" id="形状"></path>
                <path d="M49.9128961,20.828467 C49.833836,20.803946 49.6962843,20.790395 49.5002409,20.7878138 C48.887043,20.7794251 48.4371074,20.7781345 48.1504342,20.7839421 C47.8255164,20.7907176 47.7204243,21.1275579 47.6683603,21.4460076 C47.611797,21.7886555 47.568089,22.1145259 47.5372362,22.4236188 C47.5134539,22.6585036 47.3845795,22.7882065 47.150613,22.8127275 L46.8748668,22.8417654 C46.6479707,22.8656411 46.5592691,22.7656214 46.608762,22.5417065 C46.6756096,22.2442288 46.7225315,21.9544945 46.7495276,21.6725036 C46.7700961,21.4653662 46.8176607,21.1749866 46.8922214,20.8013649 C47.0304159,20.1063897 47.1695746,19.2910684 47.3096974,18.3554008 C47.3276948,18.2334414 47.3849009,18.1018027 47.4813157,17.9604846 C47.4993131,17.9340278 47.5240596,17.9172503 47.5555551,17.9101522 C47.7792373,17.8578838 48.0299157,17.813359 48.2188887,17.9488694 C48.2458848,17.9675828 48.2613112,17.9933943 48.2651677,18.026304 C48.3143393,18.4250919 48.10994,18.9971397 48.0048479,19.3891522 C47.9604971,19.5556365 47.9971347,19.9573282 48.2950563,19.9437772 C48.8426922,19.9179657 49.3977199,19.9140939 49.9601394,19.932162 C50.1200788,19.937559 50.2580583,19.8203811 50.2792722,19.661141 C50.3525475,19.1190992 50.4094322,18.723215 50.4499264,18.4734885 C50.4839929,18.2605435 50.5534116,18.0905101 50.6581823,17.9633884 C50.7873781,17.8065834 51.1923201,17.8811142 51.3465837,17.9449977 C51.4202371,17.9750245 51.4661944,18.0493139 51.4603532,18.1289048 C51.4494261,18.2721587 51.4339998,18.3847614 51.4140741,18.466713 C51.2935556,18.9710056 51.250169,19.4356129 51.1518259,19.9340979 C51.0129886,20.6419788 50.8870067,21.387609 50.77388,22.1709886 C50.74367,22.3807072 50.6909633,22.5588066 50.6157598,22.705287 C50.5116318,22.9085527 50.0353429,22.8349899 49.8502265,22.7953047 C49.8054179,22.7857077 49.7725984,22.7468049 49.7702023,22.7004474 C49.7644174,22.5817144 49.7772727,22.444268 49.8087682,22.2881083 C49.91611,21.7602628 49.9848858,21.4243904 50.0150958,21.2804912 C50.0498051,21.116588 50.0408064,20.9865625 49.9880996,20.8904146 C49.9713878,20.8600861 49.9463199,20.8394369 49.9128961,20.828467 Z" id="路径"></path>
                <path d="M30.4679657,20.9591378 C30.130514,20.9601057 29.7342494,20.8807353 29.6542251,21.2892026 C29.6073032,21.5273138 29.5430267,21.9222301 29.4613956,22.4739513 C29.4337567,22.6656018 29.3244866,22.7765913 29.1335853,22.8069199 L28.8173449,22.8562844 C28.630943,22.8853224 28.5444911,22.8053067 28.5579892,22.6162373 C28.5820929,22.278429 28.6794718,22.0025684 28.6948982,21.6967019 C28.7209301,21.212736 28.8838711,20.6310089 28.9475048,20.2293171 C29.0574177,19.5375684 29.1724726,18.8671142 29.2926697,18.2179545 C29.3312356,18.0069453 29.4035467,17.898537 29.6378346,17.897569 C30.2915267,17.893052 30.7977042,17.9137012 31.1563672,17.9595167 C31.7946329,18.0417909 32.0395265,18.4115409 32.2824917,19.0281135 C32.3371267,19.1674958 32.3380909,19.3107497 32.2853841,19.4578753 C32.1176224,19.9244185 32.062666,20.2002791 31.7483539,20.4635566 C31.409938,20.7471607 30.9384698,20.9572019 30.4679657,20.9591378 Z M31.2113236,19.1278105 C30.9959973,18.8380762 30.7241076,18.7345075 30.3956547,18.8171044 C30.2356061,18.8571122 30.123765,18.9580998 30.0601313,19.1200671 C29.9608241,19.3726973 29.8055963,19.9776548 30.2066817,20.0473459 C30.6842562,20.130588 31.0284569,19.9741057 31.2392839,19.5778989 C31.3241289,19.4178675 31.3148088,19.267838 31.2113236,19.1278105 Z" id="形状"></path>
                <path d="M55.030592,21.7789761 C55.1062561,21.8300024 55.1796769,21.858246 55.2369196,21.8583466 L56.3447253,21.8612504 C56.5073449,21.8612504 56.5886547,21.9425566 56.5886547,22.1051692 L56.5886547,22.4913741 C56.5886547,22.690768 56.4890261,22.7904665 56.2897689,22.7904665 L54.005703,22.7904665 C53.9784524,22.7906187 53.9525487,22.7785828 53.9350298,22.7576272 C53.9175109,22.7366717 53.9101962,22.708973 53.9150731,22.6820567 C53.9950974,22.2203531 54.0028106,21.8438276 54.1136876,21.4043865 C54.2113879,21.013342 54.2926976,20.5545422 54.3576169,20.0279873 C54.4386053,19.3697935 54.6131161,18.8587255 54.691212,18.1734296 C54.7124233,17.9875867 54.8907906,17.8995049 55.0913333,17.8995049 C55.9462109,17.8982143 56.6060093,17.9014408 57.0707285,17.9091842 C57.2468461,17.9117654 57.3262276,18.0011378 57.308873,18.1773014 L57.2789844,18.4928472 C57.2622725,18.6690108 57.1658577,18.7625776 56.9897401,18.7735474 C56.6985675,18.7922608 56.3337983,18.798391 55.8954325,18.7919382 C55.7286349,18.7900023 55.5888335,18.8190402 55.5078451,18.993268 C55.4127159,19.1997601 55.361616,19.3555972 55.3545456,19.4607791 C55.3294778,19.8431122 55.5001319,19.9495848 55.8655439,19.9350658 C56.1518958,19.9234506 56.4546381,19.8653747 56.7255636,19.9670075 C56.8117883,19.9992966 56.8639595,20.0875301 56.8509028,20.1789846 C56.8171577,20.416128 56.6783204,20.7887818 56.3929327,20.7829742 C56.0477678,20.7752307 55.4847056,20.7094113 55.2465611,20.8362104 C55.2182794,20.8516973 55.1967468,20.8739598 55.1819632,20.9029977 C55.0720504,21.1204598 54.9997393,21.3572805 54.96503,21.6134598 C54.9547457,21.6876679 54.9765997,21.74284 55.030592,21.7789761 Z" id="路径"></path>
                <path d="M8.3610236,26.3979474 C8.51721553,26.9322458 8.84309744,27.3358735 9.2345414,27.7888656 C10.7280062,29.5195279 12.6215922,31.3382721 14.0996306,33.1463689 C14.6273408,33.7916569 15.0011087,34.5376098 15.2209343,35.3842276 C15.3616999,35.9301412 15.4629354,36.3947485 15.4397959,36.9087204 C15.4346537,37.0210005 15.4163349,37.2520136 15.3848394,37.6017597 C15.3472377,38.0247459 15.2218985,38.3809449 15.1331969,38.8165143 C15.0907744,39.024297 15.0403173,39.1988474 14.9818257,39.3401655 C14.474684,40.5642767 13.7904606,41.6251301 12.9291553,42.5227257 C12.3918037,43.0828357 11.6899042,43.594549 10.8234568,44.0578658 C10.716115,44.1152964 10.3651652,44.2595183 9.77060751,44.4905314 C9.30974492,44.6695988 8.9857913,44.7218671 8.44201201,44.8438265 C6.20518939,45.3452153 3.34456323,44.9803049 1.68526507,43.2206046 C1.24047161,42.7488991 0.826530875,42.1074829 0.443442864,41.2963559 C0.269896282,40.9285418 0.190836172,40.4494155 0.00861226066,40.0303009 C-0.0126615183,39.982359 0.00673123938,39.9260685 0.0529630539,39.901566 C0.641093138,39.5886013 1.20833336,39.285316 1.75468371,38.99171 C2.34184964,38.6751962 3.34649153,38.1989737 4.06285325,37.724687 C4.07962383,37.7134526 4.10043102,37.7100928 4.11986478,37.7154813 C4.13929853,37.7208698 4.15543872,37.7344741 4.16408876,37.7527571 C4.25857523,37.9495699 4.47454431,38.3883657 4.811996,39.0691445 C5.01639531,39.4814835 5.37859345,39.8928546 5.89859043,40.3032578 C7.14716168,41.2876445 8.64544717,40.8927283 9.85641665,40.0099744 C10.3037812,39.6841039 10.6315914,39.2317571 10.8398473,38.6529338 C10.9854336,38.2493062 10.9970034,37.8147047 10.8234568,37.3917185 C10.6293417,36.920013 10.4689718,36.6054351 10.3423471,36.4479848 C9.56717235,35.4877963 9.03592698,34.8789671 8.16915822,33.9662073 C7.68387055,33.4557845 7.25450345,32.989564 6.88105692,32.5675456 C6.09752624,31.6828558 5.63055738,31.1563008 5.48015034,30.9878807 C4.76539553,30.186433 4.30806814,29.2659298 4.10816819,28.2263708 C3.98379314,27.583664 3.88545008,27.0174238 4.00693269,26.3505187 C4.12005935,25.730397 4.19012074,25.3722622 4.21711688,25.2761143 C4.32124483,24.8966849 4.52178755,24.4685364 4.81874503,23.9916686 C5.14462695,23.4676947 5.52096592,22.9669513 5.94776196,22.4894382 C6.39834031,21.9835324 6.99964708,21.4979532 7.75168227,21.0327006 C7.94065522,20.9152582 8.35138213,20.7148963 8.983863,20.4316149 C9.48843362,20.2051188 10.1115944,20.0573479 10.8533454,19.988302 C11.2531453,19.9508753 11.7689643,19.9382922 12.4008024,19.9505527 C13.8094221,19.9766869 15.1004159,20.5487346 16.1378388,21.4973079 C16.8137063,22.1158165 17.320848,22.9492059 17.9272969,23.6432131 C17.9396258,23.6571533 17.945046,23.6759262 17.9420539,23.6943247 C17.9390618,23.7127232 17.9279757,23.7287907 17.9118705,23.7380704 C17.6656915,23.8800338 17.4297967,24.0449048 17.2041861,24.2326836 C16.7703197,24.5927543 16.348023,24.8173145 15.9411527,25.1715776 C15.8023154,25.293537 15.6110928,25.4355004 15.3674848,25.5974677 C15.0171778,25.8304166 14.6340898,26.1440266 14.2182208,26.5382975 C14.1872836,26.5675431 14.1456426,26.5825848 14.1032372,26.5798323 C14.0608317,26.5770798 14.0214668,26.5567801 13.9945385,26.5237785 C13.8107077,26.2959919 13.6130574,26.0075482 13.4015877,25.6584474 C13.1779054,25.2886974 12.887697,25.0128368 12.5695282,24.7321365 C12.3892326,24.5714598 12.1645862,24.4930573 11.8734136,24.3633544 C11.1496601,24.0413557 10.3963394,24.0703937 9.61345144,24.4504683 C8.9912548,24.7524631 8.58695554,25.2015835 8.40055366,25.7978296 C8.32663567,26.0346503 8.31345899,26.2346895 8.3610236,26.3979474 Z" id="路径"></path>
                <path d="M72.9405993,31.0962891 C72.988832,31.1270621 73.0520661,31.1189233 73.0910063,31.0769304 C73.6373567,30.4852014 74.1229657,29.9299311 74.5478335,29.4111195 C75.1427126,28.6842027 75.9901984,27.8566208 76.6332849,27.1171208 C77.44574,26.1846797 78.3732501,25.1548001 79.4158151,24.0274821 C79.5932183,23.8358315 79.7204858,23.6490207 79.8949965,23.4051018 C79.9229885,23.3666837 79.9665035,23.3427097 80.0136803,23.3397145 C80.0608571,23.3367192 80.1067779,23.3550151 80.1389259,23.3896149 C80.224735,23.4815684 80.2652292,23.5396444 80.2816197,23.68677 C80.2886901,23.7487177 80.3349692,24.1065298 80.420457,24.7602065 C80.5332623,25.6197301 80.7212711,26.4511837 80.8552876,27.1819723 C80.8871045,27.3562 80.8543234,27.4965502 80.7251277,27.627221 C79.3926756,28.9823257 77.9837344,30.4803617 76.4983042,32.121329 C76.3054747,32.334274 76.046119,32.5472191 75.8667875,32.7379017 C75.8015731,32.8072329 75.8007318,32.9153466 75.8648592,32.9856922 C75.9593457,33.0902289 76.0502969,33.2037996 76.137713,33.3264043 C76.903889,34.3975823 77.4659871,35.1806392 77.8240073,35.6755751 C77.874143,35.7452662 77.9888765,35.9052976 78.168208,36.1556694 C80.8896755,39.9660948 82.7067725,42.5130464 83.619499,43.7965241 C83.7313401,43.9533291 83.8550724,44.1123926 83.9906958,44.2737146 C84.0324756,44.3234018 84.0530441,44.3698625 84.0524159,44.4130968 C84.0519769,44.4392454 84.0407082,44.4640314 84.0213092,44.4814856 C84.0019101,44.4989398 83.9761388,44.5074803 83.9502016,44.5050503 C83.6558152,44.477303 83.4048154,44.4611708 83.1972023,44.4566537 C82.240125,44.4340687 80.8565731,44.4224535 79.0465465,44.4218082 C78.9514173,44.4218082 78.8550025,44.3747022 78.7573022,44.2804901 C78.7071666,44.2320935 78.6438542,44.1459476 78.5673651,44.0220523 C78.4002462,43.7503861 77.9702363,43.0931603 77.2773356,42.0503749 C75.1247152,38.8123199 73.6627459,36.5722027 72.8914278,35.3300234 C72.7905136,35.1687014 72.7227019,35.0577119 72.6879926,34.9970548 C72.6507122,34.932526 72.5636175,34.8992937 72.4267086,34.8973578 C72.2788726,34.895422 72.2046332,34.9773735 72.2039905,35.1432125 C72.2014194,35.9052976 72.1429278,36.5686537 72.0285156,37.1332806 C71.8453275,38.0334573 71.8356861,38.8358729 71.6679244,39.8357466 C71.5451562,40.5713749 71.450027,41.3002277 71.3825366,42.0223049 C71.3140822,42.760837 71.1453563,43.4674273 71.0932923,44.2408049 C71.0867066,44.3336617 71.0100396,44.4055548 70.9178175,44.4053533 L66.834652,44.4053533 C66.8056501,44.4052966 66.7781826,44.3922651 66.7597262,44.3698059 C66.7412699,44.3473468 66.7337455,44.3177975 66.7392014,44.2892015 C66.93878,43.2515785 67.0245891,42.1336171 67.1749962,41.1647172 C67.2566273,40.6407434 67.3012995,40.3061615 67.3090127,40.1609718 C67.3276529,39.820905 67.3652546,39.4856779 67.421818,39.1552905 C67.5253032,38.544848 67.6143261,37.8853637 67.6888869,37.1768376 C67.7589483,36.5057381 67.8110123,36.070814 67.8450788,35.8720653 C67.9424577,35.2951779 68.029231,34.7734625 68.0928648,34.1384992 C68.1748173,33.3351157 68.3271526,32.6353009 68.3821091,31.8948329 C68.453456,30.9298048 68.707991,29.8108754 68.8082623,28.80713 C68.8532559,28.3638172 68.9470996,27.6852969 69.0897935,26.7715691 C69.1219317,26.565077 69.1434643,26.3363224 69.1543914,26.0853054 C69.1842799,25.4009775 69.3684321,24.6266319 69.426281,24.085558 C69.4423501,23.9339153 69.4905575,23.8142144 69.5709032,23.7264552 C69.7592333,23.5206084 69.9835584,23.3379919 70.2438782,23.1786057 C71.054405,22.6810887 71.6573187,22.2910121 72.0526193,22.008376 C72.5838646,21.6289467 73.2202021,21.3366312 73.7466268,20.8391142 C73.8263296,20.7636155 73.9153526,20.7219945 74.0136957,20.714251 C74.0690596,20.7096307 74.1235207,20.7304828 74.1617595,20.7709416 C74.1999982,20.8114004 74.2178826,20.8670942 74.2103818,20.9223564 C74.1840284,21.1159428 74.1406418,21.3104971 74.0802218,21.5060193 C73.9172809,22.0325743 73.9625958,22.4904061 73.8738942,23.0150252 C73.7652669,23.6583773 73.6887779,24.2055815 73.6444271,24.6566378 C73.539335,25.7252347 73.3137244,26.787056 73.2230946,27.8875947 C73.1430703,28.8710135 72.964703,29.6995633 72.8412921,30.7952622 C72.8245802,30.9430332 72.8576826,31.0433755 72.9405993,31.0962891 Z" id="路径"></path>
                <path d="M18.7796034,50 L15.5391031,50 C15.4150494,49.9877395 15.3035297,49.9570884 15.2045438,49.9080465 C15.1756194,49.8932048 15.1662993,49.8702971 15.1765835,49.8393233 C15.2280048,49.6850995 15.2572506,49.573142 15.264321,49.5034509 C15.3138139,49.003998 15.3713414,48.5626211 15.4369034,48.17932 C15.6461235,46.9606937 15.7406099,45.818534 15.9228339,44.5776452 C15.9446879,44.4272931 15.9932166,44.0075333 16.0684201,43.3183658 C16.1301256,42.7511576 16.2747478,42.162655 16.3200627,41.6486832 C16.3971945,40.7665745 16.5087143,39.8844659 16.6546219,39.0023572 C16.7272544,38.564852 16.7918523,38.0876615 16.8484156,37.5707859 C16.929404,36.8351576 17.0479942,36.3608709 17.1193411,35.6610561 C17.3227763,33.6690522 18.2252185,31.7535149 19.521033,30.186433 C19.9311171,29.6902066 20.330917,29.285611 20.7204327,28.9726464 C21.6338019,28.2376634 22.4954286,27.683361 23.3053126,27.3097393 C23.7398218,27.1090547 24.3395217,26.8944965 25.1044122,26.6660645 C25.7169674,26.4828028 26.3423778,26.3779435 26.9806436,26.3514867 C27.9534686,26.3118015 28.9928198,26.3708453 29.8383773,26.6205717 C31.4806422,27.1071189 32.8304489,27.9524461 33.8877976,29.1565534 C35.2192855,30.6723349 35.7418535,32.8579252 35.6685783,34.9283316 C35.601088,36.8216065 34.9097941,38.6848755 33.805845,40.2200156 C33.7389974,40.3135824 33.5178862,40.5920241 33.1425114,41.0553409 C32.8776922,41.3837924 32.6408332,41.6483605 32.4319346,41.8490451 C30.985713,43.2364142 29.3386274,44.1601439 27.4906777,44.6202342 C27.3107035,44.6654044 26.922152,44.7279973 26.3250232,44.808013 C25.8423066,44.8725418 25.451184,44.9028704 25.1516554,44.8989986 C24.2762093,44.8873835 23.4881793,44.7883318 22.7875653,44.6018435 C22.1769385,44.4385857 21.4782528,44.1282022 20.6915083,43.670693 C20.5295315,43.5768036 20.356949,43.4325817 20.213291,43.314494 C20.1895087,43.2944901 20.1621912,43.2870693 20.1313385,43.2922316 C19.9944295,43.3135261 19.9185832,43.3896701 19.9037996,43.5206635 C19.8022427,44.4195497 19.7148267,45.0812925 19.6415514,45.505892 C19.5637769,45.9550124 19.5033569,46.4170386 19.4602917,46.8919705 C19.3934441,47.6288894 19.3423443,48.0928514 19.3069922,48.2838567 C19.1945083,48.8826839 19.1199476,49.4085936 19.0833099,49.8615857 C19.0807389,49.8951407 19.0633842,49.9167579 19.031246,49.9264372 L18.7796034,50 Z M30.5173976,31.74672 C28.6462122,29.7180919 25.2609601,29.8104708 22.9562237,31.953054 C20.6514913,34.0956395 20.3000309,37.4770733 22.1712146,39.5057012 C24.0424,41.5343293 27.4276521,41.4419504 29.7323885,39.2993671 C32.0371209,37.1567816 32.3885813,33.7753479 30.5173976,31.74672 L30.5173976,31.74672 Z" id="形状"></path>
                <path d="M51.0409489,43.8942853 C51.0422344,43.884606 51.0624815,43.6464947 51.1016902,43.1799515 C51.1431486,42.6863062 51.296448,42.1452322 51.3388705,41.7251498 C51.4384991,40.7333422 51.5230227,40.0283651 51.5924414,39.6102185 C51.779486,38.4790287 51.905468,37.2884724 51.9703873,36.0385496 C51.9999545,35.4771491 51.9896702,34.9599508 51.9395345,34.4869547 C51.8212658,33.3744782 51.407325,32.4088048 50.6977123,31.5899344 C50.5807291,31.4550692 50.2792722,31.211473 49.7933418,30.8591457 C49.4925277,30.6413611 49.0981913,30.5474717 48.8118395,30.4622936 C48.0315226,30.2306353 47.2557051,30.2015973 46.484387,30.3751798 C46.0852298,30.4651974 45.5221676,30.5765096 45.0670899,30.7904226 C44.3915438,31.1085495 43.8390871,31.4560371 43.40972,31.8328853 C42.6403302,32.5078565 42.0624843,33.3228552 41.6761825,34.2778814 C41.496851,34.7221621 41.4447871,35.2758192 41.3435516,35.7665607 C41.2076067,36.43153 41.346444,37.0790764 41.5209547,37.8069613 C41.6443656,38.3219011 41.8516574,38.6393827 42.1698261,39.0972145 C42.5959794,39.7108834 43.2342452,40.1909776 43.8879373,40.5384652 C44.8038776,41.0243671 45.9714604,40.9779063 46.9915287,40.8675621 C47.5687317,40.8056144 48.1227953,40.6210621 48.6537193,40.313905 C48.6556476,40.3126144 48.9429636,40.1287074 49.5156673,39.7621838 C49.7345288,39.6228016 49.9726733,39.3885621 50.121152,39.261763 C50.2856999,39.1210902 50.342906,39.1546452 50.2927703,39.3624279 C50.1442916,39.9790005 50.173216,40.6381622 50.0526975,41.2537669 C49.8958629,42.0571504 49.7853072,42.87957 49.7210307,43.7210255 C49.7161128,43.7849679 49.6867156,43.8443404 49.6390782,43.8865418 C49.4645675,44.0414109 49.259204,44.1004548 49.0576971,44.1866007 C48.5235593,44.4143874 48.094835,44.5650621 47.7715241,44.6386249 C47.5986203,44.6773422 47.1788947,44.737354 46.5123473,44.8186603 C43.9718181,45.1283985 41.5392735,44.3927702 39.7122137,42.6679155 C39.4679629,42.4369024 39.268063,42.2100837 39.1125138,41.9874593 C38.8608713,41.6283566 38.5918741,41.3157146 38.4057936,40.9856498 C37.860086,40.0106197 37.5322758,39.0362348 37.4223629,38.0624953 C37.3613003,37.5165817 37.3555154,36.7725647 37.4050083,35.8304442 C37.4339327,35.2845306 37.6373679,34.696028 37.7260695,34.1801203 C37.7771693,33.8800613 37.9208273,33.628399 38.0153138,33.3641536 C38.884975,30.925933 40.7120348,28.9077949 42.9575348,27.6785214 C43.0796601,27.6114114 43.2875947,27.503003 43.5813383,27.3532962 C44.2408153,27.015488 44.9359658,26.8189978 45.6764312,26.6050848 C46.1109404,26.4792537 46.6097262,26.4018191 47.1727884,26.3727812 C48.0835866,26.3250299 48.9031121,26.3647151 49.631365,26.4918368 C50.6077252,26.6615475 51.5451981,27.043558 52.4437838,27.6378682 C54.2409551,28.8258434 55.3847556,30.4848787 55.8751854,32.6149743 C55.9111802,32.771134 55.9407474,33.1457236 55.963887,33.7387433 C55.9799561,34.1291425 55.9593876,34.8115345 55.9021815,35.7859194 C55.8751854,36.2414927 55.8054454,36.7841798 55.6929615,37.4139809 C55.5811203,38.038297 55.5473752,38.8678147 55.4297491,39.587956 C55.2427045,40.7330195 55.193533,41.7203101 55.00456,42.8140732 C54.941569,43.1786609 54.8821133,43.6703704 54.8261927,44.2892015 C54.818711,44.3734942 54.7480442,44.4381416 54.6632517,44.438263 L50.9898491,44.438263 C50.9670832,44.4383027 50.9455579,44.4278536 50.9314512,44.4099149 C50.9173444,44.3919763 50.9122161,44.3685315 50.917538,44.3463095 C50.950319,44.211767 51.0187735,44.0510903 51.0409489,43.8942853 Z" id="路径"></path>
                <path d="M62.8305467,31.3440796 C62.7334892,31.4460351 62.6235764,31.6276837 62.5008082,31.8890253 C62.4313896,32.0380869 62.3886457,32.2403846 62.3725766,32.4959187 C62.3507226,32.8411477 62.2938379,33.2780077 62.2019224,33.8064985 C62.0283759,34.8083081 61.9830609,35.662992 61.8114426,36.7141661 C61.683211,37.4991589 61.6137924,38.6945549 61.4315684,39.5676295 C61.3091217,40.1561321 61.3457593,40.6894626 61.2377748,41.3002277 C61.0584433,42.3139751 60.9372821,43.2980392 60.8742911,44.2524201 C60.868714,44.3316292 60.8029801,44.3929679 60.7238841,44.3927702 C59.3753628,44.3940608 58.2984099,44.3934155 57.4930252,44.3908344 C57.3011598,44.3898664 57.1382188,44.4227761 56.9598515,44.4325729 C56.9271633,44.4339758 56.8955177,44.4206689 56.873522,44.3961541 C56.8515263,44.3716393 56.8414677,44.3384658 56.8460821,44.3056564 C56.9531025,43.5467977 56.9926325,43.0531524 57.1160434,42.3349469 C57.1925325,41.8916341 57.2471675,41.3815339 57.2799485,40.8046465 C57.3040522,40.3787564 57.5123081,39.5773088 57.5653363,38.9752551 C57.5913682,38.6790679 57.6106512,38.2386589 57.6704284,37.9037545 C57.9076087,36.5912387 57.9722066,35.2845306 58.2113152,33.95556 C58.244739,33.7697171 58.2720565,33.5638702 58.2932678,33.3380195 C58.344689,32.8056569 58.4562087,32.0548643 58.627827,31.0856418 C58.6863186,30.7546091 58.7502738,30.5152073 58.8196924,30.3674363 C59.0607293,29.8554003 59.3258699,29.3278774 59.7153856,28.8894042 C60.76245,27.7094952 62.0216268,26.9119193 63.628861,26.8238375 C64.5634415,26.7722144 65.4867736,26.768988 66.3988573,26.8141581 C66.6379659,26.8257733 66.8192257,26.8422282 66.9426366,26.8635227 C66.9728709,26.8687141 66.9993371,26.8869074 67.0150911,26.9133293 C67.0308452,26.9397511 67.0343146,26.9717641 67.0245891,27.000969 C66.8982858,27.3784625 66.8182615,27.726918 66.7835522,28.1305456 C66.7134908,28.9661935 66.6048635,29.8118434 66.4576703,30.6674952 C66.4433286,30.7542718 66.3673787,30.8173309 66.279303,30.8155888 C65.7708758,30.802683 65.0554782,30.8013925 64.1331102,30.8117171 C63.5970441,30.81817 63.1628563,30.9956241 62.8305467,31.3440796 Z" id="路径"></path>
            </g>
            <text id="TM备份" font-family="PingFangSC-Medium, PingFang SC" font-size="3" font-weight="400">
                <tspan x="85.5435971" y="44.754193">TM</tspan>
            </text>
        </g>
    </g>
</svg>
