<?xml version="1.0" encoding="UTF-8"?>
<svg width="120px" height="32px" viewBox="0 0 120 32" version="1.1" xmlns="http://www.w3.org/2000/svg" xmlns:xlink="http://www.w3.org/1999/xlink">
    <title>TensorFlow</title>
    <g id="TensorFlow" stroke="none" stroke-width="1" fill="none" fill-rule="evenodd">
        <g id="TensorFlow备份" transform="translate(5.000000, 6.000000)" fill-rule="nonzero">
            <path d="M8.76899693,19.9801462 L8.64461672,19.9801462 L5.36482893,18.1019372 C5.3023778,18.0652844 5.2641962,17.9998926 5.26414018,17.9294926 C5.27302448,14.2573809 5.27253091,10.5718569 5.26265946,6.87292043 C5.26265946,6.70239189 5.26759519,6.60036218 5.27746663,6.56683129 C5.33077244,6.38863855 5.27549234,6.34648542 5.11162635,6.44037192 L-3.12621425e-14,9.29645194 C-3.12621425e-14,6.37015432 -3.12621425e-14,4.90445078 -3.12621425e-14,4.89934131 C0.0713406719,4.85444058 0.120761842,4.82443798 0.148263511,4.80933352 L8.72013328,0.00675172511 C8.73461236,-0.00199534146 8.75280803,-0.00226062168 8.76780574,0.00605669377 C8.78280345,0.0143740092 8.79230068,0.0299970128 8.7926884,0.0469887958 L8.76899693,19.9801462 Z" id="路径" fill="currentColor"></path>
            <path d="M15.6336002,10.0703305 L15.6336002,13.7678299 C15.6338105,13.7952899 15.6187729,13.8207337 15.5942434,13.8344221 C15.5697139,13.8481105 15.5394909,13.8479239 15.5151428,13.8339337 L13.1504381,12.5075474 C13.12609,12.4935571 13.095867,12.4933705 13.0713375,12.5070589 C13.046808,12.5207474 13.0317704,12.5461911 13.0319807,12.5736511 L13.0319807,18.0415816 C13.0318823,18.0689929 13.0166139,18.0942384 12.9920013,18.1076854 L9.63077413,19.9902055 C9.6065172,20.0034586 9.57684142,20.0032492 9.55278562,19.9896552 C9.52872982,19.9760612 9.51389426,19.9511171 9.5137975,19.9241017 L9.5137975,0.08435179 C9.51389426,0.0573363768 9.52872982,0.0323923144 9.55278562,0.0187983268 C9.57684142,0.00520433918 9.6065172,0.00499494351 9.63077413,0.018248031 L18.2056053,4.82226686 C18.2302179,4.83571382 18.2454863,4.86095935 18.2455847,4.88837062 L18.2455847,9.16499642 C18.2454879,9.19201184 18.2306524,9.2169559 18.2065966,9.23054989 C18.1825408,9.24414387 18.152865,9.24435327 18.1286081,9.23110018 L13.1519188,6.44468304 C13.1276618,6.43142995 13.0979861,6.43163934 13.0739303,6.44523333 C13.0498745,6.45882732 13.0350389,6.48377138 13.0349421,6.5107868 L13.0349421,8.52551441 C13.0350405,8.55292568 13.0503089,8.57817121 13.0749215,8.59161817 L15.5936208,10.0042268 C15.6182334,10.0176737 15.6335018,10.0429192 15.6336002,10.0703305 L15.6336002,10.0703305 Z" id="路径" fill="currentColor"></path>
            <path d="M29.0089154,4.46013323 C31.7847659,4.45821718 33.3854208,4.4591752 33.8108801,4.4630073 C33.9165045,4.46396533 33.9693168,4.51569871 33.9693168,4.61820743 L33.9693168,6.11991239 C33.9693168,6.16435704 33.9321922,6.20038654 33.8863966,6.20038654 L30.2008924,6.20038654 C30.1420125,6.20038654 30.0942808,6.24671018 30.0942808,6.30385329 L30.0942808,16.6807064 C30.094292,16.7248531 30.0576196,16.7610793 30.0113607,16.7626176 C29.6836287,16.7693238 29.3524417,16.7731559 29.0177997,16.7741139 C28.6821705,16.7741139 28.3504899,16.7707608 28.022758,16.7640546 C27.976499,16.7625163 27.9398267,16.7262902 27.9398378,16.6821435 L27.9265114,6.30529033 C27.9265114,6.27784924 27.9152791,6.25153206 27.8952855,6.23212828 C27.875292,6.2127245 27.8481749,6.20182357 27.8198997,6.20182357 L24.1343955,6.20613469 C24.0886,6.20613469 24.0514754,6.17010519 24.0514754,6.12566055 L24.048514,4.62395559 C24.048514,4.52144686 24.1013262,4.46971348 24.2069507,4.46875546 C24.63241,4.46492336 26.2330649,4.46204928 29.0089154,4.46013323 Z" id="路径" fill="currentColor"></path>
            <path d="M82.8862782,9.95249338 L82.8862782,11.4168353 C82.8862782,11.4771531 82.8358948,11.5260503 82.7737437,11.5260503 L77.9836247,11.5260503 C77.9214737,11.5260503 77.8710903,11.5749474 77.8710903,11.6352652 L77.8710903,16.664899 C77.8710903,16.7252167 77.8207068,16.7741139 77.7585558,16.7741139 L75.8084517,16.7741139 C75.7463006,16.7741139 75.6959172,16.7252167 75.6959172,16.664899 L75.6959172,4.57509629 C75.6959172,4.51477856 75.7463006,4.46588138 75.8084517,4.46588138 L83.5155828,4.46588138 C83.5777339,4.46588138 83.6281173,4.51477856 83.6281173,4.57509629 L83.6281173,6.09117163 C83.6281173,6.15148936 83.5777339,6.20038654 83.5155828,6.20038654 L77.982144,6.20038654 C77.9199929,6.20038654 77.8696095,6.24928372 77.8696095,6.30960144 L77.8696095,9.73406357 C77.8696095,9.79438129 77.9199929,9.84327847 77.982144,9.84327847 L82.7737437,9.84327847 C82.8035897,9.84327847 82.8322133,9.85478501 82.8533176,9.87526678 C82.8744219,9.89574855 82.8862782,9.92352778 82.8862782,9.95249338 Z" id="路径" fill="currentColor"></path>
            <rect id="矩形" fill="currentColor" x="84.9355903" y="4.43570358" width="2.08188787" height="12.3355362" rx="0.66"></rect>
            <path d="M34.2225193,12.9731478 C34.2926066,13.2136122 34.3414703,13.3807876 34.3691103,13.4746741 C34.7141173,14.635801 35.6469689,15.3097719 36.8730025,15.2278608 C37.7066461,15.1718163 38.4218323,14.8154308 38.9208339,14.1788228 C38.9434951,14.1502002 38.9776666,14.1323542 39.0145582,14.1298755 C39.0514497,14.1273968 39.0874604,14.1405273 39.1133271,14.1658895 L40.0994845,15.122957 C40.1348435,15.1570997 40.1380346,15.2116063 40.1068881,15.2494163 C39.2707766,16.251511 38.2545113,16.8028547 37.0580921,16.9034473 C36.0028346,16.9915857 35.0487593,16.8057287 34.1958664,16.3458765 C32.4945228,15.4290461 32.0162513,13.6384965 32.1095364,11.7976505 C32.2502045,9.00404814 34.3335731,6.91890566 37.3838498,7.52102468 C39.0304069,7.84579532 39.9928729,9.23397426 40.2031347,10.7902867 C40.2880291,11.4225835 40.3156691,12.0754779 40.2860548,12.7489698 C40.2844741,12.7803821 40.257751,12.8050517 40.2253454,12.8050143 L34.3528224,12.8050143 C34.3099513,12.8052441 34.2696336,12.824846 34.2439994,12.8579224 C34.2183653,12.8909987 34.2104072,12.9336885 34.2225193,12.9731478 L34.2225193,12.9731478 Z M34.4135318,11.2989982 L38.1893598,11.2932501 C38.2359731,11.2932501 38.2737606,11.2565772 38.2737606,11.2113389 L38.2737606,11.1538573 C38.2719303,10.0135229 37.3995587,9.09032715 36.3251373,9.09170593 L36.2718315,9.09170593 C35.755748,9.09236923 35.2611191,9.3106204 34.8967818,9.69843748 C34.5324445,10.0862546 34.3282508,10.6118617 34.3291281,11.1596055 L34.3291281,11.217087 C34.3291281,11.2623253 34.3669185,11.2989982 34.4135318,11.2989982 L34.4135318,11.2989982 Z" id="形状" fill="currentColor"></path>
            <path d="M43.8679088,8.4162995 C43.8767931,8.57820581 43.9384897,8.59976138 44.0529984,8.48096622 C44.8367912,7.67047665 45.8486144,7.33660477 47.0884679,7.47935057 C48.8845775,7.68628408 49.5064785,9.10320378 49.5316507,10.688257 C49.5395479,11.1711018 49.5400414,13.1570887 49.5331314,16.6462175 C49.5331314,16.6786132 49.5198711,16.7096821 49.4962676,16.7325894 C49.4726641,16.7554966 49.4406509,16.7683657 49.4072705,16.7683657 L47.5400866,16.7683657 C47.4902022,16.7683657 47.4497628,16.7291193 47.4497628,16.6807064 C47.45075,14.3143834 47.45075,12.4083917 47.4497628,10.9627313 C47.4482821,9.93956003 47.1136401,9.19517423 45.9349895,9.14775196 C45.1205953,9.11470009 43.9271375,9.59898197 43.9286182,10.5301828 C43.9325668,12.643587 43.9325668,14.6813072 43.9286182,16.6433434 C43.9286182,16.6909627 43.8888418,16.7295657 43.8397752,16.7295657 L41.9296505,16.7295657 C41.8781305,16.7295657 41.8363653,16.6896759 41.8363653,16.6404693 L41.8363653,7.67766185 C41.8363653,7.62607432 41.8801193,7.58425436 41.9340926,7.58425436 L43.6872614,7.58425436 C43.7629653,7.58415465 43.8254673,7.64165369 43.8294102,7.71502484 L43.8679088,8.4162995 Z" id="路径" fill="currentColor"></path>
            <path d="M52.5730431,13.9532078 C52.7072948,14.7330406 53.1682913,15.1823545 53.9560326,15.3011497 C54.6954039,15.4132387 55.3177985,15.3011497 55.8232166,14.9648828 C56.2486759,14.6832233 56.352326,14.3091143 56.1341671,13.8425559 C55.8557923,13.244748 54.6001445,13.0018885 53.9441869,12.8854884 C53.5068819,12.8069303 52.9585231,12.6038289 52.2991105,12.2761842 C51.4728705,11.8666283 50.9694268,11.178287 50.9605425,10.2456492 C50.9235245,6.56683129 58.0413304,6.43893488 58.1908828,10.2643307 C58.1920979,10.2894608 58.1826527,10.313977 58.1647473,10.3321688 C58.1468418,10.3503606 58.1220393,10.3606399 58.0961169,10.3606122 L56.2126451,10.3606122 C56.1464194,10.3603321 56.0901826,10.3148505 56.0793806,10.2528344 C55.9530261,9.53527328 55.5033817,9.11709515 54.7304475,8.99829999 C53.9160533,8.87327766 52.7181534,9.29289283 52.913608,10.3289974 C53.0039317,10.8089682 53.5784498,11.0360202 54.0226649,11.1495462 C55.8143323,11.6050874 58.4544504,12.0088951 58.1894021,14.4547342 C57.9539681,16.6304101 55.1968733,17.1606772 53.4407432,16.817225 C51.8948748,16.51401 50.7132628,15.5454462 50.5711139,13.9704523 C50.5677822,13.9330377 50.5806497,13.8959898 50.6065669,13.8683765 C50.6324841,13.8407632 50.6690591,13.825133 50.7073399,13.8253114 L52.4175678,13.8253114 C52.5064108,13.8253114 52.5582359,13.8679436 52.5730431,13.9532078 Z" id="路径" fill="currentColor"></path>
            <path d="M71.330764,8.42923285 C71.330764,8.55952431 71.3692626,8.57102062 71.4462599,8.46372176 C72.0267009,7.64077786 72.8776195,7.3227134 73.9990157,7.50952837 C74.1164859,7.52868888 74.175221,7.59622968 74.175221,7.71215076 L74.175221,9.43803369 C74.175221,9.47635471 74.1554781,9.49503621 74.1159924,9.49407818 C73.9037563,9.48928805 73.6549958,9.48018681 73.3697111,9.46677445 C72.5434711,9.42653738 71.4151648,9.84615255 71.4166456,10.7945978 C71.4215813,12.6704117 71.4215813,14.6252627 71.4166456,16.6591508 C71.4166456,16.7218495 71.3642733,16.7726769 71.2996689,16.7726769 L69.3984285,16.7726769 C69.3648996,16.7726769 69.3377191,16.7462981 69.3377191,16.7137583 L69.3377191,7.69059519 C69.3377191,7.63023958 69.3693077,7.60006178 69.432485,7.60006178 L71.1116179,7.60006178 C71.2326489,7.60006178 71.330764,7.6952826 71.330764,7.81274344 L71.330764,8.42923285 Z" id="路径" fill="currentColor"></path>
            <path d="M63.6695351,7.4922832 C66.5480486,7.49084687 67.9917475,9.6564635 67.9932282,12.2258879 C67.9932282,14.7967493 66.55101,16.9623666 63.6724965,16.9623666 C60.7925023,16.9638029 59.3488033,14.7981863 59.3488033,12.2287619 C59.3488033,9.65933758 60.7910215,7.4922832 63.6695351,7.4922832 Z M61.4188455,12.2359471 C61.4321719,13.6068816 61.8704641,15.2997127 63.6547279,15.2839052 C65.4404724,15.2680978 65.8476695,13.5680816 65.8358238,12.1985841 C65.8224974,10.8276497 65.3842052,9.13481862 63.5999414,9.15062604 C61.8141969,9.16499642 61.4069997,10.8650127 61.4188455,12.2359471 Z" id="形状" fill="currentColor"></path>
            <path d="M88.5204057,12.3307917 C88.4537735,9.76280433 89.8412052,7.56269879 92.718238,7.49228391 C95.5952708,7.42330608 97.0937562,9.55299675 97.1589078,12.1209841 C97.22554,14.6889714 95.8395891,16.889077 92.9625562,16.9580548 C90.0840427,17.0284697 88.587038,14.898779 88.5204057,12.3307917 Z M90.605255,12.2517546 C90.6215429,13.6255631 91.065758,15.3212682 92.8559446,15.3011497 C94.6461313,15.2810312 95.0488863,13.5752668 95.0325984,12.2014582 C95.0163105,10.8276497 94.5720954,9.13050751 92.7819088,9.15206308 C90.9917221,9.17218161 90.5889672,10.877946 90.605255,12.2517546 Z" id="形状" fill="currentColor"></path>
            <path d="M109.998203,7.68628408 L107.489869,16.7798621 C107.483837,16.8011904 107.463794,16.8159263 107.441005,16.815789 L105.822582,16.815789 C105.800753,16.8154781 105.781618,16.8015498 105.775199,16.7812991 L103.866555,10.688257 C103.860061,10.6677477 103.84054,10.6537501 103.818432,10.6537501 C103.796324,10.6537501 103.776803,10.6677477 103.770308,10.688257 L101.854261,16.7798621 C101.847842,16.8001128 101.828707,16.8140411 101.806878,16.814351 L100.185493,16.814351 C100.162704,16.8144893 100.142661,16.7997534 100.136629,16.778425 L97.6060842,7.68915815 C97.6019762,7.67464948 97.6049852,7.65911306 97.6142412,7.64704226 C97.6234971,7.63497147 97.6379675,7.62771277 97.6534672,7.62736551 L99.5991291,7.62736551 C99.6223455,7.62739561 99.6425301,7.64282956 99.6479928,7.6647285 L101.099095,13.6126298 C101.103948,13.6346185 101.123638,13.6505534 101.146798,13.6512345 C101.169959,13.6519156 101.190607,13.6371671 101.196823,13.6155039 L103.068449,7.66329146 C103.074867,7.64304072 103.094003,7.62911242 103.115832,7.62880255 L104.555088,7.62880255 C104.576917,7.62911242 104.596053,7.64304072 104.602471,7.66329146 L106.482982,13.6672372 C106.4901,13.68758 106.510075,13.7010236 106.532201,13.7003628 C106.554327,13.6997021 106.573412,13.6850921 106.579228,13.6643632 L107.977025,7.66329146 C107.981895,7.64082178 108.00223,7.62467501 108.025889,7.62449047 L109.94934,7.62449047 C109.965101,7.62439561 109.979998,7.63146868 109.989594,7.64360331 C109.99919,7.65573795 110.002376,7.67153356 109.998203,7.68628408 L109.998203,7.68628408 Z" id="路径" fill="currentColor"></path>
        </g>
    </g>
</svg>