<?xml version="1.0" encoding="UTF-8"?>
<svg width="120px" height="32px" viewBox="0 0 120 32" version="1.1" xmlns="http://www.w3.org/2000/svg" xmlns:xlink="http://www.w3.org/1999/xlink">
    <title>wdbhooks</title>
    <g id="wdbhooks" stroke="none" stroke-width="1" fill="none" fill-rule="evenodd">
        <g id="wdbhooks备份" transform="translate(5.000000, 1.000000)" fill="currentColor" fill-rule="nonzero">
            <path d="M16.9198807,0 C17.5409543,0.145714286 18.1904573,0.192857143 18.7677932,0.364285714 C22.9447316,1.61142857 25.1687873,5.63785714 24.0512922,9.78214286 C24.038443,9.82845007 24.0072709,9.86777046 23.9648549,9.89117436 C23.922439,9.91457826 23.8723791,9.92007944 23.8260437,9.90642857 L21.4073559,9.22071429 C21.3213386,9.19642857 21.2863486,9.14142857 21.3023857,9.05571429 C21.4685885,8.13857143 21.459112,7.31857143 21.2739563,6.59571429 C20.3882704,3.13071429 16.1260437,1.83 13.3771372,4.06071429 C12.2589132,4.96928571 11.6640822,6.20785714 11.5926441,7.77642857 C11.4942346,9.98785714 13.3749503,11.6592857 15.2994036,12.54 C15.3230929,12.5508628 15.3409324,12.5711066 15.348448,12.5956543 C15.3559636,12.6202019 15.3524423,12.6467249 15.3387674,12.6685714 C13.9508284,14.9514286 12.5701789,17.2278571 11.1968191,19.4978571 C10.7747515,20.1985714 11.1574553,20.8114286 11.288668,21.4735714 C12.0365805,25.2578571 6.73777336,26.8971429 5.05606362,23.4407143 C3.88827038,21.0407143 5.8695825,18.825 8.35606362,18.7928571 C8.40750595,18.7927366 8.45499461,18.7657966 8.48071571,18.7221429 L11.3652087,13.8257143 C11.3969077,13.7720653 11.3860184,13.703599 11.3389662,13.6607143 C8.69502982,11.2264286 7.75685885,7.52357143 9.49105368,4.25357143 C10.5976143,2.16642857 12.7276342,0.495 15.2206759,0.156428571 C15.5239231,0.115 15.8257124,0.0628571429 16.1260437,0 L16.9198807,0 Z" id="路径"></path>
            <path d="M25.8073559,30 L24.2284294,30 C22.4133201,29.6971429 20.8431412,28.9421429 19.5178926,27.735 C19.4905479,27.7100712 19.4755691,27.6747549 19.4768274,27.6381782 C19.4780856,27.6016014 19.4954575,27.5673536 19.5244533,27.5442857 L21.4620278,25.9521429 C21.5557755,25.8758451 21.6888123,25.8680236 21.7900596,25.9328571 C23.1196819,26.7792857 24.6045726,27.2571429 26.2578529,26.9657143 C27.8258449,26.6892857 29.3326044,25.1207143 29.7393638,23.6314286 C30.2744201,21.6771429 29.7772697,20.0078571 28.2479125,18.6235714 C27.0043075,17.4978571 25.5412856,17.1871429 23.8588469,17.6914286 C22.9972167,17.9514286 22.2026508,18.3185714 21.4751491,18.7928571 C21.4389604,18.8162846 21.3945119,18.824047 21.3522915,18.8143128 C21.3100711,18.8045785 21.2738184,18.7782099 21.2520875,18.7414286 C19.9822399,16.5671429 18.7240557,14.3814286 17.4775348,12.1842857 C17.0489066,11.43 16.554672,11.2864286 15.6383698,11.0271429 C14.2708416,10.6371429 13.4835653,9.74928571 13.2765408,8.36357143 C13.0972167,7.17857143 13.7073559,5.84785714 14.7920477,5.19428571 C15.8577866,4.55 16.9388337,4.50142857 18.0351889,5.04857143 C19.1045726,5.58214286 19.9727634,6.88285714 19.889662,7.98 C19.8473824,8.54 19.6571239,9.15357143 19.3188867,9.82071429 C19.2887747,9.87966154 19.2904166,9.94884474 19.3232604,10.005 L22.1902584,14.8714286 C22.2352631,14.9469728 22.3267165,14.9824629 22.4111332,14.9571429 C24.4186879,14.3542857 26.3059642,14.4228571 28.0729622,15.1628571 C31.9874751,16.8042857 33.8856859,21.0985714 32.3636183,25.0264286 C31.4560636,27.3642857 29.3829026,29.235 26.7564612,29.7942857 C26.4400928,29.8614286 26.1237243,29.93 25.8073559,30 Z" id="路径"></path>
            <path d="M59.3693837,12.78 C60.4569914,11.5642857 61.799006,11.3435714 63.3954274,12.1178571 C65.4073559,13.0928571 65.584493,16.1721429 64.9328032,17.9957143 C64.2446653,19.9157143 62.861829,20.685 60.7842942,20.3035714 C59.9707753,20.1535714 59.8176938,19.7421429 59.3037773,19.2857143 C59.2619638,19.248238 59.2000875,19.2429457 59.1519612,19.2727294 C59.1038349,19.3025131 59.0810363,19.3602078 59.0960239,19.4142857 L59.2272366,19.8728571 C59.2485405,19.9460295 59.2335034,20.0247585 59.1866357,20.0854292 C59.1397679,20.1460998 59.0665214,20.1816545 58.9888668,20.1814286 L57.127833,20.1814286 C57.1011532,20.1814286 57.0755661,20.1710434 57.0567006,20.1525577 C57.0378351,20.1340719 57.0272366,20.1089999 57.0272366,20.0828571 L57.0272366,9.10285714 C57.0272366,9.01291363 57.100669,8.94 57.1912525,8.94 L58.966998,8.94 C59.1025845,8.94 59.1703777,9.00642857 59.1703777,9.13928571 L59.1703777,12.7071429 C59.1703777,12.9042857 59.2367131,12.9285714 59.3693837,12.78 Z M61.0757614,18.7264162 C62.1784538,18.7226277 63.0681692,17.543367 63.0630224,16.09245 C63.0578263,14.641537 62.1597311,13.4683989 61.0570417,13.4721552 C59.9543494,13.4759437 59.064634,14.6552044 59.0697808,16.1061214 C59.0749769,17.5570344 59.9730721,18.7301725 61.0757614,18.7264162 L61.0757614,18.7264162 Z" id="形状"></path>
            <path d="M68.6570577,12.585 C68.6570577,12.8564286 68.7459907,12.8878571 68.9238569,12.6792857 C69.6907223,11.785 70.7192843,11.4792857 72.0095427,11.7621429 C73.9143141,12.18 74.1701789,13.6735714 74.1723658,15.375 C74.1738237,17.6978571 74.16945,19.2571429 74.1592445,20.0528571 C74.1592445,20.1371429 74.1162359,20.1792857 74.0302187,20.1792857 L72.0029821,20.1792857 C71.9450087,20.1792857 71.8980119,20.133235 71.8980119,20.0764286 C71.8819748,17.2078571 71.8681246,15.45 71.8564612,14.8028571 C71.8404241,13.8528571 71.3673294,13.3985714 70.4371769,13.44 C68.9129225,13.5064286 68.6308151,14.73 68.6417495,15.9642857 C68.6665341,18.6671429 68.6781975,20.0285714 68.6767396,20.0485714 C68.6738237,20.14 68.6344599,20.1857143 68.5586481,20.1857143 L66.6145129,20.1707143 C66.5022531,20.1707143 66.4461233,20.1157143 66.4461233,20.0057143 L66.4461233,9.09428571 C66.4461233,9.02446114 66.5038901,8.96785714 66.5751491,8.96785714 L68.5127237,8.96785714 C68.5924371,8.96785714 68.6570577,9.03213626 68.6570577,9.11142857 L68.6570577,12.585 Z" id="路径"></path>
            <path d="M102.151292,20.1792876 L99.7785288,20.1792876 C99.7396996,20.1790561 99.7039073,20.1586655 99.684493,20.1257143 L97.6900596,16.74 C97.6729655,16.7109965 97.6430135,16.6914944 97.6091033,16.6872883 C97.575193,16.6830823 97.5412265,16.6946564 97.5172962,16.7185714 L96.6840954,17.535 C96.6629553,17.5553034 96.6511194,17.5831378 96.6512922,17.6121429 L96.6512922,20.0678571 C96.6512922,20.1270305 96.6023373,20.175 96.5419483,20.175 L94.6306163,20.175 C94.5702273,20.175 94.5212724,20.1270305 94.5212724,20.0678571 L94.5212724,9.07928571 C94.5212724,9.02011235 94.5702273,8.97214286 94.6306163,8.97214286 L96.5353877,8.97214286 C96.5957767,8.97214286 96.6447316,9.02011235 96.6447316,9.07928571 L96.6447316,14.8671429 C96.6442655,14.9122002 96.6726193,14.9527284 96.7156767,14.9685499 C96.7587341,14.9843715 96.8072928,14.9721048 96.8371769,14.9378571 L99.540159,11.8757143 C99.5611385,11.8523121 99.5914728,11.8390147 99.6232604,11.8392857 L102.081312,11.8392857 C102.125455,11.8390316 102.165424,11.8648115 102.18264,11.9046417 C102.199856,11.9444719 102.190941,11.9905389 102.16004,12.0214286 L99.2011928,14.9185714 C99.1643437,14.9533854 99.1570742,15.0085895 99.1836978,15.0514286 L102.245328,20.0164286 C102.265938,20.0496008 102.266616,20.0911044 102.247099,20.1249055 C102.227582,20.1587067 102.190926,20.1795127 102.151292,20.1792876 L102.151292,20.1792876 Z" id="路径"></path>
            <path d="M83.9152167,16.5319071 C83.9369272,17.5472755 83.546108,18.5295078 82.8287352,19.2625235 C82.1113625,19.9955391 81.1261997,20.4192932 80.0899722,20.4405643 L79.3334652,20.4560786 C77.1756413,20.5003662 75.3897376,18.8222228 75.3445328,16.7078357 L75.320171,15.5680929 C75.2984605,14.5527245 75.6892797,13.5704922 76.4066524,12.8374765 C77.1240252,12.1044609 78.1091879,11.6807068 79.1454155,11.6594357 L79.9019225,11.6439214 C82.0597464,11.5996338 83.84565,13.2777772 83.8908549,15.3921643 L83.9152167,16.5319071 Z M81.6397285,15.2863286 C81.6405964,14.7981406 81.4435151,14.3296086 81.0918377,13.9838048 C80.7401602,13.6380009 80.2626942,13.4432517 79.7644771,13.4424 L79.4583141,13.4418829 C78.9600971,13.4410325 78.4819399,13.6341465 78.129032,13.9787448 C77.7761242,14.323343 77.5773742,14.7911977 77.576505,15.2793857 L77.5737904,16.8093857 C77.5729225,17.2975737 77.7700037,17.7661057 78.1216812,18.1119095 C78.4733587,18.4577134 78.9508247,18.6524625 79.4490417,18.6533143 L79.7552048,18.6538314 C80.2534218,18.6546818 80.731579,18.4615678 81.0844869,18.1169695 C81.4373947,17.7723712 81.6361447,17.3045166 81.6370139,16.8163286 L81.6397285,15.2863286 Z" id="形状"></path>
            <path d="M93.2866979,16.6169571 C93.2904513,18.7294393 91.5458161,20.4449322 89.3899364,20.4486214 L88.6289026,20.4499345 C86.4730229,20.4536124 84.7222879,18.7440964 84.7185229,16.6316143 L84.716483,15.4830429 C84.7127296,13.3705607 86.4573648,11.6550678 88.6132445,11.6513786 L89.3742783,11.6500655 C91.530158,11.6463876 93.2808931,13.3559036 93.2846581,15.4683857 L93.2866979,16.6169571 Z M91.0263384,15.2954357 C91.0317493,14.2776731 90.194152,13.4482924 89.1554811,13.4429571 L88.8536918,13.4413885 C87.8150209,13.4360866 86.968602,14.2568232 86.9631571,15.2745857 L86.9549737,16.8002786 C86.9495628,17.8180412 87.7871601,18.6474218 88.825831,18.6527571 L89.1276203,18.6543258 C90.1662912,18.6596277 91.0127102,17.8388911 91.0181551,16.8211286 L91.0263384,15.2954357 Z" id="形状"></path>
            <path d="M49.9526839,16.605 C49.9234903,16.6049533 49.8955507,16.6168177 49.8753244,16.6378503 C49.8550981,16.6588829 49.8443362,16.6872627 49.8455268,16.7164286 C49.8827038,17.8242857 50.4294235,18.5335714 51.573161,18.7307143 C52.4624917,18.8864286 53.1688535,18.6071429 53.6922465,17.8928571 C53.7447316,17.82 53.8168986,17.7835714 53.9087475,17.7835714 L55.8550696,17.7835714 C55.8874026,17.7839053 55.9176009,17.7994482 55.9362309,17.8253448 C55.9548608,17.8512413 55.9596511,17.8843342 55.9491054,17.9142857 C54.7353877,21.4157143 48.994831,21.3128571 47.8926441,17.8478571 C47.1141153,15.4007143 47.9801193,12.2185714 50.9477137,11.7471429 C52.6119284,11.4814286 54.3723658,11.8692857 55.3214712,13.3157143 C55.9352551,14.2528571 56.1852883,15.2814286 56.0715706,16.4014286 C56.0592784,16.516861 55.9593152,16.6046472 55.8397614,16.605 L49.9526839,16.605 Z M49.9417495,15.2228571 L53.7994036,15.2228571 C53.8151047,15.2228571 53.827833,15.2103851 53.827833,15.195 L53.827833,15.1757143 C53.827833,14.1981703 52.9760169,13.4057143 51.9252485,13.4057143 L51.8159046,13.4057143 C50.7651362,13.4057143 49.9133201,14.1981703 49.9133201,15.1757143 L49.9133201,15.195 C49.9133201,15.2103851 49.9260484,15.2228571 49.9417495,15.2228571 L49.9417495,15.2228571 Z" id="形状"></path>
            <path d="M110,16.935 L110,18.5228571 C109.545129,19.5885714 108.684957,20.2114286 107.419483,20.3914286 C105.140755,20.715 102.700199,20.3314286 102.256262,17.6914286 C102.243141,17.6114286 102.277402,17.5714286 102.359046,17.5714286 L104.364414,17.5714286 C104.467926,17.5714286 104.526243,17.6221429 104.539364,17.7235714 C104.692445,18.9042857 106.089861,18.9321429 106.990855,18.8014286 C107.926839,18.6664286 108.364215,17.5971429 107.216103,17.31 C105.708615,16.9342857 104.659642,16.6428571 104.069185,16.4357143 C103.053015,16.0785714 102.556594,15.3892857 102.57992,14.3678571 C102.647714,11.3657143 107.006163,11.055 108.854076,12.3857143 C109.304573,12.7085714 109.625315,13.2471429 109.816302,14.0014286 C109.880451,14.2514286 109.780583,14.3764286 109.5167,14.3764286 L108.03837,14.3764286 C107.752618,14.3764286 107.588602,14.2378571 107.546322,13.9607143 C107.412922,13.065 104.644334,12.8871429 104.747117,14.2114286 C104.752949,14.29 104.78721,14.3542857 104.849901,14.4042857 C105.43161,14.865 106.470378,15.0021429 107.609742,15.2528571 C108.738171,15.5028571 109.534924,16.0635714 110,16.935 Z" id="路径"></path>
            <path d="M41.5419483,11.8778571 C41.9195494,11.8778571 42.2446653,11.8857143 42.5172962,11.9014286 C42.6033135,11.9057143 42.6543406,11.9492857 42.6703777,12.0321429 C43.0275679,13.7664286 43.3701789,15.3878571 43.6982107,16.8964286 C43.7419483,17.1021429 43.711332,17.4321429 43.8687873,17.6592857 C43.8897549,17.6887221 43.9264991,17.7035766 43.9621953,17.6970474 C43.9978915,17.6905182 44.0256668,17.6638626 44.0328032,17.6292857 L45.261829,12.1092857 C45.2953612,11.9635714 45.387939,11.8907143 45.5395626,11.8907143 L47.4749503,11.8907143 C47.5055428,11.8909608 47.5342783,11.9051349 47.5527029,11.9290666 C47.5711275,11.9529983 47.5771454,11.9839652 47.5689861,12.0128571 L45.2049702,20.0228571 C45.1766717,20.1193495 45.0865554,20.1857144 44.9840954,20.1857144 L43.0421471,20.1857144 C42.9502982,20.1857144 42.8948973,20.1421429 42.8759443,20.055 C42.4021206,17.9321429 41.9924453,16.0364286 41.6469185,14.3678571 C41.6367131,14.3207143 41.5995361,14.2971429 41.5353877,14.2971429 C41.4712392,14.2971429 41.4340623,14.32 41.4238569,14.3657143 C41.0681246,16.0328571 40.6482439,17.9271429 40.1642147,20.0485714 C40.1438038,20.1357143 40.087674,20.1785714 39.995825,20.1771429 L38.0538767,20.1685714 C37.9516162,20.1674265 37.8624535,20.1001532 37.8351889,20.0035714 L35.5127237,11.9807143 C35.5052723,11.9517553 35.5119353,11.9210476 35.5307657,11.897564 C35.5495962,11.8740805 35.5784686,11.8604717 35.6089463,11.8607111 L37.544334,11.8692857 C37.6959576,11.8707143 37.7878065,11.9442857 37.8198807,12.09 L39.0204771,17.6164286 C39.0283581,17.6498726 39.0556322,17.675397 39.0903691,17.6818366 C39.1251059,17.6882761 39.1609828,17.6744587 39.1823062,17.6464286 C39.3419483,17.4214286 39.3135189,17.0914286 39.3572565,16.8857143 C39.6940358,15.3785714 40.0453943,13.7585714 40.411332,12.0257143 C40.428827,11.9428571 40.4805832,11.8992857 40.5666004,11.895 C40.8392313,11.8821429 41.1643472,11.8764286 41.5419483,11.8778571 Z" id="路径"></path>
            <path d="M0,22.4528571 L0,21.855 C0.400927767,18.245 2.33631544,15.85 5.80616302,14.67 C5.86983401,14.6481591 5.93994739,14.6532512 5.99996424,14.6840751 C6.05998109,14.7148989 6.10458717,14.7687253 6.12326044,14.8328571 L6.7749503,17.1085714 C6.80623754,17.21747 6.7525916,17.3325716 6.64811133,17.3807143 C4.54870775,18.3428571 2.61769384,20.1771429 3.00914513,22.6607143 C3.35175613,24.835 4.60629556,26.22 6.77276342,26.8157143 C6.92730285,26.8585714 7.38071571,26.8792857 8.13300199,26.8778571 C11.6057654,26.8671429 12.928827,23.9507143 12.804175,20.97 C12.8023992,20.9277798 12.8181306,20.8866515 12.847789,20.8559756 C12.8774474,20.8252997 12.9185096,20.8076859 12.9616302,20.8071429 C15.580053,20.7985714 18.1481776,20.7957143 20.666004,20.7985714 C21.5188867,20.8007143 21.9562624,20.5285714 22.6013917,19.8964286 C23.7371107,18.7807143 25.0630881,18.6464286 26.5793241,19.4935714 C28.3616302,20.4921429 28.5256461,23.0142857 27.2222664,24.4221429 C25.6192843,26.1578571 22.9316103,25.6157143 21.8163022,23.67 C21.7622364,23.5747216 21.6592665,23.5156599 21.5473161,23.5157143 L15.9204771,23.5157143 C15.7787596,23.5153562 15.6545984,23.6096882 15.6186879,23.745 C14.8576541,26.6821429 13.0243207,28.6064286 10.1186879,29.5178571 C8.17673956,30.1285714 6.10139165,29.8885714 4.27097416,28.935 C1.75168986,27.6221429 0.328031809,25.4614286 0,22.4528571 Z" id="路径"></path>
        </g>
    </g>
</svg>